<?xml version="1.0" encoding="utf-8"?>
<!-- Generator: Adobe Illustrator 17.1.0, SVG Export Plug-In . SVG Version: 6.00 Build 0)  -->
<!DOCTYPE svg PUBLIC "-//W3C//DTD SVG 1.1//EN" "http://www.w3.org/Graphics/SVG/1.1/DTD/svg11.dtd">
<svg version="1.1" id="Layer_1" xmlns="http://www.w3.org/2000/svg" xmlns:xlink="http://www.w3.org/1999/xlink" x="0px" y="0px"
	 viewBox="0 0 792 792" enable-background="new 0 0 792 792" xml:space="preserve">
<circle stroke="#3D4F29" stroke-width="16" stroke-miterlimit="10" cx="396" cy="396" r="384.8"/>
<path fill="#4B6470" d="M72.4,448c24,8.5,50.3-4,58.9-28c8.5-24-4-50.3-28-58.9c-1-0.4-2-0.7-3.1-1c11.3-2.9,23.6-2.6,35.4,1.6
	c31.6,11.2,48.1,46,36.8,77.5c-11.2,31.6-46,48.1-77.5,36.8c-17.6-6.3-30.6-19.9-36.6-36.2C62.4,443.4,67.1,446.1,72.4,448z"/>
<g>
	<g>
		<path fill="#93A1A1" d="M694.5,423.7c2.6-22.2-13.5-42.3-35.8-44.9c-22.4-2.6-42.6,13.3-45.2,35.5c-2.6,22.2,13.5,42.3,35.8,44.9
			C671.7,461.8,691.9,445.9,694.5,423.7z"/>
	</g>
	<g>
		<g>
			<polygon fill="#93A1A1" points="664.3,420.2 645,496.7 643.6,417.8 			"/>
		</g>
		<g>
			<polygon fill="#93A1A1" points="664,416.1 675.6,494.3 643.9,421.9 			"/>
		</g>
		<g>
			<polygon fill="#93A1A1" points="662.1,412.5 703,480.4 645.8,425.5 			"/>
		</g>
		<g>
			<polygon fill="#93A1A1" points="659,409.9 722.9,457.1 648.9,428.1 			"/>
		</g>
		<g>
			<polygon fill="#93A1A1" points="655.2,408.7 732.3,428.1 652.8,429.3 			"/>
		</g>
		<g>
			<polygon fill="#93A1A1" points="651.1,409 729.8,397.6 656.8,429 			"/>
		</g>
		<g>
			<polygon fill="#93A1A1" points="647.5,410.8 715.7,370.5 660.4,427.2 			"/>
		</g>
		<g>
			<polygon fill="#93A1A1" points="644.9,413.9 692.2,350.7 663,424.1 			"/>
		</g>
		<g>
			<polygon fill="#93A1A1" points="643.6,417.8 663,341.3 664.3,420.2 			"/>
		</g>
		<g>
			<polygon fill="#93A1A1" points="643.9,421.9 632.3,343.7 664,416.1 			"/>
		</g>
		<g>
			<polygon fill="#93A1A1" points="645.8,425.5 604.9,357.6 662.1,412.5 			"/>
		</g>
		<g>
			<polygon fill="#93A1A1" points="648.9,428.1 585,380.9 659,409.9 			"/>
		</g>
		<g>
			<polygon fill="#93A1A1" points="652.8,429.3 575.6,409.9 655.2,408.7 			"/>
		</g>
		<g>
			<polygon fill="#93A1A1" points="656.8,429 578.1,440.4 651.1,409 			"/>
		</g>
		<g>
			<polygon fill="#93A1A1" points="660.4,427.2 592.2,467.5 647.5,410.8 			"/>
		</g>
		<g>
			<polygon fill="#93A1A1" points="663,424.1 615.7,487.3 644.9,413.9 			"/>
		</g>
	</g>
</g>
<g>
	<rect x="194" y="420.9" fill="#4B6470" width="378.4" height="1.6"/>
	<rect x="201.9" y="415.5" fill="#4B6470" width="1.2" height="13"/>
	<rect x="212.5" y="415.5" fill="#4B6470" width="1.2" height="13"/>
	<rect x="223.1" y="415.5" fill="#4B6470" width="1.2" height="13"/>
	<rect x="233.6" y="415.5" fill="#4B6470" width="1.2" height="13"/>
	<rect x="244.2" y="415.5" fill="#4B6470" width="1.2" height="13"/>
	<rect x="254.8" y="415.5" fill="#4B6470" width="1.2" height="13"/>
	<rect x="265.4" y="415.5" fill="#4B6470" width="1.2" height="13"/>
	<rect x="276" y="415.5" fill="#4B6470" width="1.2" height="13"/>
	<rect x="286.6" y="415.5" fill="#4B6470" width="1.2" height="13"/>
	<rect x="297.2" y="415.5" fill="#4B6470" width="1.2" height="13"/>
	<rect x="307.8" y="415.5" fill="#4B6470" width="1.2" height="13"/>
	<rect x="318.4" y="415.5" fill="#4B6470" width="1.2" height="13"/>
	<rect x="329" y="415.5" fill="#4B6470" width="1.2" height="13"/>
	<rect x="339.6" y="415.5" fill="#4B6470" width="1.2" height="13"/>
	<rect x="350.2" y="415.5" fill="#4B6470" width="1.2" height="13"/>
	<rect x="360.8" y="415.5" fill="#4B6470" width="1.2" height="13"/>
	<rect x="371.3" y="415.5" fill="#4B6470" width="1.2" height="13"/>
	<rect x="381.9" y="415.5" fill="#4B6470" width="1.2" height="13"/>
	<rect x="392.5" y="415.5" fill="#4B6470" width="1.2" height="13"/>
	<rect x="403.1" y="415.5" fill="#4B6470" width="1.2" height="13"/>
	<rect x="413.7" y="415.5" fill="#4B6470" width="1.2" height="13"/>
	<rect x="424.3" y="415.5" fill="#4B6470" width="1.2" height="13"/>
	<rect x="434.9" y="415.5" fill="#4B6470" width="1.2" height="13"/>
	<rect x="445.5" y="415.5" fill="#4B6470" width="1.2" height="13"/>
	<rect x="456.1" y="415.5" fill="#4B6470" width="1.2" height="13"/>
	<rect x="466.7" y="415.5" fill="#4B6470" width="1.2" height="13"/>
	<rect x="477.3" y="415.5" fill="#4B6470" width="1.2" height="13"/>
	<rect x="487.9" y="415.5" fill="#4B6470" width="1.2" height="13"/>
	<rect x="498.5" y="415.5" fill="#4B6470" width="1.2" height="13"/>
	<rect x="509" y="415.5" fill="#4B6470" width="1.2" height="13"/>
	<rect x="519.6" y="415.5" fill="#4B6470" width="1.2" height="13"/>
	<rect x="530.2" y="415.5" fill="#4B6470" width="1.2" height="13"/>
	<rect x="540.8" y="415.5" fill="#4B6470" width="1.2" height="13"/>
	<rect x="551.4" y="415.5" fill="#4B6470" width="1.2" height="13"/>
	<rect x="562" y="415.5" fill="#4B6470" width="1.2" height="13"/>
</g>
<text transform="matrix(1 0 0 1 195.3744 205.5068)"><tspan x="0" y="0" fill="#FFFFFF" font-family="'CoventryGarden'" font-size="114.7303">edit</tspan><tspan x="154.3" y="0" fill="#FFFFFF" font-family="'CoventryGarden'" font-size="114.7303" letter-spacing="-34"> </tspan><tspan x="177.3" y="0" fill="#FFFFFF" font-family="'CoventryGarden'" font-size="114.7303">Your</tspan><tspan x="37.2" y="115" fill="#FFFFFF" font-family="'CoventryGarden'" font-size="114.7303">photos</tspan></text>
<g>
	<circle fill="#45582F" cx="396" cy="585.2" r="83.9"/>
	<path fill="#A0A8AA" d="M312.1,585.2c0,46.4,37.6,83.9,83.9,83.9V501.3C349.6,501.3,312.1,538.9,312.1,585.2z"/>
</g>
<rect x="373.8" y="552" fill="none" width="122.1" height="120.2"/>
<text transform="matrix(1 0 0 1 413.2978 603.4207)" fill="#FFFFFF" font-family="'HelveticaNeue'" font-size="72">+</text>
<rect x="300.9" y="555" fill="none" width="122.1" height="120.2"/>
<text transform="matrix(1 0 0 1 347.9716 606.4207)" fill="#FFFFFF" font-family="'HelveticaNeue'" font-size="72">-</text>
<g>
	<g>
		<path d="M376.7,148.8c3.2,0,3.2-5,0-5C373.5,143.8,373.5,148.8,376.7,148.8L376.7,148.8z"/>
	</g>
</g>
<g>
	<g>
		<path d="M376.7,148.8c3.2,0,3.2-5,0-5C373.5,143.8,373.5,148.8,376.7,148.8L376.7,148.8z"/>
	</g>
</g>
</svg>
