<?xml version="1.0" encoding="utf-8"?>
<!-- Generator: Adobe Illustrator 17.1.0, SVG Export Plug-In . SVG Version: 6.00 Build 0)  -->
<!DOCTYPE svg PUBLIC "-//W3C//DTD SVG 1.1//EN" "http://www.w3.org/Graphics/SVG/1.1/DTD/svg11.dtd">
<svg version="1.1" id="Layer_1" xmlns="http://www.w3.org/2000/svg" xmlns:xlink="http://www.w3.org/1999/xlink" x="0px" y="0px"
	 viewBox="0 0 792 792" enable-background="new 0 0 792 792" xml:space="preserve">
<circle stroke="#3D4F29" stroke-width="16" stroke-miterlimit="10" cx="396" cy="396" r="384.8"/>
<text transform="matrix(1 0 0 1 140.3852 203.5068)"><tspan x="0" y="0" fill="#FFFFFF" font-family="'CoventryGarden'" font-size="114.7303">Share</tspan><tspan x="242.1" y="0" fill="#FFFFFF" font-family="'CoventryGarden'" font-size="114.7303" letter-spacing="-25"> </tspan><tspan x="274.2" y="0" fill="#FFFFFF" font-family="'CoventryGarden'" font-size="114.7303">your</tspan><tspan x="86" y="106" fill="#FFFFFF" font-family="'CoventryGarden'" font-size="114.7303">Photos</tspan></text>
<rect x="303.9" y="576.5" fill="#3D4F29" stroke="#FFFFFF" stroke-width="5" stroke-miterlimit="10" width="195.7" height="141.7"/>
<polygon fill="#93A1A1" points="313,704.9 364.8,617.1 384.5,653 433.8,591 492,704.9 "/>
<polygon fill="#3D4F29" points="351.4,673.8 363.2,645.7 377.7,673.8 364.5,659.7 "/>
<polygon fill="#3D4F29" points="410.9,639.6 432.8,607.4 449.6,649.3 432.5,626.1 "/>
<rect x="67.2" y="380.1" fill="#3D4F29" stroke="#FFFFFF" stroke-width="2.9586" stroke-miterlimit="10" width="115.8" height="83.9"/>
<polygon fill="#93A1A1" points="72.6,456.1 103.3,404.1 114.9,425.3 144.1,388.7 178.6,456.1 "/>
<polygon fill="#3D4F29" points="95.3,437.7 102.3,421 110.9,437.7 103.1,429.4 "/>
<polygon fill="#3D4F29" points="130.6,417.5 143.5,398.4 153.4,423.2 143.3,409.5 "/>
<rect x="247.8" y="379.1" fill="#3D4F29" stroke="#FFFFFF" stroke-width="2.9586" stroke-miterlimit="10" width="115.8" height="83.9"/>
<polygon fill="#93A1A1" points="253.2,455.1 283.8,403.1 295.5,424.3 324.7,387.7 359.1,455.1 "/>
<polygon fill="#3D4F29" points="275.9,436.7 282.9,420 291.5,436.7 283.7,428.3 "/>
<polygon fill="#3D4F29" points="311.1,416.4 324.1,397.3 334,422.1 323.9,408.5 "/>
<rect x="428.4" y="379.4" fill="#3D4F29" stroke="#FFFFFF" stroke-width="2.9586" stroke-miterlimit="10" width="115.8" height="83.9"/>
<polygon fill="#93A1A1" points="433.7,455.4 464.4,403.4 476.1,424.7 505.3,388 539.7,455.4 "/>
<polygon fill="#3D4F29" points="456.5,437 463.5,420.3 472,437 464.3,428.7 "/>
<polygon fill="#3D4F29" points="491.7,416.8 504.6,397.7 514.6,422.5 504.5,408.8 "/>
<rect x="609" y="379.4" fill="#3D4F29" stroke="#FFFFFF" stroke-width="2.9586" stroke-miterlimit="10" width="115.8" height="83.9"/>
<polygon fill="#93A1A1" points="614.3,455.4 645,403.4 656.7,424.7 685.8,388 720.3,455.4 "/>
<polygon fill="#3D4F29" points="637,437 644.1,420.3 652.6,437 644.8,428.7 "/>
<polygon fill="#3D4F29" points="672.3,416.8 685.2,397.7 695.2,422.5 685,408.8 "/>
<g>
	<path fill="#FFFFFF" d="M130.6,477.7c0,0,9.1,6.9,22.9,17.2c13.7,10.3,32,24.1,50.2,37.8c9.1,6.9,18.3,13.8,26.8,20.2
		c4.2,3.3,8.4,6.4,12.2,9.4c3.9,3,7.5,5.9,10.9,8.5c3.4,2.6,6.4,5.1,9.2,7.3c2.7,2.2,5.1,4.1,7,5.7c3.9,3.2,6.1,5,6.1,5l-0.1,0.2
		c0,0-2.3-1.7-6.4-4.6c-2-1.5-4.5-3.2-7.3-5.3c-2.8-2.1-6-4.4-9.4-6.9c-3.4-2.6-7.2-5.3-11.1-8.3c-3.9-2.9-8-6.1-12.3-9.3
		c-8.5-6.6-17.5-13.6-26.5-20.6c-18.1-14-36.1-28-49.7-38.5c-13.5-10.5-22.6-17.6-22.6-17.6L130.6,477.7z"/>
</g>
<g>
	<path fill="#FFFFFF" d="M672.3,483.2c0,0-9,7-22.6,17.6c-13.6,10.5-31.6,24.5-49.7,38.5c-9,7-18.1,14-26.5,20.6
		c-4.3,3.2-8.4,6.4-12.3,9.3c-3.9,2.9-7.7,5.7-11.1,8.3c-3.4,2.6-6.6,4.9-9.4,6.9c-2.8,2.1-5.3,3.8-7.3,5.3
		c-4.1,2.9-6.4,4.6-6.4,4.6l-0.1-0.2c0,0,2.2-1.8,6.1-5c1.9-1.6,4.3-3.5,7-5.7c2.7-2.2,5.8-4.6,9.2-7.3c3.4-2.6,7-5.5,10.9-8.5
		c3.9-3,8-6.2,12.2-9.4c8.6-6.4,17.7-13.3,26.8-20.2c18.3-13.8,36.5-27.5,50.2-37.8c13.7-10.3,22.9-17.2,22.9-17.2L672.3,483.2z"/>
</g>
<g>
	<path fill="#FFFFFF" d="M487.8,472.5c0,0-1.9,5.1-4.7,12.8c-2.8,7.7-6.6,17.9-10.3,28.1c-1.9,5.1-3.7,10.2-5.5,15
		c-0.9,2.4-1.8,4.7-2.7,6.8c-0.9,2.2-1.7,4.2-2.5,6.1c-0.8,1.9-1.6,3.6-2.2,5.1c-0.7,1.5-1.2,2.8-1.7,3.9c-1,2.2-1.6,3.4-1.6,3.4
		l-0.2-0.1c0,0,0.4-1.3,1.1-3.6c0.4-1.1,0.8-2.5,1.3-4.1c0.5-1.6,1.1-3.3,1.8-5.3c0.7-1.9,1.4-4,2.2-6.2c0.8-2.2,1.7-4.5,2.6-6.9
		c1.9-4.7,3.9-9.8,6-14.8c4.1-10.1,8.1-20.2,11.2-27.7c3.1-7.6,5.1-12.6,5.1-12.6L487.8,472.5z"/>
</g>
<g>
	<path fill="#FFFFFF" d="M303.9,472.5c0,0,2,5,5.1,12.6c3.1,7.5,7.1,17.6,11.2,27.7c2,5,4.1,10.1,6,14.8c0.9,2.4,1.8,4.7,2.6,6.9
		c0.8,2.2,1.5,4.3,2.2,6.2c0.7,1.9,1.3,3.7,1.8,5.3c0.5,1.6,1,2.9,1.3,4.1c0.7,2.3,1.1,3.6,1.1,3.6l-0.2,0.1c0,0-0.6-1.2-1.6-3.4
		c-0.5-1.1-1.1-2.4-1.7-3.9c-0.7-1.5-1.4-3.2-2.2-5.1c-0.8-1.9-1.6-3.9-2.5-6.1c-0.9-2.2-1.8-4.5-2.7-6.8c-1.8-4.8-3.6-9.9-5.5-15
		c-3.8-10.2-7.6-20.4-10.3-28.1c-2.8-7.7-4.7-12.8-4.7-12.8L303.9,472.5z"/>
</g>
<image overflow="visible" width="418" height="418" xlink:href="../../../../../../../../Desktop/Screen Shot 2014-11-25 at 7.54.47 PM.png"  transform="matrix(0.7104 0 0 0.7104 986.3812 230.631)">
</image>
</svg>
