<?xml version="1.0" encoding="utf-8"?>
<!-- Generator: Adobe Illustrator 17.1.0, SVG Export Plug-In . SVG Version: 6.00 Build 0)  -->
<!DOCTYPE svg PUBLIC "-//W3C//DTD SVG 1.1//EN" "http://www.w3.org/Graphics/SVG/1.1/DTD/svg11.dtd">
<svg version="1.1" id="Layer_1" xmlns="http://www.w3.org/2000/svg" xmlns:xlink="http://www.w3.org/1999/xlink" x="0px" y="0px"
	 viewBox="0 0 576 576" enable-background="new 0 0 576 576" xml:space="preserve">
<circle stroke="#C46F28" stroke-width="20.44" stroke-miterlimit="10" cx="288" cy="288" r="276.2"/>
<g enable-background="new    ">
	<path fill="#FFFFFF" d="M206.7,153.8c-9.3,3.3-18.8,5.1-28.6,5.4c-0.5,0.1-1,0.1-1.5,0.1c-0.6,0-1,0-1.5,0c-1.9,0-3.7-0.1-5.6-0.2
		c-1.9-0.1-3.7-0.3-5.6-0.5c-12.8-1.6-24.6-6.1-35.3-13.7s-16.1-18.7-16.1-33.4c0-4,0.7-7.7,1.9-11.1c1.2-3.5,2.9-6.5,5.1-9.1
		c2.2-2.8,4.8-4.9,7.8-6.4c3-1.5,6-2.2,9.2-2.2c1.2,0,2.4,0.1,3.6,0.4c1.2,0.2,2.3,0.6,3.5,1v-1.4h4.5v11.9h-4.5
		c0-2-0.6-3.6-1.6-5.1c-1-1.5-2.7-2.2-4.8-2.2c-2.6,0-5.2,0.6-7.7,1.8c-2.5,1.1-4.7,2.9-6.6,5.3c-1.8,2.2-3.2,4.8-4.3,7.8
		c-1.1,3.1-1.6,6.2-1.6,9.7c0,5.6,1,10.7,3,15.1c2,4.5,4.6,8.5,8.1,11.9c4.5,4.4,9.7,7.8,15.6,10.3s12.2,4.2,18.5,5
		c2.2,0.4,4.4,0.6,6.5,0.7c2.1,0.2,4.4,0.3,6.5,0.3c0.5,0,1,0,1.5,0c0.6,0,1,0,1.5-0.1c9.2-0.3,18.2-2,26.9-5.1
		c8.7-3.1,16-7.5,21.8-13.3l3.2,3.2C223.7,145.8,215.9,150.5,206.7,153.8z"/>
	<path fill="#FFFFFF" d="M184.3,87.1c-0.9,0-1.8,0.3-2.4,0.9s-1,1.4-1,2.3v37.3c0,3.5-1.2,6.5-3.7,9.1c-2.5,2.5-5.6,3.8-9.1,3.8
		c-3.5,0-6.5-1.3-9.1-3.8c-2.5-2.5-3.8-5.6-3.8-9.1V90.5c0-0.9-0.3-1.8-0.9-2.4c-0.7-0.7-1.4-1-2.3-1h-0.1H150v-4.4h9.7v45
		c0,2.3,0.8,4.3,2.5,5.9c1.7,1.7,3.6,2.5,5.9,2.5c2.2,0,4.2-0.8,5.9-2.5s2.5-3.6,2.5-5.9v-45h9.6v4.5H184.3z"/>
	<path fill="#FFFFFF" d="M210.8,135.3c-3.5,3.5-7.7,5.2-12.6,5.2c-1.6,0-3.2-0.2-4.7-0.7c-1.6-0.5-3.1-1-4.4-1.9v2.5h-4.5v-12.8h4.5
		v1.5v1.8c0,1.3,0.6,2.2,1.7,3s2.3,1.3,3.5,1.6c0.7,0.2,1.5,0.4,2.1,0.5s1.3,0.1,1.8,0.1c3.7,0,6.9-1.3,9.5-4c2.6-2.6,4-5.8,4-9.5
		c0-3.4-1.1-6.3-3.3-8.5c-2.2-2.2-4.6-4.3-7.3-6.1c-0.3-0.2-0.6-0.4-0.8-0.6c-0.3-0.2-0.6-0.4-0.8-0.6c-0.4-0.2-0.7-0.5-1.1-0.7
		c-0.4-0.3-0.7-0.5-1-0.7c-2.5-1.8-4.7-3.6-6.5-5.5c-1.9-1.9-2.7-4.3-2.7-7.2c0-2.9,1-5.3,3.2-7.2c2-2,4.5-2.9,7.1-2.8
		c0.6,0,1.2,0.1,1.9,0.2c0.6,0.1,1.2,0.3,1.8,0.5v-0.8h4.5v9.8h-4.5c0-0.3,0-0.6,0-0.8c0-0.3,0-0.7,0-0.9c0-1.1-0.4-2-1.1-2.5
		c-0.7-0.6-1.7-0.8-2.7-0.8c-0.1,0-0.1,0-0.2,0c-0.1,0-0.1,0-0.2,0c-1.3,0.1-2.5,0.7-3.6,1.7c-1.1,1-1.6,2.3-1.6,3.9
		c0,1.7,0.7,3.3,2,4.6c1.3,1.4,3,2.7,4.8,4c0.5,0.3,0.8,0.6,1.3,0.8c0.4,0.3,0.8,0.6,1.3,0.8c0.3,0.2,0.6,0.4,0.8,0.6
		c0.3,0.2,0.6,0.4,0.8,0.6c3.2,2.1,6.1,4.6,8.7,7.4c2.6,2.8,4,6.5,4,11.1C216.1,127.5,214.3,131.7,210.8,135.3z"/>
	<path fill="#FFFFFF" d="M230,92.2v-1.8c0-0.9-0.4-1.8-1-2.4c-0.7-0.7-1.5-1-2.4-1h-2v45.5c0,0.9,0.4,1.8,1,2.4c0.7,0.7,1.5,1,2.4,1
		h1.9v4.5h-14.9V136h1.8c0.9,0,1.8-0.4,2.4-1c0.7-0.7,1-1.5,1-2.4V87h-1.9c-0.9,0-1.8,0.4-2.4,1c-0.7,0.7-1,1.5-1,2.4v1.8h-4.5v-9.6
		h24.1v9.6H230z"/>
	<path fill="#FFFFFF" d="M280,132c-5.7,5.7-12.4,8.5-20.5,8.5c-8,0-14.8-2.8-20.4-8.5s-8.5-12.4-8.5-20.4s2.8-14.9,8.5-20.4
		c5.7-5.7,12.4-8.5,20.4-8.5s14.9,2.8,20.5,8.5c5.7,5.7,8.5,12.4,8.5,20.4C288.5,119.6,285.7,126.3,280,132z M276.8,94.3
		c-4.7-4.7-10.5-7.2-17.3-7.2c-6.7,0-12.4,2.4-17.3,7.2c-4.8,4.7-7.2,10.5-7.2,17.3c0,6.7,2.4,12.4,7.2,17.3
		c4.8,4.8,10.6,7.2,17.3,7.2c6.8,0,12.5-2.4,17.3-7.2c4.7-4.8,7.2-10.6,7.2-17.3C284,104.8,281.6,99,276.8,94.3z"/>
	<path fill="#FFFFFF" d="M310.9,140.5V136h1.9c0.9,0,1.8-0.4,2.4-1c0.7-0.7,1-1.5,1-2.4V95.1v-6.6c-2.3,2-4.1,4.4-5.5,7.2
		c-1.3,2.8-2,5.8-2,8.8h-0.2h-4.3H304c0-3.2-0.7-6.2-2-9c-1.4-2.8-3.3-5.2-5.7-7.2v6.8v37.4c0,0.9,0.4,1.8,1,2.4
		c0.7,0.7,1.5,1,2.3,1h1.9v4.5h-14.9V136h1.8c0.9,0,1.8-0.4,2.4-1c0.7-0.7,1-1.5,1-2.4V90.4c0-0.9-0.4-1.8-1-2.4
		c-0.7-0.7-1.5-1-2.4-1h-1.8v-4.3h8.4c0.1,0,0.1,0,0.2,0c0.1,0,0.1,0,0.2,0.1c0.2,0,0.3,0,0.5,0c0.1,0,0.3,0.1,0.4,0.2
		c2.2,1.3,4.3,2.9,5.9,4.8c1.8,2,3.2,4.2,4.2,6.6c0.2-0.4,0.4-0.7,0.6-1.1s0.4-0.7,0.7-1.1c0.1-0.2,0.2-0.4,0.4-0.6
		c0.1-0.2,0.2-0.4,0.4-0.7c1-1.8,2.1-3.4,3.4-5c1.3-1.6,3-2.6,4.8-3.1l1.1-0.4h8.2v4.5H324c-0.8,0-1.7,0.4-2.3,1
		c-0.7,0.7-1,1.5-1,2.4v42.2c0,0.9,0.4,1.8,1,2.4c0.7,0.7,1.5,1,2.3,1h1.9v4.5L310.9,140.5L310.9,140.5z"/>
	<path fill="#FFFFFF" d="M328.7,140.5V136h1.9c0.9,0,1.8-0.4,2.4-1c0.7-0.7,1-1.5,1-2.4V90.4c0-0.9-0.4-1.8-1-2.4
		c-0.7-0.7-1.5-1-2.4-1h-1.9v-4.3h14.9v4.5h-1.9c-0.9,0-1.8,0.4-2.4,1c-0.7,0.7-1,1.5-1,2.4v42.2c0,0.9,0.4,1.8,1,2.4
		c0.7,0.7,1.5,1,2.4,1h1.9v4.5h-14.9V140.5z"/>
	<path fill="#FFFFFF" d="M352.6,136h8.2h1.2c0.9,0,1.8-0.4,2.4-1c0.7-0.7,1-1.5,1-2.3v-1.9h4.5v9.7h-23.4l17.5-53.3h-4h-1.2
		c-0.8,0-1.7,0.4-2.3,1c-0.7,0.7-1,1.5-1,2.4v1.8h-4.5v-9.7h19.2L352.6,136z"/>
	<path fill="#FFFFFF" d="M372.4,140.5V136h1.9c0.9,0,1.7-0.4,2.3-1c0.7-0.7,0.9-1.4,1-2.3v-30.1h-5.3v-4.5h5.3v-7.7
		c-0.1-0.9-0.4-1.7-1-2.3c-0.7-0.7-1.4-0.9-2.3-0.9h-1.9v-4.5h28.2v9.6h-4.5v-1.8v-0.1c-0.1-0.9-0.4-1.7-1-2.3
		c-0.7-0.7-1.4-0.9-2.3-0.9H382v11.1h10.4v4.5H382v33.4h10.8c0.8-0.1,1.7-0.4,2.2-1c0.7-0.7,0.9-1.4,1-2.2v-0.1v-1.9h4.5v9.7
		L372.4,140.5L372.4,140.5z"/>
</g>
<g enable-background="new    ">
	<path fill="#FFFFFF" d="M108.9,168.2c-0.8,0-1.7,0.4-2.3,1c-0.7,0.7-1,1.5-1,2.4v17.2c0,4.1-0.9,8-2.9,11.6s-4.6,6.6-8,8.9v4.4
		c0,0.9,0.4,1.8,1,2.4s1.5,1,2.3,1h1.9v4.5H85v-4.5h1.8c0.9,0,1.8-0.4,2.4-1s1-1.5,1-2.4v-4.5c-3.3-2.2-6-5.2-8-8.8
		c-2-3.6-2.9-7.5-2.9-11.6v-17.2c0-0.9-0.4-1.8-1-2.4s-1.5-1-2.4-1H74v-4.5h9.7v25.1c0,3.3,0.7,6.4,2.3,9.4c1.6,3,3.6,5.4,6.3,7.3
		c2.8-2,4.9-4.4,6.4-7.2c1.6-3,2.3-6,2.3-9.5v-25.1h9.7v4.5L108.9,168.2L108.9,168.2z"/>
	<path fill="#FFFFFF" d="M158.2,213.1c-5.7,5.7-12.4,8.5-20.5,8.5c-8,0-14.8-2.8-20.4-8.5c-5.7-5.7-8.5-12.4-8.5-20.4
		s2.8-14.9,8.5-20.4c5.7-5.7,12.4-8.5,20.4-8.5s14.9,2.8,20.5,8.5c5.7,5.7,8.5,12.4,8.5,20.4C166.7,200.7,163.9,207.4,158.2,213.1z
		 M155,175.4c-4.7-4.7-10.5-7.2-17.3-7.2c-6.7,0-12.4,2.4-17.3,7.2c-4.8,4.7-7.2,10.5-7.2,17.3c0,6.7,2.4,12.4,7.2,17.3
		c4.8,4.8,10.6,7.2,17.3,7.2c6.8,0,12.5-2.4,17.3-7.2c4.7-4.8,7.2-10.6,7.2-17.3C162.2,185.9,159.8,180.1,155,175.4z"/>
	<path fill="#FFFFFF" d="M199.1,168.2c-0.9,0-1.8,0.3-2.4,0.9c-0.7,0.7-1,1.4-1,2.3v37.3c0,3.5-1.2,6.5-3.7,9.1
		c-2.5,2.5-5.6,3.8-9.1,3.8c-3.5,0-6.5-1.3-9.1-3.8c-2.5-2.5-3.8-5.6-3.8-9.1v-37.2c0-0.9-0.3-1.8-0.9-2.4c-0.7-0.7-1.4-1-2.3-1
		h-0.1h-1.8v-4.5h9.7v45c0,2.3,0.8,4.3,2.5,5.9s3.6,2.5,5.9,2.5c2.2,0,4.2-0.8,5.9-2.5c1.7-1.7,2.5-3.6,2.5-5.9v-45h9.6v4.5
		L199.1,168.2L199.1,168.2z"/>
	<path fill="#FFFFFF" d="M218.9,221.6v-4.5c0.9-0.1,1.6-0.4,2-0.7c0.4-0.4,0.6-0.9,0.6-1.5c0-0.2,0-0.5-0.1-0.7
		c-0.1-0.3-0.1-0.5-0.3-0.7c-0.1-0.3-0.3-0.6-0.4-0.7c-0.1-0.3-0.3-0.5-0.5-0.7c-0.8-1.2-1.7-2.4-2.5-3.6c-0.8-1.2-1.6-2.4-2.3-3.6
		c-0.5,0.2-1,0.3-1.5,0.4c-0.6,0.1-1.1,0.2-1.7,0.3v1.7v6.8c0,0.9,0.4,1.8,1,2.4c0.7,0.7,1.5,1,2.3,1h1.9v4.5h-14.9v-4.5h1.8
		c0.9,0,1.8-0.4,2.4-1c0.7-0.7,1-1.5,1-2.4v-42.2c0-0.9-0.4-1.8-1-2.4c-0.7-0.7-1.5-1-2.4-1h-1.8v-4.5h8c5.6,0,10.4,2,14.3,6.1
		c3.9,4.1,5.9,9,5.9,14.7c0,4-1,7.6-3.1,10.9s-4.7,5.8-8.1,7.5c0.5,0.7,0.9,1.6,1.5,2.5c0.6,0.8,1.2,1.8,1.9,2.6
		c0.7,1.1,1.6,2.1,2.5,3.3c0.8,1.1,1.8,2,2.6,2.9c0.9,0.8,1.9,1.6,2.7,2.1c0.8,0.6,1.8,0.7,2.5,0.7h1.4h0.4v4.5L218.9,221.6
		L218.9,221.6z M222.3,173.8c-2.7-3.1-6-4.9-10.1-5.5v32.4c4-0.6,7.3-2.3,10.1-5.5c2.7-3.1,4.1-6.7,4.1-10.8
		C226.4,180.4,225.1,176.9,222.3,173.8z"/>
</g>
<g enable-background="new    ">
	<path fill="#FFFFFF" d="M291.7,198.5c-3.5,4-8,6.2-13.2,6.9v1.7v6.8c0,0.9,0.4,1.8,1,2.4s1.5,1,2.4,1h1.9v4.5H269v-4.5h1.9
		c0.9,0,1.8-0.4,2.4-1c0.7-0.7,1-1.5,1-2.4v-42.2c0-0.9-0.4-1.8-1-2.4c-0.7-0.7-1.5-1-2.4-1H269v-4.5h8.1c5.6,0,10.3,2,14.2,6.1
		s5.9,9,5.9,14.7C297,190,295.2,194.5,291.7,198.5z M288.6,173.8c-2.7-3.1-6-4.9-10-5.5v32.4c4-0.6,7.2-2.3,10-5.5
		c2.7-3.1,4.1-6.7,4.1-10.8C292.6,180.4,291.3,176.9,288.6,173.8z"/>
	<path fill="#FFFFFF" d="M312.2,221.6v-4.5c0.9-0.1,1.6-0.4,2-0.7c0.4-0.4,0.6-0.9,0.6-1.5c0-0.2,0-0.5-0.1-0.7s-0.1-0.5-0.3-0.7
		c-0.1-0.3-0.3-0.6-0.4-0.7c-0.1-0.3-0.3-0.5-0.5-0.7c-0.8-1.2-1.7-2.4-2.5-3.6c-0.8-1.2-1.6-2.4-2.3-3.6c-0.5,0.2-1,0.3-1.5,0.4
		c-0.6,0.1-1.1,0.2-1.7,0.3v1.7v6.8c0,0.9,0.4,1.8,1,2.4c0.7,0.7,1.5,1,2.3,1h1.9v4.5h-14.9v-4.5h1.8c0.9,0,1.8-0.4,2.4-1
		c0.7-0.7,1-1.5,1-2.4v-42.2c0-0.9-0.4-1.8-1-2.4c-0.7-0.7-1.5-1-2.4-1h-1.8v-4.5h8c5.6,0,10.4,2,14.3,6.1c3.9,4.1,5.9,9,5.9,14.7
		c0,4-1,7.6-3.1,10.9c-2,3.3-4.7,5.8-8.1,7.5c0.5,0.7,0.9,1.6,1.5,2.5c0.6,0.8,1.2,1.8,1.9,2.6c0.7,1.1,1.6,2.1,2.5,3.3
		c0.8,1.1,1.8,2,2.6,2.9c0.9,0.8,1.9,1.6,2.7,2.1c0.8,0.6,1.8,0.7,2.5,0.7h1.4h0.4v4.5L312.2,221.6L312.2,221.6z M315.5,173.8
		c-2.7-3.1-6-4.9-10.1-5.5v32.4c4-0.6,7.3-2.3,10.1-5.5c2.7-3.1,4.1-6.7,4.1-10.8C319.6,180.4,318.3,176.9,315.5,173.8z"/>
	<path fill="#FFFFFF" d="M375.9,213.1c-5.7,5.7-12.4,8.5-20.5,8.5c-8,0-14.8-2.8-20.4-8.5s-8.5-12.4-8.5-20.4s2.8-14.9,8.5-20.4
		c5.7-5.7,12.4-8.5,20.4-8.5s14.9,2.8,20.5,8.5s8.5,12.4,8.5,20.4S381.6,207.4,375.9,213.1z M372.6,175.4
		c-4.7-4.7-10.5-7.2-17.3-7.2c-6.7,0-12.4,2.4-17.3,7.2c-4.8,4.7-7.2,10.5-7.2,17.3c0,6.7,2.4,12.4,7.2,17.3
		c4.8,4.8,10.6,7.2,17.3,7.2c6.8,0,12.5-2.4,17.3-7.2c4.7-4.8,7.2-10.6,7.2-17.3C379.8,185.9,377.5,180.1,372.6,175.4z"/>
	<path fill="#FFFFFF" d="M409.4,171.6v-3.3h-14.1v11.1h10.4v4.5h-10.4v30.1c0,0.8,0.4,1.7,1,2.3c0.7,0.7,1.5,1,2.3,1h0.6h1.3v4.5
		h-14.9v-4.5h1.8h0.1c0.8,0,1.6-0.3,2.1-0.8c0.7-0.6,1-1.3,1.1-2.1v-30.5h-5.2v-4.5h5.3v-7.6c0-0.9-0.4-1.8-1-2.4
		c-0.7-0.7-1.5-1-2.4-1h-1.9v-4.5h28.2v7.8L409.4,171.6L409.4,171.6z"/>
	<path fill="#FFFFFF" d="M415.7,221.6v-4.5h1.9c0.9,0,1.8-0.4,2.4-1c0.7-0.7,1-1.5,1-2.4v-42.2c0-0.9-0.4-1.8-1-2.4
		c-0.7-0.7-1.5-1-2.4-1h-1.9v-4.5h14.9v4.5h-1.9c-0.9,0-1.8,0.4-2.4,1c-0.7,0.7-1,1.5-1,2.4v42.2c0,0.9,0.4,1.8,1,2.4
		c0.7,0.7,1.5,1,2.4,1h1.9v4.5H415.7z"/>
	<path fill="#FFFFFF" d="M433.5,221.6v-4.5h1.9c0.9,0,1.7-0.4,2.3-1c0.7-0.7,0.9-1.4,1-2.3v-42.3c0-0.9-0.4-1.8-1-2.4
		c-0.7-0.7-1.5-1-2.4-1h-1.9v-4.5h14.9v4.5h-1.9c-0.9,0-1.8,0.4-2.4,1c-0.7,0.7-1,1.5-1,2.4V217h10.7c0.9-0.1,1.7-0.4,2.3-1
		c0.7-0.7,0.9-1.4,0.9-2.2v-0.1v-1.9h4.5v9.7L433.5,221.6L433.5,221.6z"/>
	<path fill="#FFFFFF" d="M464.6,221.6v-4.5h1.9c0.9,0,1.7-0.4,2.3-1s0.9-1.4,1-2.3v-30.1h-5.3v-4.4h5.3v-7.7c-0.1-0.9-0.4-1.7-1-2.3
		s-1.4-0.9-2.3-0.9h-1.9v-4.5h28.2v9.6h-4.5v-1.8v-0.1c-0.1-0.9-0.4-1.7-1-2.3c-0.7-0.7-1.4-0.9-2.3-0.9h-10.7v11h10.4v4.5h-10.4
		v33.4h10.8c0.8-0.1,1.7-0.4,2.2-1c0.7-0.7,0.9-1.4,1-2.2v-0.1V212h4.5v9.7L464.6,221.6L464.6,221.6z"/>
</g>
<rect x="139.2" y="266.4" fill="#C46F28" stroke="#FFFFFF" stroke-width="11.4975" stroke-miterlimit="10" width="136.9" height="98.6"/>
<rect x="299.9" y="266.4" fill="#BDCBD1" stroke="#FFFFFF" stroke-width="11.4975" stroke-miterlimit="10" width="136.9" height="98.6"/>
<rect x="139.2" y="382.9" fill="#42627F" stroke="#FFFFFF" stroke-width="11.4975" stroke-miterlimit="10" width="136.9" height="98.6"/>
<rect x="299.9" y="382.9" fill="#415B37" stroke="#FFFFFF" stroke-width="11.4975" stroke-miterlimit="10" width="136.9" height="98.6"/>
</svg>
