<?xml version="1.0" encoding="utf-8"?>
<!-- Generator: Adobe Illustrator 17.1.0, SVG Export Plug-In . SVG Version: 6.00 Build 0)  -->
<!DOCTYPE svg PUBLIC "-//W3C//DTD SVG 1.1//EN" "http://www.w3.org/Graphics/SVG/1.1/DTD/svg11.dtd">
<svg version="1.1" id="Layer_1" xmlns="http://www.w3.org/2000/svg" xmlns:xlink="http://www.w3.org/1999/xlink" x="0px" y="0px"
	 viewBox="0 0 612 792" enable-background="new 0 0 612 792" xml:space="preserve">
<circle stroke="#3D4F29" stroke-width="16" stroke-miterlimit="10" cx="306" cy="396" r="297.3"/>
<g enable-background="new    ">
	<path fill="#FFFFFF" d="M201,260.9c-9.5,3.8-19.3,5.8-29.2,5.9c-0.2,0-0.4,0-0.5,0s-0.4,0-0.5,0c-10.3,0-20.5-2-30.4-6
		c-9.9-4-18.7-10-26.5-17.8c-0.1-0.2-0.3-0.3-0.4-0.5c-0.2-0.1-0.3-0.3-0.4-0.5c-0.2-0.1-0.3-0.3-0.5-0.4c-0.1-0.2-0.3-0.3-0.4-0.4
		c-0.6-0.6-1.2-1.2-1.7-1.9c-0.6-0.6-1.1-1.4-1.6-2.1l4.2-2.5c1.4,2.2,3.2,4,5.4,5.2c2.2,1.2,4.6,1.9,7,1.9c0.3,0,0.6,0,0.8,0
		s0.5,0,0.8-0.1c1.1-0.1,2.1-0.4,3.2-0.7c1.1-0.4,2.1-0.9,3-1.5c2.1-1.4,3.7-3.1,4.9-5.3c1.2-2.2,1.7-4.5,1.7-6.8
		c0-0.8,0-1.5-0.1-2.3c-0.1-0.7-0.3-1.5-0.6-2.2c-0.7-2.1-1.8-4-3.4-5.9c-1.5-1.8-3.2-3.6-4.9-5.3c-0.1-0.1-0.3-0.3-0.4-0.4
		c-0.1-0.1-0.3-0.3-0.4-0.4c-0.5-0.5-0.9-0.9-1.4-1.4c-0.5-0.5-0.9-0.9-1.3-1.4c-1.8-1.9-3.3-3.8-4.5-5.8c-1.2-2-1.8-4-1.8-6.3
		c0-0.4,0-0.7,0.1-1.1c0.1-0.4,0.1-0.8,0.2-1.2c0.5-2.6,1.8-4.7,3.9-6.3c2-1.6,4.3-2.4,6.8-2.4c0.4,0,0.8,0,1.2,0
		c0.4,0,0.7,0.1,1.1,0.2c0.5,0.1,0.9,0.2,1.3,0.4c0.4,0.2,0.8,0.4,1.2,0.5V185h4.9v10.5h-4.9v-3.4c-0.6-0.8-1.3-1.4-2.1-1.8
		c-0.8-0.4-1.7-0.5-2.6-0.5c-1.3,0-2.5,0.4-3.7,1.2c-1.2,0.8-1.9,2-2.2,3.5c0,0.1,0,0.2,0,0.3c0,0.1,0,0.2,0,0.3c0,0.1,0,0.2,0,0.3
		c0,0.1,0,0.2,0,0.3c0,1.9,0.8,3.8,2.3,5.7c1.5,1.9,3.3,3.9,5.3,5.9c0.2,0.1,0.3,0.3,0.5,0.4c0.1,0.2,0.3,0.3,0.4,0.4
		c1.8,1.9,3.6,3.9,5.3,6c1.7,2.1,3,4.4,3.9,7c0.2,0.5,0.3,1,0.4,1.5c0.1,0.5,0.2,1,0.4,1.5c0.1,0.5,0.1,1,0.1,1.6c0,0.5,0,1,0,1.5
		c0,3.1-0.8,6.2-2.3,9.1c-1.5,2.9-3.6,5.3-6.4,7c-1.3,0.8-2.7,1.5-4.1,2c-1.4,0.5-2.8,0.8-4.3,1c-0.4,0-0.7,0-1.1,0
		c-0.4,0-0.7,0-1.1,0c-0.1,0-0.1,0-0.2,0c-0.1,0-0.1,0-0.1,0c0,0-0.1,0-0.1,0c6.5,5,13.6,8.8,21.2,11.4c7.7,2.6,15.4,4,23.3,4.2
		c0.2,0,0.5,0,0.7,0c0.2,0,0.5,0,0.7,0c9.5,0,18.8-1.8,27.9-5.5c9.1-3.6,17.3-9,24.5-16.2l3.4,3.5
		C219.1,251.4,210.5,257.1,201,260.9z"/>
	<path fill="#FFFFFF" d="M164.9,247.3v-4.8h2c1,0,1.9-0.4,2.6-1.1c0.7-0.7,1.1-1.6,1.1-2.6v-32.4H155v32.4c0,1,0.4,1.9,1.1,2.6
		c0.7,0.7,1.6,1.1,2.6,1.1h2v4.8h-16v-4.8h2c1,0,1.9-0.4,2.6-1.1c0.7-0.7,1.1-1.6,1.1-2.6v-45.4c0-1-0.4-1.9-1.1-2.6
		c-0.7-0.7-1.6-1.1-2.6-1.1h-2V185h16v4.8h-2c-1,0-1.9,0.4-2.6,1.1c-0.7,0.7-1.1,1.6-1.1,2.6v8.2h15.4v-8.2c0-1-0.4-1.9-1.1-2.6
		c-0.7-0.7-1.6-1.1-2.6-1.1h-2V185h16v4.8h-2c-1,0-1.9,0.4-2.6,1.1c-0.7,0.7-1.1,1.6-1.1,2.6v45.4c0,1,0.4,1.9,1.1,2.6
		c0.7,0.7,1.6,1.1,2.6,1.1h2v4.8H164.9z"/>
	<path fill="#FFFFFF" d="M206.6,247.3v-4.8h1.9c1,0,1.9-0.4,2.6-1.1c0.7-0.7,1.1-1.6,1.1-2.6v-6.6h-18.7v6.6c0,1,0.4,1.9,1.1,2.6
		c0.7,0.7,1.6,1.1,2.6,1.1h2v4.8h-16v-4.8h2c1,0,1.8-0.4,2.5-1.1c0.7-0.7,1-1.5,1.1-2.5v-6.7h-3.9v-4.8h3.9v-19.1
		c0-5.2,1.3-9.8,3.8-13.8c2.5-4,6-7.3,10.3-9.9c4.4,2.6,7.8,5.9,10.4,9.8c2.5,4,3.8,8.6,3.8,13.8v30.7c0.1,0.9,0.4,1.8,1.2,2.5
		c0.7,0.7,1.5,1.1,2.5,1.1h2v4.8H206.6z M212.1,208.2c0-3.6-0.8-7-2.5-10.2c-1.7-3.2-4-5.8-6.9-7.8c-2.9,2-5.2,4.6-6.8,7.8
		c-1.7,3.2-2.5,6.6-2.5,10.2v19.1h18.7V208.2z"/>
	<path fill="#FFFFFF" d="M241.9,247.3v-4.8c1-0.1,1.7-0.4,2.1-0.8c0.4-0.4,0.6-1,0.6-1.6c0-0.2,0-0.5-0.1-0.8
		c-0.1-0.3-0.1-0.5-0.3-0.8c-0.1-0.3-0.3-0.6-0.4-0.8c-0.1-0.3-0.3-0.5-0.5-0.8c-0.9-1.3-1.8-2.6-2.7-3.9c-0.9-1.3-1.7-2.6-2.5-3.9
		c-0.5,0.2-1.1,0.3-1.6,0.4c-0.6,0.1-1.2,0.2-1.8,0.3v1.8v7.3c0,1,0.4,1.9,1.1,2.6c0.7,0.7,1.6,1.1,2.5,1.1h2v4.8h-16v-4.8h1.9
		c1,0,1.9-0.4,2.6-1.1c0.7-0.7,1.1-1.6,1.1-2.6v-45.4c0-1-0.4-1.9-1.1-2.6c-0.7-0.7-1.6-1.1-2.6-1.1h-1.9V185h8.6
		c6,0,11.2,2.2,15.4,6.6c4.2,4.4,6.3,9.7,6.3,15.8c0,4.3-1.1,8.2-3.3,11.7c-2.2,3.5-5.1,6.2-8.7,8.1c0.5,0.8,1,1.7,1.6,2.7
		c0.6,0.9,1.3,1.9,2,2.8c0.8,1.2,1.7,2.3,2.7,3.5c0.9,1.2,1.9,2.2,2.8,3.1c1,0.9,2,1.7,2.9,2.3c0.9,0.6,1.9,0.8,2.7,0.8h1.5h0.4v4.8
		H241.9z M245.6,195.8c-2.9-3.3-6.5-5.3-10.9-5.9v34.9c4.3-0.6,7.9-2.5,10.9-5.9c2.9-3.3,4.4-7.2,4.4-11.6S248.5,199.1,245.6,195.8z
		"/>
	<path fill="#FFFFFF" d="M261.8,247.3v-4.8h2c1,0,1.8-0.4,2.5-1.1c0.7-0.7,1-1.5,1.1-2.5v-32.4h-5.7v-4.8h5.7v-8.3
		c-0.1-1-0.4-1.8-1.1-2.5c-0.7-0.7-1.5-1-2.5-1h-2V185h30.3v10.3h-4.8v-1.9v-0.1c-0.1-1-0.4-1.8-1.1-2.5c-0.7-0.7-1.5-1-2.5-1h-11.5
		v11.9h11.2v4.8h-11.2v36h11.6c0.9-0.1,1.8-0.4,2.4-1.1c0.7-0.7,1-1.5,1.1-2.4v-0.1v-2h4.8v10.4H261.8z"/>
</g>
<g enable-background="new    ">
	<path fill="#FFFFFF" d="M357.9,189.8c-0.9,0-1.8,0.4-2.5,1.1c-0.7,0.7-1.1,1.6-1.1,2.6V212c0,4.4-1,8.6-3.1,12.5
		c-2.1,3.9-5,7.1-8.6,9.6v4.7c0,1,0.4,1.9,1.1,2.6c0.7,0.7,1.6,1.1,2.5,1.1h2v4.8h-15.9v-4.8h1.9c1,0,1.9-0.4,2.6-1.1
		c0.7-0.7,1.1-1.6,1.1-2.6V234c-3.6-2.4-6.5-5.6-8.6-9.5c-2.1-3.9-3.1-8.1-3.1-12.5v-18.5c0-1-0.4-1.9-1.1-2.6
		c-0.7-0.7-1.6-1.1-2.6-1.1h-2V185h10.4v27c0,3.5,0.8,6.9,2.5,10.1c1.7,3.2,3.9,5.8,6.8,7.9c3-2.1,5.3-4.7,6.9-7.8
		c1.7-3.2,2.5-6.5,2.5-10.2v-27h10.4v4.8H357.9z"/>
	<path fill="#FFFFFF" d="M411,238.1c-6.1,6.1-13.4,9.1-22.1,9.1c-8.6,0-15.9-3-22-9.1c-6.1-6.1-9.1-13.4-9.1-22c0-8.6,3-16,9.1-22
		c6.1-6.1,13.4-9.1,22-9.1c8.6,0,16,3,22.1,9.1c6.1,6.1,9.1,13.4,9.1,22C420.1,224.7,417.1,232,411,238.1z M407.5,197.5
		c-5.1-5.1-11.3-7.7-18.6-7.7c-7.2,0-13.4,2.6-18.6,7.7c-5.2,5.1-7.8,11.3-7.8,18.6c0,7.2,2.6,13.4,7.8,18.6
		c5.2,5.2,11.4,7.8,18.6,7.8c7.3,0,13.5-2.6,18.6-7.8c5.1-5.2,7.7-11.4,7.7-18.6C415.2,208.9,412.7,202.7,407.5,197.5z"/>
	<path fill="#FFFFFF" d="M454.9,189.8c-1,0-1.9,0.3-2.6,1c-0.7,0.7-1.1,1.5-1.1,2.5v40.1c0,3.8-1.3,7-4,9.8c-2.7,2.7-6,4.1-9.8,4.1
		c-3.8,0-7-1.4-9.8-4.1c-2.7-2.7-4.1-6-4.1-9.8v-40c0-1-0.3-1.9-1-2.6c-0.7-0.7-1.5-1.1-2.5-1.1h-0.1h-1.9V185h10.4v48.4
		c0,2.5,0.9,4.6,2.7,6.4c1.8,1.8,3.9,2.7,6.4,2.7c2.4,0,4.5-0.9,6.3-2.7c1.8-1.8,2.7-3.9,2.7-6.4V185h10.3v4.8H454.9z"/>
	<path fill="#FFFFFF" d="M476.3,247.3v-4.8c1-0.1,1.7-0.4,2.1-0.8c0.4-0.4,0.6-1,0.6-1.6c0-0.2,0-0.5-0.1-0.8
		c-0.1-0.3-0.1-0.5-0.3-0.8c-0.1-0.3-0.3-0.6-0.4-0.8c-0.1-0.3-0.3-0.5-0.5-0.8c-0.9-1.3-1.8-2.6-2.7-3.9c-0.9-1.3-1.7-2.6-2.5-3.9
		c-0.5,0.2-1.1,0.3-1.6,0.4c-0.6,0.1-1.2,0.2-1.8,0.3v1.8v7.3c0,1,0.4,1.9,1.1,2.6c0.7,0.7,1.6,1.1,2.5,1.1h2v4.8h-16v-4.8h1.9
		c1,0,1.9-0.4,2.6-1.1c0.7-0.7,1.1-1.6,1.1-2.6v-45.4c0-1-0.4-1.9-1.1-2.6c-0.7-0.7-1.6-1.1-2.6-1.1h-1.9V185h8.6
		c6,0,11.2,2.2,15.4,6.6c4.2,4.4,6.3,9.7,6.3,15.8c0,4.3-1.1,8.2-3.3,11.7c-2.2,3.5-5.1,6.2-8.7,8.1c0.5,0.8,1,1.7,1.6,2.7
		c0.6,0.9,1.3,1.9,2,2.8c0.8,1.2,1.7,2.3,2.7,3.5c0.9,1.2,1.9,2.2,2.8,3.1c1,0.9,2,1.7,2.9,2.3c0.9,0.6,1.9,0.8,2.7,0.8h1.5h0.4v4.8
		H476.3z M480,195.8c-2.9-3.3-6.5-5.3-10.9-5.9v34.9c4.3-0.6,7.9-2.5,10.9-5.9c2.9-3.3,4.4-7.2,4.4-11.6S482.9,199.1,480,195.8z"/>
</g>
<g enable-background="new    ">
	<path fill="#FFFFFF" d="M267.4,344.4c-9.5,3.8-19.1,5.8-28.9,5.9c-0.2,0-0.4,0-0.6,0c-0.2,0-0.4,0-0.6,0c-10.3,0-20.5-2-30.3-5.9
		c-9.9-4-18.7-9.8-26.6-17.6v-51.3c0-1-0.4-1.9-1.1-2.6c-0.7-0.7-1.6-1.1-2.6-1.1h-1.9v-4.8h8.6c6,0,11.2,2.2,15.4,6.6
		c4.2,4.4,6.3,9.7,6.3,15.8c0,5.7-1.9,10.7-5.8,15c-3.9,4.3-8.6,6.7-14.2,7.4v12.9c7.2,7,15.3,12.2,24.3,15.7
		c9,3.5,18.2,5.2,27.6,5.2c9.5,0,18.8-1.8,27.9-5.5c9.1-3.6,17.3-9,24.5-16.2l3.5,3.5C285.4,334.9,276.9,340.6,267.4,344.4z
		 M196.1,277.7c-2.9-3.3-6.5-5.3-10.9-5.9v34.9c4.3-0.6,7.9-2.5,10.9-5.9c2.9-3.3,4.4-7.2,4.4-11.6S199,281.1,196.1,277.7z"/>
	<path fill="#FFFFFF" d="M223.9,329.2v-4.8h2c1,0,1.9-0.4,2.6-1.1c0.7-0.7,1.1-1.6,1.1-2.6v-32.4H214v32.4c0,1,0.4,1.9,1.1,2.6
		c0.7,0.7,1.6,1.1,2.6,1.1h2v4.8h-16v-4.8h2c1,0,1.9-0.4,2.6-1.1c0.7-0.7,1.1-1.6,1.1-2.6v-45.4c0-1-0.4-1.9-1.1-2.6
		c-0.7-0.7-1.6-1.1-2.6-1.1h-2v-4.8h16v4.8h-2c-1,0-1.9,0.4-2.6,1.1c-0.7,0.7-1.1,1.6-1.1,2.6v8.2h15.4v-8.2c0-1-0.4-1.9-1.1-2.6
		c-0.7-0.7-1.6-1.1-2.6-1.1h-2v-4.8h16v4.8h-2c-1,0-1.9,0.4-2.6,1.1c-0.7,0.7-1.1,1.6-1.1,2.6v45.4c0,1,0.4,1.9,1.1,2.6
		c0.7,0.7,1.6,1.1,2.6,1.1h2v4.8H223.9z"/>
	<path fill="#FFFFFF" d="M291.8,320c-6.1,6.1-13.4,9.1-22.1,9.1c-8.6,0-15.9-3-22-9.1c-6.1-6.1-9.1-13.4-9.1-22c0-8.6,3-16,9.1-22
		c6.1-6.1,13.4-9.1,22-9.1c8.6,0,16,3,22.1,9.1c6.1,6.1,9.1,13.4,9.1,22C300.9,306.6,297.9,313.9,291.8,320z M288.3,279.4
		c-5.1-5.1-11.3-7.7-18.6-7.7c-7.2,0-13.4,2.6-18.6,7.7c-5.2,5.1-7.8,11.3-7.8,18.6c0,7.2,2.6,13.4,7.8,18.6
		c5.2,5.2,11.4,7.8,18.6,7.8c7.3,0,13.5-2.6,18.6-7.8c5.1-5.2,7.7-11.4,7.7-18.6C296,290.8,293.5,284.6,288.3,279.4z"/>
	<path fill="#FFFFFF" d="M318.5,277.2v-1.9c0-1-0.4-1.9-1.1-2.6c-0.7-0.7-1.6-1.1-2.6-1.1h-2.1v49c0,1,0.4,1.9,1.1,2.6
		c0.7,0.7,1.6,1.1,2.6,1.1h2v4.8h-16v-4.8h1.9c1,0,1.9-0.4,2.6-1.1c0.7-0.7,1.1-1.6,1.1-2.6v-49h-2c-1,0-1.9,0.4-2.6,1.1
		c-0.7,0.7-1.1,1.6-1.1,2.6v1.9h-4.8v-10.3h25.9v10.3H318.5z"/>
	<path fill="#FFFFFF" d="M372.3,320c-6.1,6.1-13.4,9.1-22.1,9.1c-8.6,0-15.9-3-22-9.1c-6.1-6.1-9.1-13.4-9.1-22c0-8.6,3-16,9.1-22
		c6.1-6.1,13.4-9.1,22-9.1c8.6,0,16,3,22.1,9.1c6.1,6.1,9.1,13.4,9.1,22C381.4,306.6,378.4,313.9,372.3,320z M368.8,279.4
		c-5.1-5.1-11.3-7.7-18.6-7.7c-7.2,0-13.4,2.6-18.6,7.7c-5.2,5.1-7.8,11.3-7.8,18.6c0,7.2,2.6,13.4,7.8,18.6
		c5.2,5.2,11.4,7.8,18.6,7.8c7.3,0,13.5-2.6,18.6-7.8c5.1-5.2,7.7-11.4,7.7-18.6C376.5,290.8,374,284.6,368.8,279.4z"/>
	<path fill="#FFFFFF" d="M409,323.5c-3.8,3.8-8.3,5.6-13.6,5.6c-1.7,0-3.4-0.2-5.1-0.7c-1.7-0.5-3.3-1.1-4.7-2v2.7h-4.8v-13.8h4.8
		v1.6v1.9c0,1.4,0.6,2.4,1.8,3.2c1.2,0.8,2.5,1.4,3.8,1.7c0.8,0.2,1.6,0.4,2.3,0.5c0.7,0.1,1.4,0.1,1.9,0.1c4,0,7.4-1.4,10.2-4.3
		s4.3-6.2,4.3-10.2c0-3.7-1.2-6.8-3.6-9.2c-2.4-2.4-5-4.6-7.9-6.6c-0.3-0.2-0.6-0.4-0.9-0.6c-0.3-0.2-0.6-0.4-0.9-0.6
		c-0.4-0.2-0.8-0.5-1.2-0.8c-0.4-0.3-0.8-0.5-1.1-0.8c-2.7-1.9-5.1-3.9-7-5.9c-2-2-2.9-4.6-2.9-7.7c0-3.1,1.1-5.7,3.4-7.8
		c2.2-2.1,4.8-3.1,7.6-3c0.6,0,1.3,0.1,2,0.2c0.6,0.1,1.3,0.3,1.9,0.5v-0.9h4.8v10.6h-4.8c0-0.3,0-0.6,0-0.9c0-0.3,0-0.7,0-1
		c0-1.2-0.4-2.1-1.2-2.7s-1.8-0.9-2.9-0.9c-0.1,0-0.1,0-0.2,0c-0.1,0-0.1,0-0.2,0c-1.4,0.1-2.7,0.7-3.9,1.8
		c-1.2,1.1-1.7,2.5-1.7,4.2c0,1.8,0.7,3.5,2.2,5c1.4,1.5,3.2,2.9,5.2,4.3c0.5,0.3,0.9,0.6,1.4,0.9c0.4,0.3,0.9,0.6,1.4,0.9
		c0.3,0.2,0.6,0.4,0.9,0.6c0.3,0.2,0.6,0.4,0.9,0.6c3.4,2.3,6.6,5,9.4,8c2.8,3,4.3,7,4.3,11.9C414.7,315.2,412.8,319.8,409,323.5z"
		/>
</g>
<rect x="234.8" y="535.5" fill="#3D4F29" stroke="#FFFFFF" stroke-width="5" stroke-miterlimit="10" width="151.2" height="109.5"/>
<polygon fill="#93A1A1" points="241.9,634.7 281.9,566.8 297.1,594.6 335.2,546.7 380.2,634.7 "/>
<polygon fill="#3D4F29" points="271.5,610.7 280.7,589 291.9,610.7 281.7,599.8 "/>
<polygon fill="#3D4F29" points="317.5,584.2 334.4,559.4 347.4,591.7 334.2,573.8 "/>
<rect x="51.9" y="383.7" fill="#3D4F29" stroke="#FFFFFF" stroke-width="2.9586" stroke-miterlimit="10" width="89.5" height="64.8"/>
<polygon fill="#93A1A1" points="56.1,442.4 79.8,402.3 88.8,418.6 111.3,390.4 138,442.4 "/>
<polygon fill="#3D4F29" points="73.6,428.2 79.1,415.3 85.7,428.2 79.7,421.8 "/>
<polygon fill="#3D4F29" points="100.9,412.6 110.9,397.9 118.5,417 110.7,406.4 "/>
<rect x="191.5" y="382.9" fill="#3D4F29" stroke="#FFFFFF" stroke-width="2.9586" stroke-miterlimit="10" width="89.5" height="64.8"/>
<polygon fill="#93A1A1" points="195.7,441.7 219.3,401.5 228.3,417.9 250.9,389.6 277.5,441.7 "/>
<polygon fill="#3D4F29" points="213.2,427.5 218.6,414.5 225.2,427.5 219.2,421 "/>
<polygon fill="#3D4F29" points="240.4,411.8 250.4,397 258.1,416.2 250.3,405.7 "/>
<rect x="331" y="383.2" fill="#3D4F29" stroke="#FFFFFF" stroke-width="2.9586" stroke-miterlimit="10" width="89.5" height="64.8"/>
<polygon fill="#93A1A1" points="335.1,441.9 358.9,401.7 367.9,418.2 390.5,389.8 417,441.9 "/>
<polygon fill="#3D4F29" points="352.8,427.7 358.2,414.8 364.7,427.7 358.8,421.3 "/>
<polygon fill="#3D4F29" points="380,412.1 389.9,397.3 397.6,416.5 389.8,405.9 "/>
<rect x="470.6" y="383.2" fill="#3D4F29" stroke="#FFFFFF" stroke-width="2.9586" stroke-miterlimit="10" width="89.5" height="64.8"/>
<polygon fill="#93A1A1" points="474.7,441.9 498.4,401.7 507.4,418.2 529.9,389.8 556.6,441.9 "/>
<polygon fill="#3D4F29" points="492.2,427.7 497.7,414.8 504.3,427.7 498.3,421.3 "/>
<polygon fill="#3D4F29" points="519.5,412.1 529.5,397.3 537.2,416.5 529.3,405.9 "/>
<g>
	<path fill="#FFFFFF" d="M100.9,459.1c0,0,7,5.3,17.7,13.3c10.6,8,24.7,18.6,38.8,29.2c7,5.3,14.1,10.7,20.7,15.6
		c3.2,2.5,6.5,4.9,9.4,7.3c3,2.3,5.8,4.6,8.4,6.6s4.9,3.9,7.1,5.6c2.1,1.7,3.9,3.2,5.4,4.4c3,2.5,4.7,3.9,4.7,3.9l-0.1,0.2
		c0,0-1.8-1.3-4.9-3.6c-1.5-1.2-3.5-2.5-5.6-4.1c-2.2-1.6-4.6-3.4-7.3-5.3c-2.6-2-5.6-4.1-8.6-6.4c-3-2.2-6.2-4.7-9.5-7.2
		c-6.6-5.1-13.5-10.5-20.5-15.9c-14-10.8-27.9-21.6-38.4-29.8c-10.4-8.1-17.5-13.6-17.5-13.6L100.9,459.1z"/>
</g>
<g>
	<path fill="#FFFFFF" d="M519.5,463.4c0,0-7,5.4-17.5,13.6c-10.5,8.1-24.4,18.9-38.4,29.8c-7,5.4-14,10.8-20.5,15.9
		c-3.3,2.5-6.5,4.9-9.5,7.2c-3,2.2-6,4.4-8.6,6.4c-2.6,2-5.1,3.8-7.3,5.3c-2.2,1.6-4.1,2.9-5.6,4.1c-3.2,2.2-4.9,3.6-4.9,3.6
		l-0.1-0.2c0,0,1.7-1.4,4.7-3.9c1.5-1.2,3.3-2.7,5.4-4.4c2.1-1.7,4.5-3.6,7.1-5.6c2.6-2,5.4-4.2,8.4-6.6c3-2.3,6.2-4.8,9.4-7.3
		c6.6-4.9,13.7-10.3,20.7-15.6c14.1-10.7,28.2-21.2,38.8-29.2c10.6-8,17.7-13.3,17.7-13.3L519.5,463.4z"/>
</g>
<g>
	<path fill="#FFFFFF" d="M376.9,455.1c0,0-1.5,3.9-3.6,9.9c-2.2,6-5.1,13.8-8,21.7c-1.5,3.9-2.9,7.9-4.2,11.6
		c-0.7,1.9-1.4,3.6-2.1,5.3c-0.7,1.7-1.3,3.2-1.9,4.7c-0.6,1.5-1.2,2.8-1.7,3.9c-0.5,1.2-0.9,2.2-1.3,3c-0.8,1.7-1.2,2.6-1.2,2.6
		l-0.2-0.1c0,0,0.3-1,0.9-2.8c0.3-0.8,0.6-1.9,1-3.2c0.4-1.2,0.9-2.5,1.4-4.1c0.5-1.5,1.1-3.1,1.7-4.8s1.3-3.5,2-5.3
		c1.5-3.6,3-7.6,4.6-11.4c3.2-7.8,6.3-15.6,8.7-21.4C375.3,458.9,376.9,455,376.9,455.1L376.9,455.1z"/>
</g>
<g>
	<path fill="#FFFFFF" d="M234.8,455.1c0,0,1.5,3.9,3.9,9.7c2.4,5.8,5.5,13.6,8.7,21.4c1.5,3.9,3.2,7.8,4.6,11.4
		c0.7,1.9,1.4,3.6,2,5.3c0.6,1.7,1.2,3.3,1.7,4.8c0.5,1.5,1,2.9,1.4,4.1c0.4,1.2,0.8,2.2,1,3.2c0.5,1.8,0.9,2.8,0.9,2.8l-0.2,0.1
		c0,0-0.5-0.9-1.2-2.6c-0.4-0.8-0.9-1.9-1.3-3c-0.5-1.2-1.1-2.5-1.7-3.9c-0.6-1.5-1.2-3-1.9-4.7c-0.7-1.7-1.4-3.5-2.1-5.3
		c-1.4-3.7-2.8-7.6-4.2-11.6c-2.9-7.9-5.9-15.8-8-21.7C236.2,459.1,234.8,455.2,234.8,455.1L234.8,455.1z"/>
</g>
</svg>
