<?xml version="1.0" encoding="utf-8"?>
<!-- Generator: Adobe Illustrator 17.1.0, SVG Export Plug-In . SVG Version: 6.00 Build 0)  -->
<!DOCTYPE svg PUBLIC "-//W3C//DTD SVG 1.1//EN" "http://www.w3.org/Graphics/SVG/1.1/DTD/svg11.dtd">
<svg version="1.1" id="Layer_1" xmlns="http://www.w3.org/2000/svg" xmlns:xlink="http://www.w3.org/1999/xlink" x="0px" y="0px"
	 viewBox="0 0 612 792" enable-background="new 0 0 612 792" xml:space="preserve">
<circle stroke="#3D4F29" stroke-width="16" stroke-miterlimit="10" cx="306" cy="396" r="297.3"/>
<path fill="#4B6470" d="M55.9,436.2c18.5,6.6,38.9-3.1,45.5-21.6c6.6-18.5-3.1-38.9-21.6-45.5c-0.8-0.3-1.5-0.5-2.4-0.8
	c8.7-2.2,18.2-2,27.4,1.2c24.4,8.7,37.2,35.5,28.4,59.9c-8.7,24.4-35.5,37.2-59.9,28.4c-13.6-4.9-23.6-15.4-28.3-28
	C48.2,432.6,51.8,434.7,55.9,436.2z"/>
<g>
	<g>
		<path fill="#93A1A1" d="M536.7,417.4c2-17.2-10.4-32.7-27.7-34.7c-17.3-2-32.9,10.3-34.9,27.4c-2,17.2,10.4,32.7,27.7,34.7
			C519,446.8,534.7,434.6,536.7,417.4z"/>
	</g>
	<g>
		<g>
			<polygon fill="#93A1A1" points="513.3,414.7 498.4,473.8 497.3,412.8 			"/>
		</g>
		<g>
			<polygon fill="#93A1A1" points="513.1,411.5 522.1,472 497.6,416 			"/>
		</g>
		<g>
			<polygon fill="#93A1A1" points="511.6,408.8 543.2,461.2 499,418.8 			"/>
		</g>
		<g>
			<polygon fill="#93A1A1" points="509.2,406.7 558.6,443.2 501.4,420.8 			"/>
		</g>
		<g>
			<polygon fill="#93A1A1" points="506.3,405.8 565.9,420.8 504.4,421.7 			"/>
		</g>
		<g>
			<polygon fill="#93A1A1" points="503.1,406 563.9,397.2 507.5,421.5 			"/>
		</g>
		<g>
			<polygon fill="#93A1A1" points="500.3,407.4 553,376.3 510.3,420.1 			"/>
		</g>
		<g>
			<polygon fill="#93A1A1" points="498.3,409.8 534.9,361 512.3,417.7 			"/>
		</g>
		<g>
			<polygon fill="#93A1A1" points="497.3,412.8 512.3,353.7 513.3,414.7 			"/>
		</g>
		<g>
			<polygon fill="#93A1A1" points="497.6,416 488.6,355.6 513.1,411.5 			"/>
		</g>
		<g>
			<polygon fill="#93A1A1" points="499,418.8 467.4,366.3 511.6,408.8 			"/>
		</g>
		<g>
			<polygon fill="#93A1A1" points="501.4,420.8 452,384.3 509.2,406.7 			"/>
		</g>
		<g>
			<polygon fill="#93A1A1" points="504.4,421.7 444.8,406.7 506.3,405.8 			"/>
		</g>
		<g>
			<polygon fill="#93A1A1" points="507.5,421.5 446.7,430.3 503.1,406 			"/>
		</g>
		<g>
			<polygon fill="#93A1A1" points="510.3,420.1 457.6,451.2 500.3,407.4 			"/>
		</g>
		<g>
			<polygon fill="#93A1A1" points="512.3,417.7 475.8,466.5 498.3,409.8 			"/>
		</g>
	</g>
</g>
<g>
	<rect x="149.9" y="415.2" fill="#4B6470" width="292.4" height="1.2"/>
	<rect x="156" y="411.1" fill="#4B6470" width="0.9" height="10"/>
	<rect x="164.2" y="411.1" fill="#4B6470" width="0.9" height="10"/>
	<rect x="172.4" y="411.1" fill="#4B6470" width="0.9" height="10"/>
	<rect x="180.5" y="411.1" fill="#4B6470" width="0.9" height="10"/>
	<rect x="188.7" y="411.1" fill="#4B6470" width="0.9" height="10"/>
	<rect x="196.9" y="411.1" fill="#4B6470" width="0.9" height="10"/>
	<rect x="205.1" y="411.1" fill="#4B6470" width="0.9" height="10"/>
	<rect x="213.3" y="411.1" fill="#4B6470" width="0.9" height="10"/>
	<rect x="221.5" y="411.1" fill="#4B6470" width="0.9" height="10"/>
	<rect x="229.7" y="411.1" fill="#4B6470" width="0.9" height="10"/>
	<rect x="237.8" y="411.1" fill="#4B6470" width="0.9" height="10"/>
	<rect x="246" y="411.1" fill="#4B6470" width="0.9" height="10"/>
	<rect x="254.2" y="411.1" fill="#4B6470" width="0.9" height="10"/>
	<rect x="262.4" y="411.1" fill="#4B6470" width="0.9" height="10"/>
	<rect x="270.6" y="411.1" fill="#4B6470" width="0.9" height="10"/>
	<rect x="278.8" y="411.1" fill="#4B6470" width="0.9" height="10"/>
	<rect x="286.9" y="411.1" fill="#4B6470" width="0.9" height="10"/>
	<rect x="295.1" y="411.1" fill="#4B6470" width="0.9" height="10"/>
	<rect x="303.3" y="411.1" fill="#4B6470" width="0.9" height="10"/>
	<rect x="311.5" y="411.1" fill="#4B6470" width="0.9" height="10"/>
	<rect x="319.7" y="411.1" fill="#4B6470" width="0.9" height="10"/>
	<rect x="327.9" y="411.1" fill="#4B6470" width="0.9" height="10"/>
	<rect x="336.1" y="411.1" fill="#4B6470" width="0.9" height="10"/>
	<rect x="344.2" y="411.1" fill="#4B6470" width="0.9" height="10"/>
	<rect x="352.4" y="411.1" fill="#4B6470" width="0.9" height="10"/>
	<rect x="360.6" y="411.1" fill="#4B6470" width="0.9" height="10"/>
	<rect x="368.8" y="411.1" fill="#4B6470" width="0.9" height="10"/>
	<rect x="377" y="411.1" fill="#4B6470" width="0.9" height="10"/>
	<rect x="385.2" y="411.1" fill="#4B6470" width="0.9" height="10"/>
	<rect x="393.3" y="411.1" fill="#4B6470" width="0.9" height="10"/>
	<rect x="401.5" y="411.1" fill="#4B6470" width="0.9" height="10"/>
	<rect x="409.7" y="411.1" fill="#4B6470" width="0.9" height="10"/>
	<rect x="417.9" y="411.1" fill="#4B6470" width="0.9" height="10"/>
	<rect x="426.1" y="411.1" fill="#4B6470" width="0.9" height="10"/>
	<rect x="434.3" y="411.1" fill="#4B6470" width="0.9" height="10"/>
</g>
<g enable-background="new    ">
	<path fill="#FFFFFF" d="M151.1,248.8V244h2c1,0,1.8-0.4,2.5-1.1c0.7-0.7,1-1.5,1.1-2.5V208H151v-4.8h5.7v-8.3
		c-0.1-1-0.4-1.8-1.1-2.5c-0.7-0.7-1.5-1-2.5-1h-2v-4.8h30.3v10.3h-4.8V195v-0.1c-0.1-1-0.4-1.8-1.1-2.5c-0.7-0.7-1.5-1-2.5-1h-11.5
		v11.9h11.2v4.8h-11.2v36H173c0.9-0.1,1.8-0.4,2.4-1.1c0.7-0.7,1-1.5,1.1-2.4v-0.1v-2h4.8v10.4H151.1z"/>
	<path fill="#FFFFFF" d="M213.9,239.5c-6,6.1-13.3,9.1-21.8,9.3h-8.4V244h1.9h0.1c1,0,1.9-0.4,2.6-1.1c0.7-0.7,1.1-1.6,1.1-2.5V195
		c0-1-0.4-1.9-1.1-2.6c-0.7-0.7-1.6-1.1-2.6-1.1h-2v-4.8h8.4c8.5,0.1,15.8,3.1,21.8,9.2c6,6.1,9,13.4,9,21.9
		C222.9,226.2,219.9,233.5,213.9,239.5z M211.1,199.9c-4.6-5-10.3-7.8-17.1-8.4v52.5c6.7-0.6,12.4-3.4,17.1-8.4c4.6-5,7-11,7-17.8
		C218.1,210.8,215.8,204.9,211.1,199.9z"/>
	<path fill="#FFFFFF" d="M223,248.8V244h2c1,0,1.9-0.4,2.6-1.1c0.7-0.7,1.1-1.6,1.1-2.6V195c0-1-0.4-1.9-1.1-2.6
		c-0.7-0.7-1.6-1.1-2.6-1.1h-2v-4.8h16v4.8h-2c-1,0-1.9,0.4-2.6,1.1c-0.7,0.7-1.1,1.6-1.1,2.6v45.4c0,1,0.4,1.9,1.1,2.6
		c0.7,0.7,1.6,1.1,2.6,1.1h2v4.8H223z"/>
	<path fill="#FFFFFF" d="M263.3,196.8V195c0-1-0.4-1.9-1.1-2.6c-0.7-0.7-1.6-1.1-2.6-1.1h-2.1v49c0,1,0.4,1.9,1.1,2.6
		c0.7,0.7,1.6,1.1,2.6,1.1h2v4.8h-16V244h1.9c1,0,1.9-0.4,2.6-1.1c0.7-0.7,1.1-1.6,1.1-2.6v-49h-2c-1,0-1.9,0.4-2.6,1.1
		c-0.7,0.7-1.1,1.6-1.1,2.6v1.9h-4.8v-10.3h25.9v10.3H263.3z"/>
</g>
<g enable-background="new    ">
	<path fill="#FFFFFF" d="M391.9,264.3c-9.7,3.8-19.6,5.7-29.6,5.6c-10.3,0-20.4-2-30.2-5.9c-9.9-4-18.7-9.8-26.6-17.6v-10.7
		c-3.6-2.4-6.5-5.6-8.6-9.5c-2.1-3.9-3.1-8.1-3.1-12.5V195c0-1-0.4-1.9-1.1-2.6c-0.7-0.7-1.6-1.1-2.6-1.1h-2v-4.8h10.4v27
		c0,3.5,0.8,6.9,2.5,10.1c1.7,3.2,3.9,5.8,6.8,7.9c3-2.1,5.3-4.7,6.9-7.8c1.7-3.2,2.5-6.5,2.5-10.2v-27h10.4v4.8h-2
		c-0.9,0-1.8,0.4-2.5,1.1c-0.7,0.7-1.1,1.6-1.1,2.6v18.5c0,4.4-1.1,8.6-3.1,12.5c-2.1,3.9-5,7.1-8.6,9.6v8.6
		c7.2,7,15.3,12.2,24.3,15.7c9,3.5,18.2,5.2,27.6,5.2c9.5,0,18.8-1.8,27.9-5.5c9.1-3.6,17.3-9,24.5-16.2l3.4,3.5
		C410.3,254.7,401.6,260.5,391.9,264.3z"/>
	<path fill="#FFFFFF" d="M378,239.7c-6.1,6.1-13.4,9.1-22.1,9.1c-8.6,0-15.9-3-22-9.1c-6.1-6.1-9.1-13.4-9.1-22c0-8.6,3-16,9.1-22
		c6.1-6.1,13.4-9.1,22-9.1c8.6,0,16,3,22.1,9.1c6.1,6.1,9.1,13.4,9.1,22C387.2,226.3,384.1,233.6,378,239.7z M374.6,199.1
		c-5.1-5.1-11.3-7.7-18.6-7.7c-7.2,0-13.4,2.6-18.6,7.7c-5.2,5.1-7.8,11.3-7.8,18.6c0,7.2,2.6,13.4,7.8,18.6
		c5.2,5.2,11.4,7.8,18.6,7.8c7.3,0,13.5-2.6,18.6-7.8c5.1-5.2,7.7-11.4,7.7-18.6C382.3,210.4,379.7,204.2,374.6,199.1z"/>
	<path fill="#FFFFFF" d="M422,191.4c-1,0-1.9,0.3-2.6,1c-0.7,0.7-1.1,1.5-1.1,2.5V235c0,3.8-1.3,7-4,9.8c-2.7,2.7-6,4.1-9.8,4.1
		c-3.8,0-7-1.4-9.8-4.1c-2.7-2.7-4.1-6-4.1-9.8v-40c0-1-0.3-1.9-1-2.6c-0.7-0.7-1.5-1.1-2.5-1.1H387h-1.9v-4.8h10.4V235
		c0,2.5,0.9,4.6,2.7,6.4c1.8,1.8,3.9,2.7,6.4,2.7c2.4,0,4.5-0.9,6.3-2.7c1.8-1.8,2.7-3.9,2.7-6.4v-48.4h10.3v4.8H422z"/>
	<path fill="#FFFFFF" d="M443.4,248.8V244c1-0.1,1.7-0.4,2.1-0.8c0.4-0.4,0.6-1,0.6-1.6c0-0.2,0-0.5-0.1-0.8
		c-0.1-0.3-0.1-0.5-0.3-0.8c-0.1-0.3-0.3-0.6-0.4-0.8c-0.1-0.3-0.3-0.5-0.5-0.8c-0.9-1.3-1.8-2.6-2.7-3.9c-0.9-1.3-1.7-2.6-2.5-3.9
		c-0.5,0.2-1.1,0.3-1.6,0.4c-0.6,0.1-1.2,0.2-1.8,0.3v1.8v7.3c0,1,0.4,1.9,1.1,2.6c0.7,0.7,1.6,1.1,2.5,1.1h2v4.8h-16V244h1.9
		c1,0,1.9-0.4,2.6-1.1c0.7-0.7,1.1-1.6,1.1-2.6V195c0-1-0.4-1.9-1.1-2.6c-0.7-0.7-1.6-1.1-2.6-1.1h-1.9v-4.8h8.6
		c6,0,11.2,2.2,15.4,6.6c4.2,4.4,6.3,9.7,6.3,15.8c0,4.3-1.1,8.2-3.3,11.7c-2.2,3.5-5.1,6.2-8.7,8.1c0.5,0.8,1,1.7,1.6,2.7
		c0.6,0.9,1.3,1.9,2,2.8c0.8,1.2,1.7,2.3,2.7,3.5c0.9,1.2,1.9,2.2,2.8,3.1c1,0.9,2,1.7,2.9,2.3c0.9,0.6,1.9,0.8,2.7,0.8h1.5h0.4v4.8
		H443.4z M447.1,197.4c-2.9-3.3-6.5-5.3-10.9-5.9v34.9c4.3-0.6,7.9-2.5,10.9-5.9c2.9-3.3,4.4-7.2,4.4-11.6S450,200.7,447.1,197.4z"
		/>
</g>
<g enable-background="new    ">
	<path fill="#FFFFFF" d="M204.3,312.8c-3.8,4.3-8.6,6.7-14.2,7.4v1.8v7.3c0,1,0.4,1.9,1.1,2.6c0.7,0.7,1.6,1.1,2.6,1.1h2v4.8h-16
		v-4.8h2c1,0,1.9-0.4,2.6-1.1c0.7-0.7,1.1-1.6,1.1-2.6v-45.4c0-1-0.4-1.9-1.1-2.6c-0.7-0.7-1.6-1.1-2.6-1.1h-2v-4.8h8.7
		c6,0,11.1,2.2,15.3,6.6c4.2,4.4,6.3,9.7,6.3,15.8C210,303.6,208.1,308.6,204.3,312.8z M200.9,286.2c-2.9-3.3-6.5-5.3-10.8-5.9v34.9
		c4.3-0.6,7.8-2.5,10.8-5.9c2.9-3.3,4.4-7.2,4.4-11.6S203.8,289.6,200.9,286.2z"/>
	<path fill="#FFFFFF" d="M228.7,337.7v-4.8h2c1,0,1.9-0.4,2.6-1.1c0.7-0.7,1.1-1.6,1.1-2.6v-32.4h-15.4v32.4c0,1,0.4,1.9,1.1,2.6
		c0.7,0.7,1.6,1.1,2.6,1.1h2v4.8h-16v-4.8h2c1,0,1.9-0.4,2.6-1.1c0.7-0.7,1.1-1.6,1.1-2.6v-45.4c0-1-0.4-1.9-1.1-2.6
		c-0.7-0.7-1.6-1.1-2.6-1.1h-2v-4.8h16v4.8h-2c-1,0-1.9,0.4-2.6,1.1c-0.7,0.7-1.1,1.6-1.1,2.6v8.2h15.4v-8.2c0-1-0.4-1.9-1.1-2.6
		c-0.7-0.7-1.6-1.1-2.6-1.1h-2v-4.8h16v4.8h-2c-1,0-1.9,0.4-2.6,1.1c-0.7,0.7-1.1,1.6-1.1,2.6v45.4c0,1,0.4,1.9,1.1,2.6
		c0.7,0.7,1.6,1.1,2.6,1.1h2v4.8H228.7z"/>
	<path fill="#FFFFFF" d="M296.7,328.5c-6.1,6.1-13.4,9.1-22.1,9.1c-8.6,0-15.9-3-22-9.1c-6.1-6.1-9.1-13.4-9.1-22c0-8.6,3-16,9.1-22
		c6.1-6.1,13.4-9.1,22-9.1c8.6,0,16,3,22.1,9.1c6.1,6.1,9.1,13.4,9.1,22C305.8,315.1,302.7,322.4,296.7,328.5z M293.2,287.9
		c-5.1-5.1-11.3-7.7-18.6-7.7c-7.2,0-13.4,2.6-18.6,7.7c-5.2,5.1-7.8,11.3-7.8,18.6c0,7.2,2.6,13.4,7.8,18.6
		c5.2,5.2,11.4,7.8,18.6,7.8c7.3,0,13.5-2.6,18.6-7.8c5.1-5.2,7.7-11.4,7.7-18.6C300.9,299.3,298.3,293.1,293.2,287.9z"/>
	<path fill="#FFFFFF" d="M323.3,285.7v-1.9c0-1-0.4-1.9-1.1-2.6c-0.7-0.7-1.6-1.1-2.6-1.1h-2.1v49c0,1,0.4,1.9,1.1,2.6
		c0.7,0.7,1.6,1.1,2.6,1.1h2v4.8h-16v-4.8h1.9c1,0,1.9-0.4,2.6-1.1c0.7-0.7,1.1-1.6,1.1-2.6v-49h-2c-1,0-1.9,0.4-2.6,1.1
		c-0.7,0.7-1.1,1.6-1.1,2.6v1.9h-4.8v-10.3h25.9v10.3H323.3z"/>
	<path fill="#FFFFFF" d="M377.2,328.5c-6.1,6.1-13.4,9.1-22.1,9.1c-8.6,0-15.9-3-22-9.1c-6.1-6.1-9.1-13.4-9.1-22c0-8.6,3-16,9.1-22
		c6.1-6.1,13.4-9.1,22-9.1c8.6,0,16,3,22.1,9.1c6.1,6.1,9.1,13.4,9.1,22C386.3,315.1,383.2,322.4,377.2,328.5z M373.7,287.9
		c-5.1-5.1-11.3-7.7-18.6-7.7c-7.2,0-13.4,2.6-18.6,7.7c-5.2,5.1-7.8,11.3-7.8,18.6c0,7.2,2.6,13.4,7.8,18.6
		c5.2,5.2,11.4,7.8,18.6,7.8c7.3,0,13.5-2.6,18.6-7.8c5.1-5.2,7.7-11.4,7.7-18.6C381.4,299.3,378.8,293.1,373.7,287.9z"/>
	<path fill="#FFFFFF" d="M413.9,332c-3.8,3.8-8.3,5.6-13.6,5.6c-1.7,0-3.4-0.2-5.1-0.7c-1.7-0.5-3.3-1.1-4.7-2v2.7h-4.8v-13.8h4.8
		v1.6v1.9c0,1.4,0.6,2.4,1.8,3.2c1.2,0.8,2.5,1.4,3.8,1.7c0.8,0.2,1.6,0.4,2.3,0.5c0.7,0.1,1.4,0.1,1.9,0.1c4,0,7.4-1.4,10.2-4.3
		s4.3-6.2,4.3-10.2c0-3.7-1.2-6.8-3.6-9.2c-2.4-2.4-5-4.6-7.9-6.6c-0.3-0.2-0.6-0.4-0.9-0.6c-0.3-0.2-0.6-0.4-0.9-0.6
		c-0.4-0.2-0.8-0.5-1.2-0.8c-0.4-0.3-0.8-0.5-1.1-0.8c-2.7-1.9-5.1-3.9-7-5.9c-2-2-2.9-4.6-2.9-7.7c0-3.1,1.1-5.7,3.4-7.8
		c2.2-2.1,4.8-3.1,7.6-3c0.6,0,1.3,0.1,2,0.2c0.6,0.1,1.3,0.3,1.9,0.5v-0.9h4.8v10.6H404c0-0.3,0-0.6,0-0.9c0-0.3,0-0.7,0-1
		c0-1.2-0.4-2.1-1.2-2.7s-1.8-0.9-2.9-0.9c-0.1,0-0.1,0-0.2,0c-0.1,0-0.1,0-0.2,0c-1.4,0.1-2.7,0.7-3.9,1.8
		c-1.2,1.1-1.7,2.5-1.7,4.2c0,1.8,0.7,3.5,2.2,5c1.4,1.5,3.2,2.9,5.2,4.3c0.5,0.3,0.9,0.6,1.4,0.9c0.4,0.3,0.9,0.6,1.4,0.9
		c0.3,0.2,0.6,0.4,0.9,0.6c0.3,0.2,0.6,0.4,0.9,0.6c3.4,2.3,6.6,5,9.4,8c2.8,3,4.3,7,4.3,11.9C419.5,323.7,417.6,328.3,413.9,332z"
		/>
</g>
<g>
	<circle fill="#45582F" cx="306" cy="542.2" r="64.8"/>
	<path fill="#A0A8AA" d="M241.2,542.2c0,35.9,29.1,64.8,64.8,64.8V477.4C270.1,477.4,241.2,506.4,241.2,542.2z"/>
</g>
<rect x="288.8" y="516.5" fill="none" width="94.3" height="92.9"/>
<text transform="matrix(1 0 0 1 319.3661 556.2793)" fill="#FFFFFF" font-family="'HelveticaNeue'" font-size="55.6364">+</text>
<rect x="232.5" y="518.9" fill="none" width="94.3" height="92.9"/>
<text transform="matrix(1 0 0 1 268.8867 558.5976)" fill="#FFFFFF" font-family="'HelveticaNeue'" font-size="55.6364">-</text>
<g>
	<g>
		<path d="M291.1,205c2.5,0,2.5-3.9,0-3.9S288.6,205,291.1,205L291.1,205z"/>
	</g>
</g>
<g>
	<g>
		<path d="M291.1,205c2.5,0,2.5-3.9,0-3.9S288.6,205,291.1,205L291.1,205z"/>
	</g>
</g>
</svg>
