<?xml version="1.0" encoding="utf-8"?>
<!-- Generator: Adobe Illustrator 17.1.0, SVG Export Plug-In . SVG Version: 6.00 Build 0)  -->
<!DOCTYPE svg PUBLIC "-//W3C//DTD SVG 1.1//EN" "http://www.w3.org/Graphics/SVG/1.1/DTD/svg11.dtd">
<svg version="1.1" id="Layer_1" xmlns="http://www.w3.org/2000/svg" xmlns:xlink="http://www.w3.org/1999/xlink" x="0px" y="0px"
	 viewBox="0 0 792 792" enable-background="new 0 0 792 792" xml:space="preserve">
<circle stroke="#3D4F29" stroke-width="16" stroke-miterlimit="10" cx="396" cy="396" r="384.8"/>
<text transform="matrix(1 0 0 1 146.3515 205.5068)"><tspan x="0" y="0" fill="#FFFFFF" font-family="'CoventryGarden'" font-size="114.7303">Save</tspan><tspan x="198" y="0" fill="#FFFFFF" font-family="'CoventryGarden'" font-size="114.7303" letter-spacing="-27"> </tspan><tspan x="227.8" y="0" fill="#FFFFFF" font-family="'CoventryGarden'" font-size="114.7303">your</tspan><tspan x="464.9" y="0" fill="#FFFFFF" font-family="'CoventryGarden'" font-size="114.7303" letter-spacing="-22"> </tspan><tspan x="11.6" y="113" fill="#FFFFFF" font-family="'CoventryGarden'" font-size="114.7303">favouRites</tspan></text>
<rect x="280.3" y="404.9" fill="#47592F" stroke="#93A1A1" stroke-width="9" stroke-miterlimit="10" width="231.5" height="218.9"/>
<g>
	<path fill="#FFFFFF" d="M330.1,452.2c1.5,2.6,2.9,5.2,4.4,7.7c1.4,2.6,2.9,5.2,4.3,7.8l8.5,15.6l8.4,15.7
		c2.8,5.2,5.6,10.4,8.3,15.7c2.8,5.2,5.5,10.5,8.2,15.7c2.7,5.2,5.4,10.5,8.1,15.8c2.7,5.3,5.4,10.5,8,15.8l8,15.9l-10.8-0.2
		c1.7-3.3,3.4-6.4,5.1-9.5c1.7-3.1,3.5-6.2,5.4-9.2c3.7-6.1,7.5-12,11.4-17.9c3.9-5.9,8-11.7,12.2-17.4c4.2-5.7,8.5-11.3,13-16.8
		c4.5-5.5,9-10.9,13.7-16.2c4.7-5.3,9.6-10.5,14.5-15.6c5-5,10.1-10,15.3-14.8c5.2-4.8,10.6-9.4,16.1-13.9c5.5-4.5,11.2-8.8,16.9-13
		c5.8-4.2,11.7-8.1,17.8-11.8c6-3.8,12.2-7.3,18.6-10.5c3.1-1.7,6.4-3.2,9.6-4.7c1.6-0.8,3.2-1.5,4.9-2.2c1.6-0.7,3.3-1.4,4.9-2.1
		c6.5-2.8,13.2-5.2,20-7.3c6.8-2.2,13.6-3.9,20.5-5.4c6.9-1.6,13.9-2.6,20.9-3.4l5.3-0.5c1.8-0.2,3.5-0.2,5.3-0.3
		c3.5-0.3,7-0.2,10.5-0.3c-6.9,1.1-13.8,2.4-20.6,3.9c-6.8,1.6-13.5,3.4-20,5.6c-6.6,2.1-13.1,4.5-19.4,7.2
		c-6.4,2.6-12.6,5.5-18.8,8.6c-6.1,3.1-12.2,6.4-18.1,9.9c-5.9,3.5-11.7,7.2-17.3,11.1c-5.6,3.9-11.2,7.9-16.6,12.1
		c-5.4,4.2-10.7,8.6-15.9,13.1c-5.2,4.5-10.2,9.1-15.2,13.9c-5,4.7-9.8,9.6-14.6,14.6c-4.8,4.9-9.4,10-14,15.2
		c-4.5,5.2-9,10.4-13.4,15.7c-4.4,5.3-8.6,10.8-12.8,16.3c-4.2,5.5-8.2,11.1-12.2,16.7c-4,5.6-7.8,11.3-11.6,17.1
		c-1.9,2.9-3.7,5.8-5.5,8.7c-1.8,2.9-3.6,5.9-5.2,8.8l-5.9,10.6l-4.8-10.8l-7.2-16.2c-2.4-5.4-4.8-10.8-7.2-16.2
		c-2.4-5.4-4.7-10.8-7.1-16.3c-2.3-5.4-4.7-10.9-7-16.3c-2.3-5.4-4.6-10.9-6.9-16.4l-6.8-16.4l-6.7-16.5c-1.1-2.7-2.2-5.5-3.3-8.3
		C332.2,457.7,331.1,454.9,330.1,452.2z"/>
</g>
<image overflow="visible" width="418" height="418" xlink:href="../../../../../../../../Desktop/Screen Shot 2014-11-25 at 7.54.47 PM.png"  transform="matrix(0.7104 0 0 0.7104 -414.5528 -125.3609)">
</image>
</svg>
