<?xml version="1.0" encoding="utf-8"?>
<!-- Generator: Adobe Illustrator 17.1.0, SVG Export Plug-In . SVG Version: 6.00 Build 0)  -->
<!DOCTYPE svg PUBLIC "-//W3C//DTD SVG 1.1//EN" "http://www.w3.org/Graphics/SVG/1.1/DTD/svg11.dtd">
<svg version="1.1" id="Layer_1" xmlns="http://www.w3.org/2000/svg" xmlns:xlink="http://www.w3.org/1999/xlink" x="0px" y="0px"
	 viewBox="0 0 576 576" enable-background="new 0 0 576 576" xml:space="preserve">
<circle stroke="#C46F28" stroke-width="20.1443" stroke-miterlimit="10" cx="288" cy="288" r="272.2"/>
<g enable-background="new    ">
	<path fill="#FFFFFF" d="M196.1,165.6c-8.7,3.5-17.6,5.3-26.7,5.4c-0.1,0-0.4,0-0.5,0c-0.1,0-0.4,0-0.5,0c-9.4,0-18.8-1.9-27.8-5.5
		c-9.1-3.7-17.1-9.2-24.3-16.2c-0.1-0.1-0.3-0.3-0.4-0.5c-0.1-0.1-0.3-0.3-0.4-0.5c-0.1-0.1-0.3-0.3-0.5-0.4
		c-0.1-0.1-0.3-0.3-0.4-0.4c-0.5-0.5-1.1-1.1-1.5-1.8c-0.5-0.5-1-1.3-1.5-1.9l3.9-2.3c1.3,2,2.9,3.7,4.9,4.8c2,1.1,4.2,1.8,6.4,1.8
		c0.3,0,0.5,0,0.8,0c0.1,0,0.5,0,0.8-0.1c1-0.1,1.9-0.4,2.9-0.6c1-0.4,1.9-0.9,2.8-1.4c1.9-1.3,3.4-2.9,4.5-4.9
		c1.1-2,1.5-4.2,1.5-6.2c0-0.8,0-1.4-0.1-2.1c-0.1-0.6-0.3-1.4-0.5-2c-0.6-1.9-1.6-3.7-3.1-5.4c-1.4-1.6-2.9-3.3-4.5-4.9
		c-0.1-0.1-0.3-0.3-0.4-0.4c-0.1-0.1-0.3-0.3-0.4-0.4c-0.5-0.5-0.9-0.9-1.3-1.3c-0.5-0.5-0.9-0.9-1.1-1.3c-1.6-1.8-3-3.5-4.2-5.3
		c-1.1-1.9-1.6-3.7-1.6-5.8c0-0.4,0-0.6,0.1-1s0.1-0.8,0.1-1.1c0.5-2.4,1.6-4.3,3.5-5.8c1.9-1.5,3.9-2.1,6.2-2.1c0.4,0,0.8,0,1.1,0
		c0.4,0,0.6,0.1,1,0.1c0.5,0.1,0.9,0.1,1.1,0.4s0.8,0.4,1.1,0.5v-1h4.5v9.6h-4.5v-3.1c-0.5-0.8-1.1-1.3-1.9-1.6
		c-0.8-0.4-1.5-0.5-2.4-0.5c-1.1,0-2.3,0.4-3.4,1.1c-1.1,0.8-1.8,1.9-2,3.1c0,0.1,0,0.1,0,0.3c0,0.1,0,0.1,0,0.3s0,0.1,0,0.3
		c0,0.1,0,0.1,0,0.3c0,1.8,0.8,3.5,2.1,5.2c1.4,1.8,3,3.5,4.9,5.4c0.1,0.1,0.3,0.3,0.5,0.4c0.1,0.1,0.3,0.3,0.4,0.4
		c1.6,1.8,3.3,3.5,4.9,5.5c1.5,1.9,2.8,4,3.5,6.4c0.1,0.5,0.3,0.9,0.4,1.4c0.1,0.5,0.1,0.9,0.4,1.4c0.1,0.5,0.1,0.9,0.1,1.5
		c0,0.5,0,0.9,0,1.4c0,2.9-0.8,5.7-2.1,8.3s-3.3,4.9-5.9,6.4c-1.1,0.8-2.5,1.4-3.8,1.9s-2.5,0.8-3.9,0.9c-0.4,0-0.6,0-1,0
		c-0.4,0-0.6,0-1,0c-0.1,0-0.1,0-0.1,0h-0.1h-0.1c5.9,4.5,12.5,8.1,19.4,10.4c7.1,2.4,14.1,3.7,21.3,3.9c0.1,0,0.5,0,0.6,0
		c0.1,0,0.5,0,0.6,0c8.7,0,17.2-1.6,25.6-5c8.3-3.3,15.9-8.2,22.4-14.9l3.1,3.1C212.6,156.9,204.8,162.2,196.1,165.6z"/>
	<path fill="#FFFFFF" d="M167.3,153.2v-4.4h1.8c0.9,0,1.8-0.4,2.4-1c0.6-0.6,1-1.5,1-2.4v-5.9h-17.1v6c0,0.9,0.4,1.8,1,2.4
		c0.6,0.6,1.5,1,2.4,1h1.9v4.4H146v-4.4h1.9c0.9,0,1.6-0.4,2.3-1c0.6-0.6,0.9-1.4,1-2.3v-6.2h-3.5V135h3.5v-17.5
		c0-4.8,1.1-8.9,3.5-12.6c2.3-3.7,5.5-6.7,9.4-9.1c4,2.4,7.2,5.4,9.6,8.9c2.3,3.7,3.5,7.9,3.5,12.6v28.1c0.1,0.9,0.4,1.6,1.1,2.3
		c0.6,0.6,1.4,1,2.3,1h1.9v4.4L167.3,153.2L167.3,153.2z M172.3,117.5c0-3.3-0.8-6.4-2.3-9.3c-1.5-2.9-3.7-5.3-6.3-7.2
		c-2.6,1.9-4.8,4.2-6.2,7.2c-1.5,2.9-2.3,6-2.3,9.3V135h17.1v-17.5H172.3z"/>
	<path fill="#FFFFFF" d="M209.4,100.7c-0.9,0-1.6,0.4-2.3,1c-0.6,0.6-1,1.5-1,2.4v28.7c0,4.3-1.1,8.2-3.1,12c-2.1,3.8-5,6.7-8.7,8.9
		l-1.1,0.9l-1.1-0.8c-3.7-2.1-6.5-5.2-8.6-8.9c-2.1-3.8-3.1-7.8-3.1-12v-28.8c0-0.9-0.4-1.8-1-2.4c-0.6-0.6-1.5-1-2.4-1h-1.9v-4.4
		h9.6v36.4c0,3.3,0.8,6.4,2.3,9.3c1.5,2.9,3.5,5.3,6.2,7.2c2.8-1.9,4.9-4.3,6.3-7.2c1.5-2.9,2.3-5.9,2.3-9.3V96.3h9.6v4.4H209.4
		L209.4,100.7z"/>
	<path fill="#FFFFFF" d="M213.2,153.2v-4.4h1.9c0.9,0,1.6-0.4,2.3-1c0.6-0.6,0.9-1.4,1-2.3v-29.7h-5.2v-4.4h5.2v-7.6
		c-0.1-0.9-0.4-1.6-1-2.3c-0.6-0.6-1.4-0.9-2.3-0.9h-1.9v-4.4h27.7v9.4h-4.4v-1.8v-0.1c-0.1-0.9-0.4-1.6-1-2.3
		c-0.6-0.6-1.4-0.9-2.3-0.9h-10.6v11h10.2v4.4h-10.2v33h10.6c0.9-0.1,1.6-0.4,2.1-1c0.6-0.6,0.9-1.4,1-2.1v-0.1v-1.9h4.4v9.6
		L213.2,153.2L213.2,153.2z"/>
</g>
<g enable-background="new    ">
	<path fill="#FFFFFF" d="M306.9,100.7c-0.9,0-1.6,0.4-2.3,1c-0.6,0.6-1,1.5-1,2.4v17c0,4-0.9,7.9-2.9,11.5c-2,3.5-4.5,6.5-7.9,8.8
		v4.3c0,0.9,0.4,1.8,1,2.4c0.6,0.6,1.5,1,2.3,1h1.9v4.4h-14.6v-4.5h1.8c0.9,0,1.8-0.4,2.4-1c0.6-0.6,1-1.5,1-2.4v-4.4
		c-3.3-2.1-5.9-5.2-7.9-8.7c-2-3.5-2.9-7.4-2.9-11.5v-17c0-0.9-0.4-1.8-1-2.4s-1.5-1-2.4-1h-1.9v-4.4h9.6v24.7
		c0,3.1,0.8,6.3,2.3,9.2c1.5,2.9,3.5,5.3,6.2,7.2c2.8-1.9,4.9-4.3,6.3-7.2c1.5-2.9,2.3-5.9,2.3-9.3V96h9.6v4.4L306.9,100.7
		L306.9,100.7z"/>
	<path fill="#FFFFFF" d="M355.5,144.8c-5.5,5.5-12.2,8.3-20.3,8.3c-7.9,0-14.6-2.8-20.1-8.3c-5.5-5.5-8.3-12.2-8.3-20.1
		s2.8-14.6,8.3-20.1c5.5-5.5,12.2-8.3,20.1-8.3s14.6,2.8,20.3,8.3c5.7,5.5,8.3,12.2,8.3,20.1C363.9,132.6,361,139.3,355.5,144.8z
		 M352.3,107.7c-4.7-4.7-10.3-7.1-17-7.1c-6.5,0-12.2,2.4-17,7.1c-4.8,4.7-7.2,10.3-7.2,17c0,6.5,2.4,12.2,7.2,17
		c4.8,4.8,10.4,7.2,17,7.2c6.7,0,12.3-2.4,17-7.2c4.7-4.8,7.1-10.4,7.1-17C359.4,118,357,112.4,352.3,107.7z"/>
	<path fill="#FFFFFF" d="M395.8,100.7c-0.9,0-1.8,0.3-2.4,0.9s-1,1.4-1,2.3v36.8c0,3.5-1.1,6.4-3.7,8.9s-5.5,3.8-8.9,3.8
		c-3.5,0-6.4-1.3-8.9-3.8s-3.8-5.5-3.8-8.9v-36.6c0-0.9-0.3-1.8-0.9-2.4s-1.4-1-2.3-1h-0.1H362v-4.4h9.6v44.4c0,2.3,0.9,4.2,2.5,5.9
		c1.6,1.8,3.5,2.5,5.9,2.5c2.1,0,4.2-0.9,5.8-2.5c1.6-1.6,2.5-3.5,2.5-5.9V96.3h9.4v4.4H395.8L395.8,100.7z"/>
	<path fill="#FFFFFF" d="M415.4,153.2v-4.4c0.9-0.1,1.5-0.4,1.9-0.8c0.4-0.4,0.5-0.9,0.5-1.5c0-0.1,0-0.5-0.1-0.8
		c-0.1-0.3-0.1-0.5-0.3-0.8c-0.1-0.3-0.3-0.5-0.4-0.8c-0.1-0.3-0.3-0.5-0.5-0.8c-0.9-1.1-1.6-2.4-2.5-3.5c-0.9-1.1-1.5-2.4-2.3-3.5
		c-0.5,0.1-1,0.3-1.5,0.4c-0.5,0.1-1.1,0.1-1.6,0.3v1.6v6.7c0,0.9,0.4,1.8,1,2.4c0.6,0.6,1.5,1,2.3,1h1.9v4.4h-14.6v-4.5h1.8
		c0.9,0,1.8-0.4,2.4-1c0.6-0.6,1-1.5,1-2.4v-41.4c0-0.9-0.4-1.8-1-2.4s-1.5-1-2.4-1h-1.8V96h7.9c5.5,0,10.2,2,14.1,6
		c3.9,4,5.8,8.9,5.8,14.5c0,3.9-1,7.6-3,10.7c-2,3.1-4.7,5.7-7.9,7.4c0.5,0.8,0.9,1.5,1.5,2.5c0.5,0.9,1.1,1.8,1.9,2.5
		c0.8,1.1,1.5,2.1,2.5,3.1c0.9,1.1,1.8,2,2.5,2.9c0.9,0.9,1.9,1.5,2.6,2.1c0.9,0.5,1.8,0.8,2.5,0.8h1.4h0.4v4.4L415.4,153.2
		L415.4,153.2z M418.7,106.2c-2.6-3-5.9-4.9-9.9-5.4v32c3.9-0.5,7.2-2.3,9.9-5.4c2.6-3,4-6.5,4-10.6
		C422.7,112.6,421.5,109.2,418.7,106.2z"/>
</g>
<g enable-background="new    ">
	<path fill="#FFFFFF" d="M143.1,183.9v-3.3h-14v11h10.2v4.4h-10.2v29.7c0,0.9,0.4,1.6,1,2.3c0.6,0.6,1.5,1,2.3,1h0.5h1.3v4.4h-14.6
		v-4.5h1.8h0.1c0.9,0,1.5-0.3,2.1-0.9c0.6-0.5,1-1.3,1.1-2.1v-30.1h-5.2v-4.4h5.2v-7.6c0-0.9-0.4-1.8-1-2.4c-0.6-0.6-1.5-1-2.4-1
		h-1.9v-4.4h27.7v7.7h-4V183.9z"/>
	<path fill="#FFFFFF" d="M162.3,233.1v-4.4h1.8c0.9,0,1.8-0.4,2.4-1c0.6-0.6,1-1.5,1-2.4v-6h-17.1v6c0,0.9,0.4,1.8,1,2.4
		c0.6,0.6,1.5,1,2.4,1h1.9v4.4h-14.6v-4.4h1.9c0.9,0,1.6-0.4,2.3-1c0.6-0.6,0.9-1.4,1-2.3v-6.2h-3.5V215h3.5v-17.5
		c0-4.8,1.1-8.9,3.5-12.6c2.3-3.7,5.5-6.7,9.4-9.1c4,2.4,7.2,5.4,9.6,8.9c2.3,3.7,3.5,7.9,3.5,12.6v28.1c0.1,0.9,0.4,1.6,1.1,2.3
		c0.6,0.6,1.4,1,2.3,1h1.9v4.4L162.3,233.1L162.3,233.1z M167.4,197.5c0-3.3-0.8-6.4-2.3-9.3c-1.5-2.9-3.7-5.3-6.3-7.2
		c-2.6,1.9-4.8,4.2-6.2,7.2c-1.5,2.9-2.3,6-2.3,9.3V215h17.1v-17.5H167.4z"/>
	<path fill="#FFFFFF" d="M204.5,180.6c-0.9,0-1.6,0.4-2.3,1c-0.6,0.6-1,1.5-1,2.4v28.7c0,4.3-1.1,8.2-3.1,12c-2.1,3.8-5,6.7-8.7,8.9
		l-1.1,0.9l-1.1-0.8c-3.7-2.1-6.5-5.2-8.6-8.9c-2.1-3.8-3.1-7.8-3.1-12v-28.7c0-0.9-0.4-1.8-1-2.4c-0.6-0.6-1.5-1-2.4-1h-1.9v-4.4
		h9.6v36.4c0,3.3,0.8,6.4,2.3,9.3c1.5,2.9,3.5,5.3,6.2,7.2c2.8-1.9,4.9-4.3,6.3-7.2c1.5-2.9,2.3-5.9,2.3-9.3v-36.4h9.6v4.4
		L204.5,180.6L204.5,180.6z"/>
	<path fill="#FFFFFF" d="M253.5,224.8c-5.5,5.5-12.2,8.3-20.3,8.3c-7.9,0-14.6-2.8-20.1-8.3c-5.5-5.5-8.3-12.2-8.3-20.1
		c0-7.9,2.8-14.6,8.3-20.1c5.5-5.5,12.2-8.3,20.1-8.3s14.6,2.8,20.3,8.3s8.3,12.2,8.3,20.1C261.9,212.6,259,219.3,253.5,224.8z
		 M250.4,187.7c-4.7-4.7-10.3-7.1-17-7.1c-6.5,0-12.2,2.4-17,7.1c-4.8,4.7-7.2,10.3-7.2,17c0,6.5,2.4,12.2,7.2,17
		c4.8,4.8,10.4,7.2,17,7.2c6.7,0,12.3-2.4,17-7.2c4.7-4.8,7.1-10.4,7.1-17C257.4,198,255,192.3,250.4,187.7z"/>
	<path fill="#FFFFFF" d="M293.8,180.6c-0.9,0-1.8,0.3-2.4,0.9c-0.6,0.6-1,1.4-1,2.3v36.8c0,3.5-1.1,6.4-3.7,8.9s-5.5,3.8-8.9,3.8
		c-3.5,0-6.4-1.3-8.9-3.8s-3.8-5.5-3.8-8.9v-36.6c0-0.9-0.3-1.8-0.9-2.4c-0.6-0.6-1.4-1-2.3-1h-0.1H260v-4.4h9.6v44.3
		c0,2.3,0.9,4.2,2.5,5.9c1.6,1.6,3.5,2.5,5.9,2.5c2.1,0,4.2-0.9,5.8-2.5c1.6-1.6,2.5-3.5,2.5-5.9v-44.3h9.4v4.4L293.8,180.6
		L293.8,180.6z"/>
	<path fill="#FFFFFF" d="M400.9,248c-8.7,3.5-17.6,5.3-26.7,5.4c-0.1,0-0.4,0-0.5,0s-0.4,0-0.5,0s-0.4,0-0.5,0s-0.4,0-0.5,0
		c-9.1-0.1-18-1.9-26.7-5.5c-8.7-3.7-16.5-8.7-23.3-15.6c-2.3-2.4-4.5-4.9-6.5-7.6s-3.9-5.5-5.5-8.4c-0.1,0.1-0.4,0.1-0.5,0.1
		c-0.1,0.1-0.4,0.1-0.6,0.1c-0.4,0.1-0.8,0.1-1.1,0.3c-0.4,0.1-0.8,0.1-1.1,0.1v1.6v6.7c0,0.9,0.4,1.6,1,2.3c0.6,0.6,1.5,1,2.3,1
		h1.9v4.4h-14.6v-4.4h1.9c0.9,0,1.8-0.4,2.4-1c0.6-0.6,1-1.5,1-2.3v-41.4c0-0.9-0.4-1.8-1-2.4c-0.6-0.6-1.5-1-2.4-1h-1.9v-4.4h7.9
		c5.5,0,10.2,2,14,6.2c3.9,4.2,5.8,8.9,5.8,14.4c0,3.9-1,7.4-3,10.6c-2,3.1-4.5,5.7-7.8,7.4c1.5,2.6,3.1,5.2,5,7.7s3.9,4.8,6,6.9
		c6.5,6.5,14.1,11.5,22.5,14.7c8.4,3.3,17,4.9,25.7,4.9c0.1,0,0.4,0,0.5,0s0.4,0,0.5,0c8.6-0.1,16.9-1.9,25.1-5.2
		c8.2-3.3,15.5-8.2,21.9-14.6l3.1,3.1C417.4,239.2,409.6,244.4,400.9,248z M316.7,186c-2.6-3-5.9-4.9-9.9-5.4v32
		c3.9-0.5,7.2-2.4,9.9-5.4c2.6-3,3.9-6.5,3.9-10.6C320.7,192.6,319.3,189,316.7,186z"/>
	<path fill="#FFFFFF" d="M324.8,233.1v-4.4h1.9c0.9,0,1.8-0.4,2.4-1c0.6-0.6,1-1.5,1-2.4v-41.5c0-0.9-0.4-1.8-1-2.4
		c-0.6-0.6-1.5-1-2.4-1h-1.9v-4.4h14.6v4.4h-1.9c-0.9,0-1.8,0.4-2.4,1c-0.6,0.6-1,1.5-1,2.4v41.5c0,0.9,0.4,1.8,1,2.4
		c0.6,0.6,1.5,1,2.4,1h1.9v4.4H324.8z"/>
	<path fill="#FFFFFF" d="M361.5,185.6v-1.8c0-0.9-0.4-1.8-1-2.4c-0.6-0.6-1.5-1-2.4-1h-1.9v44.8c0,0.9,0.4,1.8,1,2.4
		c0.6,0.6,1.5,1,2.4,1h1.9v4.4h-14.6v-4.4h1.8c0.9,0,1.8-0.4,2.4-1c0.6-0.6,1-1.5,1-2.4v-44.8h-1.9c-0.9,0-1.8,0.4-2.4,1
		c-0.6,0.6-1,1.5-1,2.4v1.8h-4.4v-9.4h23.7v9.4H361.5z"/>
	<path fill="#FFFFFF" d="M367.9,233.1v-4.4h1.9c0.9,0,1.6-0.4,2.3-1c0.6-0.6,0.9-1.4,1-2.3v-29.7h-5.2v-4.4h5.2v-7.6
		c-0.1-0.9-0.4-1.6-1-2.3c-0.6-0.6-1.4-0.9-2.3-0.9h-1.9v-4.4h27.7v9.4h-4.4v-1.8v-0.1c-0.1-0.9-0.4-1.6-1-2.3
		c-0.6-0.6-1.4-0.9-2.3-0.9h-10.6v11h10.2v4.4h-10.2v32.9H388c0.9-0.1,1.6-0.4,2.1-1c0.6-0.6,0.9-1.4,1-2.1v-0.1v-1.9h4.4v9.6
		L367.9,233.1L367.9,233.1z"/>
	<path fill="#FFFFFF" d="M423.8,228.1c-3.5,3.5-7.6,5.2-12.5,5.2c-1.5,0-3.1-0.1-4.7-0.6c-1.5-0.5-3-1-4.3-1.9v2.5H398v-12.6h4.4
		v1.5v1.8c0,1.3,0.5,2.1,1.6,2.9c1.1,0.8,2.3,1.3,3.5,1.5c0.8,0.1,1.5,0.4,2.1,0.5c0.6,0.1,1.3,0.1,1.8,0.1c3.7,0,6.8-1.3,9.3-3.9
		s3.9-5.7,3.9-9.3c0-3.4-1.1-6.2-3.3-8.4c-2.1-2.1-4.5-4.2-7.2-6c-0.3-0.1-0.5-0.4-0.9-0.5c-0.4-0.1-0.5-0.4-0.9-0.5
		c-0.4-0.1-0.8-0.5-1.1-0.8c-0.4-0.3-0.8-0.5-1-0.8c-2.5-1.8-4.7-3.5-6.4-5.4c-1.9-1.9-2.6-4.2-2.6-7.1s1-5.2,3.1-7.2
		c2-1.9,4.4-2.9,6.9-2.8c0.5,0,1.1,0.1,1.9,0.1c0.5,0.1,1.1,0.3,1.8,0.5v-1h4.4v9.7H415c0-0.3,0-0.5,0-0.9s0-0.6,0-0.9
		c0-1.1-0.4-1.9-1.1-2.5c-0.8-0.5-1.6-0.9-2.6-0.9c-0.1,0-0.1,0-0.1,0c-0.1,0-0.1,0-0.1,0c-1.3,0.1-2.5,0.6-3.5,1.6
		c-1.1,1-1.5,2.3-1.5,3.9c0,1.6,0.6,3.1,2,4.5c1.3,1.4,2.9,2.6,4.8,3.9c0.5,0.3,0.9,0.5,1.3,0.9c0.4,0.3,0.9,0.5,1.3,0.9
		c0.3,0.1,0.5,0.4,0.9,0.5c0.3,0.1,0.5,0.4,0.9,0.5c3.1,2.1,6,4.5,8.6,7.3s3.9,6.4,3.9,11C429,220.4,427.2,224.5,423.8,228.1z"/>
</g>
<rect x="206.2" y="294.3" fill="#C46F28" stroke="#93A1A1" stroke-width="11.3312" stroke-miterlimit="10" width="163.8" height="154.9"/>
<g>
	<path fill="#FFFFFF" d="M241.4,327.8c1.1,1.9,2,3.7,3.1,5.5c1,1.9,2,3.7,3,5.5l6,11.1l5.9,11.1c2,3.7,3.9,7.3,5.9,11.1
		c2,3.7,3.9,7.4,5.8,11.1c1.9,3.7,3.9,7.4,5.8,11.2c1.9,3.8,3.9,7.4,5.7,11.2l5.7,11.2l-7.6-0.1c1.1-2.3,2.4-4.5,3.5-6.7
		c1.1-2.1,2.5-4.4,3.9-6.5c2.6-4.3,5.3-8.6,8.1-12.6c2.8-4.2,5.7-8.2,8.6-12.2c2.9-4,6-7.9,9.2-12c3.1-3.9,6.4-7.7,9.7-11.5
		c3.3-3.8,6.8-7.4,10.2-11.1c3.5-3.5,7.2-7.1,10.8-10.4c3.7-3.4,7.6-6.7,11.3-9.8c3.9-3.1,7.9-6.2,12-9.2c4.2-2.9,8.2-5.8,12.6-8.3
		c4.2-2.6,8.6-5.2,13.2-7.4c2.1-1.1,4.5-2.3,6.8-3.3c1.1-0.5,2.3-1.1,3.5-1.5c1.1-0.5,2.3-1,3.5-1.5c4.5-2,9.3-3.7,14.2-5.2
		c4.9-1.5,9.6-2.8,14.5-3.9c4.9-1.1,9.8-1.9,14.9-2.4l3.8-0.4c1.3-0.1,2.5-0.1,3.8-0.1c2.5-0.1,4.9-0.1,7.4-0.1
		c-4.9,0.9-9.8,1.8-14.6,2.8c-4.9,1.1-9.6,2.4-14.2,3.9c-4.7,1.5-9.2,3.1-13.7,5.2c-4.5,1.9-8.9,3.9-13.2,6
		c-4.3,2.1-8.6,4.5-12.8,6.9c-4.3,2.4-8.2,5.2-12.2,7.9c-3.9,2.8-7.9,5.5-11.7,8.6c-3.9,2.9-7.6,6-11.2,9.2
		c-3.7,3.1-7.2,6.4-10.7,9.8c-3.5,3.3-6.9,6.8-10.3,10.3c-3.4,3.5-6.7,7.1-9.9,10.7c-3.1,3.7-6.4,7.3-9.6,11.1
		c-3.1,3.8-6,7.6-9.1,11.6c-2.9,3.9-5.8,7.9-8.6,11.8c-2.9,3.9-5.5,7.9-8.2,12.1c-1.4,2-2.6,4.2-3.9,6.2s-2.5,4.2-3.7,6.2l-4.2,7.6
		l-3.4-7.6l-5.2-11.5c-1.8-3.9-3.4-7.6-5.2-11.5c-1.8-3.9-3.3-7.6-5-11.6c-1.6-3.9-3.3-7.7-4.9-11.6c-1.6-3.9-3.3-7.7-4.9-11.6
		l-4.9-11.6l-4.8-11.7c-0.9-1.9-1.5-3.9-2.3-5.9C242.8,331.7,242,329.7,241.4,327.8z"/>
</g>
</svg>
