<?xml version="1.0" encoding="utf-8"?>
<!-- Generator: Adobe Illustrator 17.1.0, SVG Export Plug-In . SVG Version: 6.00 Build 0)  -->
<!DOCTYPE svg PUBLIC "-//W3C//DTD SVG 1.1//EN" "http://www.w3.org/Graphics/SVG/1.1/DTD/svg11.dtd">
<svg version="1.1" id="Layer_1" xmlns="http://www.w3.org/2000/svg" xmlns:xlink="http://www.w3.org/1999/xlink" x="0px" y="0px"
	 viewBox="0 0 612 792" enable-background="new 0 0 612 792" xml:space="preserve">
<circle stroke="#3D4F29" stroke-width="16" stroke-miterlimit="10" cx="306" cy="396" r="297.3"/>
<g enable-background="new    ">
	<path fill="#FFFFFF" d="M218.5,251.6c-10,3.6-20.2,5.5-30.8,5.8c-0.5,0.1-1.1,0.1-1.6,0.1c-0.6,0-1.1,0-1.6,0c-2,0-4-0.1-6-0.2
		c-2-0.1-4-0.3-6-0.5c-13.8-1.7-26.5-6.6-38-14.7c-11.5-8.1-17.3-20.1-17.3-36c0-4.3,0.7-8.3,2-12c1.3-3.8,3.1-7,5.5-9.8
		c2.4-3,5.2-5.3,8.4-6.9c3.2-1.6,6.5-2.4,9.9-2.4c1.3,0,2.6,0.1,3.9,0.4c1.3,0.2,2.5,0.6,3.8,1.1v-1.5h4.8v12.8h-4.8
		c0-2.1-0.6-3.9-1.7-5.5c-1.1-1.6-2.9-2.4-5.2-2.4c-2.8,0-5.6,0.6-8.3,1.9c-2.7,1.2-5.1,3.1-7.1,5.7c-1.9,2.4-3.4,5.2-4.6,8.4
		c-1.2,3.3-1.7,6.7-1.7,10.4c0,6,1.1,11.5,3.2,16.3c2.1,4.8,5,9.1,8.7,12.8c4.8,4.7,10.4,8.4,16.8,11.1c6.4,2.7,13.1,4.5,19.9,5.4
		c2.4,0.4,4.7,0.6,7,0.8c2.3,0.2,4.7,0.3,7,0.3c0.5,0,1.1,0,1.6,0c0.6,0,1.1,0,1.6-0.1c9.9-0.3,19.6-2.1,28.9-5.5
		c9.4-3.3,17.2-8.1,23.5-14.3l3.4,3.4C236.8,242.9,228.4,248,218.5,251.6z"/>
	<path fill="#FFFFFF" d="M194.4,179.8c-1,0-1.9,0.3-2.6,1c-0.7,0.7-1.1,1.5-1.1,2.5v40.1c0,3.8-1.3,7-4,9.8c-2.7,2.7-6,4.1-9.8,4.1
		c-3.8,0-7-1.4-9.8-4.1c-2.7-2.7-4.1-6-4.1-9.8v-40c0-1-0.3-1.9-1-2.6c-0.7-0.7-1.5-1.1-2.5-1.1h-0.1h-1.9V175h10.4v48.4
		c0,2.5,0.9,4.6,2.7,6.4c1.8,1.8,3.9,2.7,6.4,2.7c2.4,0,4.5-0.9,6.3-2.7c1.8-1.8,2.7-3.9,2.7-6.4V175h10.3v4.8H194.4z"/>
	<path fill="#FFFFFF" d="M222.9,231.6c-3.8,3.8-8.3,5.6-13.6,5.6c-1.7,0-3.4-0.2-5.1-0.7c-1.7-0.5-3.3-1.1-4.7-2v2.7h-4.8v-13.8h4.8
		v1.6v1.9c0,1.4,0.6,2.4,1.8,3.2c1.2,0.8,2.5,1.4,3.8,1.7c0.8,0.2,1.6,0.4,2.3,0.5c0.7,0.1,1.4,0.1,1.9,0.1c4,0,7.4-1.4,10.2-4.3
		c2.8-2.8,4.3-6.2,4.3-10.2c0-3.7-1.2-6.8-3.6-9.2c-2.4-2.4-5-4.6-7.9-6.6c-0.3-0.2-0.6-0.4-0.9-0.6c-0.3-0.2-0.6-0.4-0.9-0.6
		c-0.4-0.2-0.8-0.5-1.2-0.8c-0.4-0.3-0.8-0.5-1.1-0.8c-2.7-1.9-5.1-3.9-7-5.9c-2-2-2.9-4.6-2.9-7.7c0-3.1,1.1-5.7,3.4-7.8
		c2.2-2.1,4.8-3.1,7.6-3c0.6,0,1.3,0.1,2,0.2c0.6,0.1,1.3,0.3,1.9,0.5v-0.9h4.8v10.6h-4.8c0-0.3,0-0.6,0-0.9c0-0.3,0-0.7,0-1
		c0-1.2-0.4-2.1-1.2-2.7s-1.8-0.9-2.9-0.9c-0.1,0-0.1,0-0.2,0c-0.1,0-0.1,0-0.2,0c-1.4,0.1-2.7,0.7-3.9,1.8
		c-1.2,1.1-1.7,2.5-1.7,4.2c0,1.8,0.7,3.5,2.2,5c1.4,1.5,3.2,2.9,5.2,4.3c0.5,0.3,0.9,0.6,1.4,0.9c0.4,0.3,0.9,0.6,1.4,0.9
		c0.3,0.2,0.6,0.4,0.9,0.6c0.3,0.2,0.6,0.4,0.9,0.6c3.4,2.3,6.6,5,9.4,8c2.8,3,4.3,7,4.3,11.9C228.6,223.3,226.7,227.8,222.9,231.6z
		"/>
	<path fill="#FFFFFF" d="M243.6,185.3v-1.9c0-1-0.4-1.9-1.1-2.6c-0.7-0.7-1.6-1.1-2.6-1.1h-2.1v49c0,1,0.4,1.9,1.1,2.6
		c0.7,0.7,1.6,1.1,2.6,1.1h2v4.8h-16v-4.8h1.9c1,0,1.9-0.4,2.6-1.1c0.7-0.7,1.1-1.6,1.1-2.6v-49h-2c-1,0-1.9,0.4-2.6,1.1
		c-0.7,0.7-1.1,1.6-1.1,2.6v1.9h-4.8V175h25.9v10.3H243.6z"/>
	<path fill="#FFFFFF" d="M297.4,228.1c-6.1,6.1-13.4,9.1-22.1,9.1c-8.6,0-15.9-3-22-9.1c-6.1-6.1-9.1-13.4-9.1-22c0-8.6,3-16,9.1-22
		c6.1-6.1,13.4-9.1,22-9.1c8.6,0,16,3,22.1,9.1c6.1,6.1,9.1,13.4,9.1,22C306.5,214.7,303.5,222,297.4,228.1z M293.9,187.5
		c-5.1-5.1-11.3-7.7-18.6-7.7c-7.2,0-13.4,2.6-18.6,7.7c-5.2,5.1-7.8,11.3-7.8,18.6c0,7.2,2.6,13.4,7.8,18.6
		c5.2,5.2,11.4,7.8,18.6,7.8c7.3,0,13.5-2.6,18.6-7.8c5.1-5.2,7.7-11.4,7.7-18.6C301.7,198.8,299.1,192.6,293.9,187.5z"/>
	<path fill="#FFFFFF" d="M330.6,237.2v-4.8h2c1,0,1.9-0.4,2.6-1.1c0.7-0.7,1.1-1.6,1.1-2.6v-40.3v-7.1c-2.5,2.1-4.4,4.7-5.9,7.7
		c-1.4,3-2.2,6.2-2.2,9.5H328h-4.6h-0.2c0-3.4-0.7-6.7-2.2-9.7c-1.5-3-3.5-5.6-6.1-7.7v7.3v40.3c0,1,0.4,1.9,1.1,2.6
		c0.7,0.7,1.6,1.1,2.5,1.1h2v4.8h-16v-4.8h1.9c1,0,1.9-0.4,2.6-1.1c0.7-0.7,1.1-1.6,1.1-2.6v-45.4c0-1-0.4-1.9-1.1-2.6
		c-0.7-0.7-1.6-1.1-2.6-1.1h-1.9V175h9c0.1,0,0.1,0,0.2,0c0.1,0,0.1,0,0.2,0.1c0.2,0,0.3,0,0.5,0c0.1,0,0.3,0.1,0.4,0.2
		c2.4,1.4,4.6,3.1,6.4,5.2c1.9,2.1,3.4,4.5,4.5,7.1c0.2-0.4,0.4-0.8,0.6-1.2c0.2-0.4,0.4-0.8,0.7-1.2c0.1-0.2,0.2-0.4,0.4-0.6
		c0.1-0.2,0.2-0.4,0.4-0.7c1.1-1.9,2.3-3.7,3.7-5.4c1.4-1.7,3.2-2.8,5.2-3.3l1.2-0.4h8.8v4.8h-2c-0.9,0-1.8,0.4-2.5,1.1
		c-0.7,0.7-1.1,1.6-1.1,2.6v45.4c0,1,0.4,1.9,1.1,2.6c0.7,0.7,1.6,1.1,2.5,1.1h2v4.8H330.6z"/>
	<path fill="#FFFFFF" d="M349.8,237.2v-4.8h2c1,0,1.9-0.4,2.6-1.1c0.7-0.7,1.1-1.6,1.1-2.6v-45.4c0-1-0.4-1.9-1.1-2.6
		c-0.7-0.7-1.6-1.1-2.6-1.1h-2V175h16v4.8h-2c-1,0-1.9,0.4-2.6,1.1c-0.7,0.7-1.1,1.6-1.1,2.6v45.4c0,1,0.4,1.9,1.1,2.6
		c0.7,0.7,1.6,1.1,2.6,1.1h2v4.8H349.8z"/>
	<path fill="#FFFFFF" d="M375.5,232.4h8.8h1.3c1,0,1.9-0.4,2.6-1.1c0.7-0.7,1.1-1.6,1.1-2.5v-2h4.8v10.4h-25.2l18.8-57.4h-4.3h-1.3
		c-0.9,0-1.8,0.4-2.5,1.1c-0.7,0.7-1.1,1.6-1.1,2.6v1.9h-4.8V175h20.7L375.5,232.4z"/>
	<path fill="#FFFFFF" d="M396.8,237.2v-4.8h2c1,0,1.8-0.4,2.5-1.1c0.7-0.7,1-1.5,1.1-2.5v-32.4h-5.7v-4.8h5.7v-8.3
		c-0.1-1-0.4-1.8-1.1-2.5c-0.7-0.7-1.5-1-2.5-1h-2V175h30.3v10.3h-4.8v-1.9v-0.1c-0.1-1-0.4-1.8-1.1-2.5c-0.7-0.7-1.5-1-2.5-1h-11.5
		v11.9h11.2v4.8h-11.2v36h11.6c0.9-0.1,1.8-0.4,2.4-1.1c0.7-0.7,1-1.5,1.1-2.4v-0.1v-2h4.8v10.4H396.8z"/>
</g>
<g enable-background="new    ">
	<path fill="#FFFFFF" d="M113.2,267.1c-0.9,0-1.8,0.4-2.5,1.1c-0.7,0.7-1.1,1.6-1.1,2.6v18.5c0,4.4-1,8.6-3.1,12.5
		c-2.1,3.9-5,7.1-8.6,9.6v4.7c0,1,0.4,1.9,1.1,2.6c0.7,0.7,1.6,1.1,2.5,1.1h2v4.8H87.5v-4.8h1.9c1,0,1.9-0.4,2.6-1.1
		c0.7-0.7,1.1-1.6,1.1-2.6v-4.8c-3.6-2.4-6.5-5.6-8.6-9.5c-2.1-3.9-3.1-8.1-3.1-12.5v-18.5c0-1-0.4-1.9-1.1-2.6
		c-0.7-0.7-1.6-1.1-2.6-1.1h-2v-4.8h10.4v27c0,3.5,0.8,6.9,2.5,10.1c1.7,3.2,3.9,5.8,6.8,7.9c3-2.1,5.3-4.7,6.9-7.8
		c1.7-3.2,2.5-6.5,2.5-10.2v-27h10.4v4.8H113.2z"/>
	<path fill="#FFFFFF" d="M166.3,315.4c-6.1,6.1-13.4,9.1-22.1,9.1c-8.6,0-15.9-3-22-9.1c-6.1-6.1-9.1-13.4-9.1-22c0-8.6,3-16,9.1-22
		c6.1-6.1,13.4-9.1,22-9.1c8.6,0,16,3,22.1,9.1c6.1,6.1,9.1,13.4,9.1,22C175.4,302,172.4,309.3,166.3,315.4z M162.9,274.8
		c-5.1-5.1-11.3-7.7-18.6-7.7c-7.2,0-13.4,2.6-18.6,7.7c-5.2,5.1-7.8,11.3-7.8,18.6c0,7.2,2.6,13.4,7.8,18.6
		c5.2,5.2,11.4,7.8,18.6,7.8c7.3,0,13.5-2.6,18.6-7.8c5.1-5.2,7.7-11.4,7.7-18.6C170.6,286.1,168,279.9,162.9,274.8z"/>
	<path fill="#FFFFFF" d="M210.3,267.1c-1,0-1.9,0.3-2.6,1c-0.7,0.7-1.1,1.5-1.1,2.5v40.1c0,3.8-1.3,7-4,9.8c-2.7,2.7-6,4.1-9.8,4.1
		c-3.8,0-7-1.4-9.8-4.1c-2.7-2.7-4.1-6-4.1-9.8v-40c0-1-0.3-1.9-1-2.6c-0.7-0.7-1.5-1.1-2.5-1.1h-0.1h-1.9v-4.8h10.4v48.4
		c0,2.5,0.9,4.6,2.7,6.4c1.8,1.8,3.9,2.7,6.4,2.7c2.4,0,4.5-0.9,6.3-2.7c1.8-1.8,2.7-3.9,2.7-6.4v-48.4h10.3v4.8H210.3z"/>
	<path fill="#FFFFFF" d="M231.6,324.5v-4.8c1-0.1,1.7-0.4,2.1-0.8c0.4-0.4,0.6-1,0.6-1.6c0-0.2,0-0.5-0.1-0.8
		c-0.1-0.3-0.1-0.5-0.3-0.8c-0.1-0.3-0.3-0.6-0.4-0.8c-0.1-0.3-0.3-0.5-0.5-0.8c-0.9-1.3-1.8-2.6-2.7-3.9c-0.9-1.3-1.7-2.6-2.5-3.9
		c-0.5,0.2-1.1,0.3-1.6,0.4c-0.6,0.1-1.2,0.2-1.8,0.3v1.8v7.3c0,1,0.4,1.9,1.1,2.6c0.7,0.7,1.6,1.1,2.5,1.1h2v4.8h-16v-4.8h1.9
		c1,0,1.9-0.4,2.6-1.1c0.7-0.7,1.1-1.6,1.1-2.6v-45.4c0-1-0.4-1.9-1.1-2.6c-0.7-0.7-1.6-1.1-2.6-1.1h-1.9v-4.8h8.6
		c6,0,11.2,2.2,15.4,6.6c4.2,4.4,6.3,9.7,6.3,15.8c0,4.3-1.1,8.2-3.3,11.7c-2.2,3.5-5.1,6.2-8.7,8.1c0.5,0.8,1,1.7,1.6,2.7
		c0.6,0.9,1.3,1.9,2,2.8c0.8,1.2,1.7,2.3,2.7,3.5c0.9,1.2,1.9,2.2,2.8,3.1c1,0.9,2,1.7,2.9,2.3c0.9,0.6,1.9,0.8,2.7,0.8h1.5h0.4v4.8
		H231.6z M235.3,273.1c-2.9-3.3-6.5-5.3-10.9-5.9v34.9c4.3-0.6,7.9-2.5,10.9-5.9c2.9-3.3,4.4-7.2,4.4-11.6S238.3,276.4,235.3,273.1z
		"/>
</g>
<g enable-background="new    ">
	<path fill="#FFFFFF" d="M310,299.7c-3.8,4.3-8.6,6.7-14.2,7.4v1.8v7.3c0,1,0.4,1.9,1.1,2.6c0.7,0.7,1.6,1.1,2.6,1.1h2v4.8h-16v-4.8
		h2c1,0,1.9-0.4,2.6-1.1c0.7-0.7,1.1-1.6,1.1-2.6v-45.4c0-1-0.4-1.9-1.1-2.6c-0.7-0.7-1.6-1.1-2.6-1.1h-2v-4.8h8.7
		c6,0,11.1,2.2,15.3,6.6c4.2,4.4,6.3,9.7,6.3,15.8C315.7,290.5,313.8,295.4,310,299.7z M306.6,273.1c-2.9-3.3-6.5-5.3-10.8-5.9v34.9
		c4.3-0.6,7.8-2.5,10.8-5.9c2.9-3.3,4.4-7.2,4.4-11.6S309.5,276.4,306.6,273.1z"/>
	<path fill="#FFFFFF" d="M332,324.5v-4.8c1-0.1,1.7-0.4,2.1-0.8c0.4-0.4,0.6-1,0.6-1.6c0-0.2,0-0.5-0.1-0.8
		c-0.1-0.3-0.1-0.5-0.3-0.8c-0.1-0.3-0.3-0.6-0.4-0.8c-0.1-0.3-0.3-0.5-0.5-0.8c-0.9-1.3-1.8-2.6-2.7-3.9c-0.9-1.3-1.7-2.6-2.5-3.9
		c-0.5,0.2-1.1,0.3-1.6,0.4c-0.6,0.1-1.2,0.2-1.8,0.3v1.8v7.3c0,1,0.4,1.9,1.1,2.6c0.7,0.7,1.6,1.1,2.5,1.1h2v4.8h-16v-4.8h1.9
		c1,0,1.9-0.4,2.6-1.1c0.7-0.7,1.1-1.6,1.1-2.6v-45.4c0-1-0.4-1.9-1.1-2.6c-0.7-0.7-1.6-1.1-2.6-1.1h-1.9v-4.8h8.6
		c6,0,11.2,2.2,15.4,6.6c4.2,4.4,6.3,9.7,6.3,15.8c0,4.3-1.1,8.2-3.3,11.7c-2.2,3.5-5.1,6.2-8.7,8.1c0.5,0.8,1,1.7,1.6,2.7
		c0.6,0.9,1.3,1.9,2,2.8c0.8,1.2,1.7,2.3,2.7,3.5c0.9,1.2,1.9,2.2,2.8,3.1c1,0.9,2,1.7,2.9,2.3c0.9,0.6,1.9,0.8,2.7,0.8h1.5h0.4v4.8
		H332z M335.6,273.1c-2.9-3.3-6.5-5.3-10.9-5.9v34.9c4.3-0.6,7.9-2.5,10.9-5.9c2.9-3.3,4.4-7.2,4.4-11.6S338.6,276.4,335.6,273.1z"
		/>
	<path fill="#FFFFFF" d="M400.6,315.4c-6.1,6.1-13.4,9.1-22.1,9.1c-8.6,0-15.9-3-22-9.1c-6.1-6.1-9.1-13.4-9.1-22c0-8.6,3-16,9.1-22
		c6.1-6.1,13.4-9.1,22-9.1c8.6,0,16,3,22.1,9.1c6.1,6.1,9.1,13.4,9.1,22C409.7,302,406.7,309.3,400.6,315.4z M397.1,274.8
		c-5.1-5.1-11.3-7.7-18.6-7.7c-7.2,0-13.4,2.6-18.6,7.7c-5.2,5.1-7.8,11.3-7.8,18.6c0,7.2,2.6,13.4,7.8,18.6
		c5.2,5.2,11.4,7.8,18.6,7.8c7.3,0,13.5-2.6,18.6-7.8c5.1-5.2,7.7-11.4,7.7-18.6C404.8,286.1,402.3,279.9,397.1,274.8z"/>
	<path fill="#FFFFFF" d="M436.7,270.7v-3.6h-15.2V279h11.2v4.8h-11.2v32.4c0,0.9,0.4,1.8,1.1,2.5c0.7,0.7,1.6,1.1,2.5,1.1h0.6h1.4
		v4.8h-16v-4.8h1.9h0.1c0.9,0,1.7-0.3,2.3-0.9c0.7-0.6,1.1-1.4,1.2-2.3v-32.8H411V279h5.7v-8.2c0-1-0.4-1.9-1.1-2.6
		c-0.7-0.7-1.6-1.1-2.6-1.1h-2v-4.8h30.3v8.4H436.7z"/>
	<path fill="#FFFFFF" d="M443.4,324.5v-4.8h2c1,0,1.9-0.4,2.6-1.1c0.7-0.7,1.1-1.6,1.1-2.6v-45.4c0-1-0.4-1.9-1.1-2.6
		c-0.7-0.7-1.6-1.1-2.6-1.1h-2v-4.8h16v4.8h-2c-1,0-1.9,0.4-2.6,1.1c-0.7,0.7-1.1,1.6-1.1,2.6v45.4c0,1,0.4,1.9,1.1,2.6
		c0.7,0.7,1.6,1.1,2.6,1.1h2v4.8H443.4z"/>
	<path fill="#FFFFFF" d="M462.6,324.5v-4.8h2c1,0,1.8-0.4,2.5-1.1c0.7-0.7,1-1.5,1.1-2.5v-45.5c0-1-0.4-1.9-1.1-2.6
		c-0.7-0.7-1.6-1.1-2.6-1.1h-2v-4.8h16v4.8h-2c-1,0-1.9,0.4-2.6,1.1c-0.7,0.7-1.1,1.6-1.1,2.6v49h11.5c1-0.1,1.8-0.4,2.5-1.1
		c0.7-0.7,1-1.5,1-2.4v-0.1v-2h4.8v10.4H462.6z"/>
	<path fill="#FFFFFF" d="M496.1,324.5v-4.8h2c1,0,1.8-0.4,2.5-1.1c0.7-0.7,1-1.5,1.1-2.5v-32.4H496V279h5.7v-8.3
		c-0.1-1-0.4-1.8-1.1-2.5c-0.7-0.7-1.5-1-2.5-1h-2v-4.8h30.3v10.3h-4.8v-1.9v-0.1c-0.1-1-0.4-1.8-1.1-2.5c-0.7-0.7-1.5-1-2.5-1
		h-11.5V279h11.2v4.8h-11.2v36h11.6c0.9-0.1,1.8-0.4,2.4-1.1c0.7-0.7,1-1.5,1.1-2.4v-0.1v-2h4.8v10.4H496.1z"/>
</g>
<rect x="145.8" y="372.8" fill="#3D4F29" stroke="#FFFFFF" stroke-width="9" stroke-miterlimit="10" width="147.3" height="106.1"/>
<rect x="318.8" y="372.8" fill="#136AB4" stroke="#FFFFFF" stroke-width="9" stroke-miterlimit="10" width="147.3" height="106.1"/>
<rect x="145.8" y="498.1" fill="#E55025" stroke="#FFFFFF" stroke-width="9" stroke-miterlimit="10" width="147.3" height="106.1"/>
<rect x="318.8" y="498.1" fill="#DDE222" stroke="#FFFFFF" stroke-width="9" stroke-miterlimit="10" width="147.3" height="106.1"/>
</svg>
