<?xml version="1.0" encoding="utf-8"?>
<!-- Generator: Adobe Illustrator 17.1.0, SVG Export Plug-In . SVG Version: 6.00 Build 0)  -->
<!DOCTYPE svg PUBLIC "-//W3C//DTD SVG 1.1//EN" "http://www.w3.org/Graphics/SVG/1.1/DTD/svg11.dtd">
<svg version="1.1" id="Layer_1" xmlns="http://www.w3.org/2000/svg" xmlns:xlink="http://www.w3.org/1999/xlink" x="0px" y="0px"
	 viewBox="0 0 612 792" enable-background="new 0 0 612 792" xml:space="preserve">
<circle stroke="#3D4F29" stroke-width="16" stroke-miterlimit="10" cx="306" cy="396" r="297.3"/>
<g enable-background="new    ">
	<path fill="#FFFFFF" d="M205.6,262.4c-9.5,3.8-19.3,5.8-29.2,5.9c-0.2,0-0.4,0-0.5,0s-0.4,0-0.5,0c-10.3,0-20.5-2-30.4-6
		c-9.9-4-18.7-10-26.5-17.8c-0.1-0.2-0.3-0.3-0.4-0.5c-0.2-0.1-0.3-0.3-0.4-0.5c-0.2-0.1-0.3-0.3-0.5-0.4c-0.1-0.2-0.3-0.3-0.4-0.4
		c-0.6-0.6-1.2-1.2-1.7-1.9c-0.6-0.6-1.1-1.4-1.6-2.1l4.2-2.5c1.4,2.2,3.2,4,5.4,5.2c2.2,1.2,4.6,1.9,7,1.9c0.3,0,0.6,0,0.8,0
		s0.5,0,0.8-0.1c1.1-0.1,2.1-0.4,3.2-0.7c1.1-0.4,2.1-0.9,3-1.5c2.1-1.4,3.7-3.1,4.9-5.3c1.2-2.2,1.7-4.5,1.7-6.8
		c0-0.8,0-1.5-0.1-2.3c-0.1-0.7-0.3-1.5-0.6-2.2c-0.7-2.1-1.8-4-3.4-5.9c-1.5-1.8-3.2-3.6-4.9-5.3c-0.1-0.1-0.3-0.3-0.4-0.4
		c-0.1-0.1-0.3-0.3-0.4-0.4c-0.5-0.5-0.9-0.9-1.4-1.4c-0.5-0.5-0.9-0.9-1.3-1.4c-1.8-1.9-3.3-3.8-4.5-5.8c-1.2-2-1.8-4-1.8-6.3
		c0-0.4,0-0.7,0.1-1.1c0.1-0.4,0.1-0.8,0.2-1.2c0.5-2.6,1.8-4.7,3.9-6.3c2-1.6,4.3-2.4,6.8-2.4c0.4,0,0.8,0,1.2,0
		c0.4,0,0.7,0.1,1.1,0.2c0.5,0.1,0.9,0.2,1.3,0.4c0.4,0.2,0.8,0.4,1.2,0.5v-1.1h4.9V197h-4.9v-3.4c-0.6-0.8-1.3-1.4-2.1-1.8
		c-0.8-0.4-1.7-0.5-2.6-0.5c-1.3,0-2.5,0.4-3.7,1.2c-1.2,0.8-1.9,2-2.2,3.5c0,0.1,0,0.2,0,0.3c0,0.1,0,0.2,0,0.3c0,0.1,0,0.2,0,0.3
		c0,0.1,0,0.2,0,0.3c0,1.9,0.8,3.8,2.3,5.7c1.5,1.9,3.3,3.9,5.3,5.9c0.2,0.1,0.3,0.3,0.5,0.4c0.1,0.2,0.3,0.3,0.4,0.4
		c1.8,1.9,3.6,3.9,5.3,6c1.7,2.1,3,4.4,3.9,7c0.2,0.5,0.3,1,0.4,1.5c0.1,0.5,0.2,1,0.4,1.5c0.1,0.5,0.1,1,0.1,1.6c0,0.5,0,1,0,1.5
		c0,3.1-0.8,6.2-2.3,9.1c-1.5,2.9-3.6,5.3-6.4,7c-1.3,0.8-2.7,1.5-4.1,2c-1.4,0.5-2.8,0.8-4.3,1c-0.4,0-0.7,0-1.1,0
		c-0.4,0-0.7,0-1.1,0c-0.1,0-0.1,0-0.2,0c-0.1,0-0.1,0-0.1,0c0,0-0.1,0-0.1,0c6.5,5,13.6,8.8,21.2,11.4c7.7,2.6,15.4,4,23.3,4.2
		c0.2,0,0.5,0,0.7,0c0.2,0,0.5,0,0.7,0c9.5,0,18.8-1.8,27.9-5.5c9.1-3.6,17.3-9,24.5-16.2l3.4,3.5
		C223.7,252.9,215.1,258.6,205.6,262.4z"/>
	<path fill="#FFFFFF" d="M174.1,248.8V244h1.9c1,0,1.9-0.4,2.6-1.1c0.7-0.7,1.1-1.6,1.1-2.6v-6.6h-18.7v6.6c0,1,0.4,1.9,1.1,2.6
		c0.7,0.7,1.6,1.1,2.6,1.1h2v4.8h-16V244h2c1,0,1.8-0.4,2.5-1.1c0.7-0.7,1-1.5,1.1-2.5v-6.7h-3.9v-4.8h3.9v-19.1
		c0-5.2,1.3-9.8,3.8-13.8c2.5-4,6-7.3,10.3-9.9c4.4,2.6,7.8,5.9,10.4,9.8c2.5,4,3.8,8.6,3.8,13.8v30.7c0.1,0.9,0.4,1.8,1.2,2.5
		c0.7,0.7,1.5,1.1,2.5,1.1h2v4.8H174.1z M179.6,209.8c0-3.6-0.8-7-2.5-10.2c-1.7-3.2-4-5.8-6.9-7.8c-2.9,2-5.2,4.6-6.8,7.8
		c-1.7,3.2-2.5,6.6-2.5,10.2v19.1h18.7V209.8z"/>
	<path fill="#FFFFFF" d="M220.2,191.4c-0.9,0-1.8,0.4-2.5,1.1c-0.7,0.7-1.1,1.6-1.1,2.6v31.4c0,4.7-1.2,9-3.5,13.1s-5.5,7.3-9.5,9.7
		l-1.2,0.9l-1.2-0.8c-4-2.4-7.1-5.7-9.4-9.8c-2.3-4.1-3.5-8.5-3.5-13.1V195c0-1-0.4-1.9-1.1-2.6c-0.7-0.7-1.6-1.1-2.6-1.1h-2v-4.8
		h10.4v39.8c0,3.6,0.8,7,2.5,10.2c1.7,3.2,3.9,5.8,6.8,7.8c3-2.1,5.3-4.7,6.9-7.8c1.7-3.2,2.5-6.5,2.5-10.2v-39.8h10.4v4.8H220.2z"
		/>
	<path fill="#FFFFFF" d="M224.3,248.8V244h2c1,0,1.8-0.4,2.5-1.1c0.7-0.7,1-1.5,1.1-2.5V208h-5.7v-4.8h5.7v-8.3
		c-0.1-1-0.4-1.8-1.1-2.5c-0.7-0.7-1.5-1-2.5-1h-2v-4.8h30.3v10.3h-4.8V195v-0.1c-0.1-1-0.4-1.8-1.1-2.5c-0.7-0.7-1.5-1-2.5-1h-11.5
		v11.9h11.2v4.8h-11.2v36h11.6c0.9-0.1,1.8-0.4,2.4-1.1c0.7-0.7,1-1.5,1.1-2.4v-0.1v-2h4.8v10.4H224.3z"/>
</g>
<g enable-background="new    ">
	<path fill="#FFFFFF" d="M326.6,191.4c-0.9,0-1.8,0.4-2.5,1.1c-0.7,0.7-1.1,1.6-1.1,2.6v18.5c0,4.4-1,8.6-3.1,12.5
		c-2.1,3.9-5,7.1-8.6,9.6v4.7c0,1,0.4,1.9,1.1,2.6c0.7,0.7,1.6,1.1,2.5,1.1h2v4.8h-15.9V244h1.9c1,0,1.9-0.4,2.6-1.1
		c0.7-0.7,1.1-1.6,1.1-2.6v-4.8c-3.6-2.4-6.5-5.6-8.6-9.5c-2.1-3.9-3.1-8.1-3.1-12.5V195c0-1-0.4-1.9-1.1-2.6
		c-0.7-0.7-1.6-1.1-2.6-1.1h-2v-4.8h10.4v27c0,3.5,0.8,6.9,2.5,10.1c1.7,3.2,3.9,5.8,6.8,7.9c3-2.1,5.3-4.7,6.9-7.8
		c1.7-3.2,2.5-6.5,2.5-10.2v-27h10.4v4.8H326.6z"/>
	<path fill="#FFFFFF" d="M379.7,239.7c-6.1,6.1-13.4,9.1-22.1,9.1c-8.6,0-15.9-3-22-9.1c-6.1-6.1-9.1-13.4-9.1-22c0-8.6,3-16,9.1-22
		c6.1-6.1,13.4-9.1,22-9.1c8.6,0,16,3,22.1,9.1c6.1,6.1,9.1,13.4,9.1,22C388.9,226.3,385.8,233.6,379.7,239.7z M376.3,199.1
		c-5.1-5.1-11.3-7.7-18.6-7.7c-7.2,0-13.4,2.6-18.6,7.7c-5.2,5.1-7.8,11.3-7.8,18.6c0,7.2,2.6,13.4,7.8,18.6
		c5.2,5.2,11.4,7.8,18.6,7.8c7.3,0,13.5-2.6,18.6-7.8c5.1-5.2,7.7-11.4,7.7-18.6C384,210.4,381.4,204.2,376.3,199.1z"/>
	<path fill="#FFFFFF" d="M423.7,191.4c-1,0-1.9,0.3-2.6,1c-0.7,0.7-1.1,1.5-1.1,2.5V235c0,3.8-1.3,7-4,9.8c-2.7,2.7-6,4.1-9.8,4.1
		c-3.8,0-7-1.4-9.8-4.1c-2.7-2.7-4.1-6-4.1-9.8v-40c0-1-0.3-1.9-1-2.6c-0.7-0.7-1.5-1.1-2.5-1.1h-0.1h-1.9v-4.8h10.4V235
		c0,2.5,0.9,4.6,2.7,6.4c1.8,1.8,3.9,2.7,6.4,2.7c2.4,0,4.5-0.9,6.3-2.7c1.8-1.8,2.7-3.9,2.7-6.4v-48.4h10.3v4.8H423.7z"/>
	<path fill="#FFFFFF" d="M445.1,248.8V244c1-0.1,1.7-0.4,2.1-0.8c0.4-0.4,0.6-1,0.6-1.6c0-0.2,0-0.5-0.1-0.8
		c-0.1-0.3-0.1-0.5-0.3-0.8c-0.1-0.3-0.3-0.6-0.4-0.8c-0.1-0.3-0.3-0.5-0.5-0.8c-0.9-1.3-1.8-2.6-2.7-3.9c-0.9-1.3-1.7-2.6-2.5-3.9
		c-0.5,0.2-1.1,0.3-1.6,0.4c-0.6,0.1-1.2,0.2-1.8,0.3v1.8v7.3c0,1,0.4,1.9,1.1,2.6c0.7,0.7,1.6,1.1,2.5,1.1h2v4.8h-16V244h1.9
		c1,0,1.9-0.4,2.6-1.1c0.7-0.7,1.1-1.6,1.1-2.6V195c0-1-0.4-1.9-1.1-2.6c-0.7-0.7-1.6-1.1-2.6-1.1h-1.9v-4.8h8.6
		c6,0,11.2,2.2,15.4,6.6c4.2,4.4,6.3,9.7,6.3,15.8c0,4.3-1.1,8.2-3.3,11.7c-2.2,3.5-5.1,6.2-8.7,8.1c0.5,0.8,1,1.7,1.6,2.7
		c0.6,0.9,1.3,1.9,2,2.8c0.8,1.2,1.7,2.3,2.7,3.5c0.9,1.2,1.9,2.2,2.8,3.1c1,0.9,2,1.7,2.9,2.3c0.9,0.6,1.9,0.8,2.7,0.8h1.5h0.4v4.8
		H445.1z M448.7,197.4c-2.9-3.3-6.5-5.3-10.9-5.9v34.9c4.3-0.6,7.9-2.5,10.9-5.9c2.9-3.3,4.4-7.2,4.4-11.6S451.7,200.7,448.7,197.4z
		"/>
</g>
<g enable-background="new    ">
	<path fill="#FFFFFF" d="M147.7,282.3v-3.6h-15.2v11.9h11.2v4.8h-11.2v32.4c0,0.9,0.4,1.8,1.1,2.5c0.7,0.7,1.6,1.1,2.5,1.1h0.6h1.4
		v4.8h-16v-4.8h1.9h0.1c0.9,0,1.7-0.3,2.3-0.9c0.7-0.6,1.1-1.4,1.2-2.3v-32.8h-5.7v-4.8h5.7v-8.2c0-1-0.4-1.9-1.1-2.6
		c-0.7-0.7-1.6-1.1-2.6-1.1h-2v-4.8h30.3v8.4H147.7z"/>
	<path fill="#FFFFFF" d="M168.8,336.1v-4.8h1.9c1,0,1.9-0.4,2.6-1.1c0.7-0.7,1.1-1.6,1.1-2.6V321h-18.7v6.6c0,1,0.4,1.9,1.1,2.6
		c0.7,0.7,1.6,1.1,2.6,1.1h2v4.8h-16v-4.8h2c1,0,1.8-0.4,2.5-1.1c0.7-0.7,1-1.5,1.1-2.5V321h-3.9v-4.8h3.9v-19.1
		c0-5.2,1.3-9.8,3.8-13.8c2.5-4,6-7.3,10.3-9.9c4.4,2.6,7.8,5.9,10.4,9.8c2.5,4,3.8,8.6,3.8,13.8v30.7c0.1,0.9,0.4,1.8,1.2,2.5
		c0.7,0.7,1.5,1.1,2.5,1.1h2v4.8H168.8z M174.3,297.1c0-3.6-0.8-7-2.5-10.2c-1.7-3.2-4-5.8-6.9-7.8c-2.9,2-5.2,4.6-6.8,7.8
		c-1.7,3.2-2.5,6.6-2.5,10.2v19.1h18.7V297.1z"/>
	<path fill="#FFFFFF" d="M214.9,278.7c-0.9,0-1.8,0.4-2.5,1.1c-0.7,0.7-1.1,1.6-1.1,2.6v31.4c0,4.7-1.2,9-3.5,13.1s-5.5,7.3-9.5,9.7
		l-1.2,0.9l-1.2-0.8c-4-2.4-7.1-5.7-9.4-9.8c-2.3-4.1-3.5-8.5-3.5-13.1v-31.4c0-1-0.4-1.9-1.1-2.6c-0.7-0.7-1.6-1.1-2.6-1.1h-2v-4.8
		h10.4v39.8c0,3.6,0.8,7,2.5,10.2c1.7,3.2,3.9,5.8,6.8,7.8c3-2.1,5.3-4.7,6.9-7.8c1.7-3.2,2.5-6.5,2.5-10.2v-39.8h10.4v4.8H214.9z"
		/>
	<path fill="#FFFFFF" d="M268.3,327c-6.1,6.1-13.4,9.1-22.1,9.1c-8.6,0-15.9-3-22-9.1c-6.1-6.1-9.1-13.4-9.1-22c0-8.6,3-16,9.1-22
		c6.1-6.1,13.4-9.1,22-9.1c8.6,0,16,3,22.1,9.1c6.1,6.1,9.1,13.4,9.1,22C277.5,313.6,274.4,320.9,268.3,327z M264.9,286.4
		c-5.1-5.1-11.3-7.7-18.6-7.7c-7.2,0-13.4,2.6-18.6,7.7c-5.2,5.1-7.8,11.3-7.8,18.6c0,7.2,2.6,13.4,7.8,18.6
		c5.2,5.2,11.4,7.8,18.6,7.8c7.3,0,13.5-2.6,18.6-7.8c5.1-5.2,7.7-11.4,7.7-18.6C272.6,297.7,270,291.5,264.9,286.4z"/>
	<path fill="#FFFFFF" d="M312.3,278.7c-1,0-1.9,0.3-2.6,1c-0.7,0.7-1.1,1.5-1.1,2.5v40.1c0,3.8-1.3,7-4,9.8c-2.7,2.7-6,4.1-9.8,4.1
		c-3.8,0-7-1.4-9.8-4.1c-2.7-2.7-4.1-6-4.1-9.8v-40c0-1-0.3-1.9-1-2.6c-0.7-0.7-1.5-1.1-2.5-1.1h-0.1h-1.9v-4.8h10.4v48.4
		c0,2.5,0.9,4.6,2.7,6.4c1.8,1.8,3.9,2.7,6.4,2.7c2.4,0,4.5-0.9,6.3-2.7c1.8-1.8,2.7-3.9,2.7-6.4v-48.4h10.3v4.8H312.3z"/>
	<path fill="#FFFFFF" d="M429.3,352.3c-9.5,3.8-19.3,5.8-29.2,5.9c-0.2,0-0.4,0-0.5,0s-0.4,0-0.5,0c-0.2,0-0.4,0-0.5,0
		c-0.2,0-0.4,0-0.5,0c-9.9-0.1-19.6-2.1-29.1-6c-9.5-3.9-18-9.5-25.5-17c-2.5-2.6-4.9-5.4-7.1-8.3c-2.2-2.9-4.2-6-6-9.2
		c-0.2,0.1-0.4,0.1-0.6,0.2c-0.2,0.1-0.4,0.1-0.7,0.1c-0.4,0.1-0.8,0.2-1.2,0.3c-0.4,0.1-0.8,0.1-1.3,0.2v1.8v7.3
		c0,0.9,0.4,1.8,1.1,2.5c0.7,0.7,1.6,1.1,2.5,1.1h2v4.8h-16v-4.8h2c1,0,1.9-0.4,2.6-1.1c0.7-0.7,1.1-1.6,1.1-2.5v-45.3
		c0-1-0.4-1.9-1.1-2.6c-0.7-0.7-1.6-1.1-2.6-1.1h-2v-4.8h8.6c6,0,11.1,2.2,15.3,6.7c4.2,4.5,6.3,9.7,6.3,15.7
		c0,4.3-1.1,8.1-3.3,11.6c-2.2,3.5-5,6.2-8.5,8.1c1.7,2.9,3.5,5.7,5.5,8.4c2,2.7,4.2,5.2,6.6,7.6c7.2,7.2,15.4,12.5,24.6,16.1
		c9.2,3.6,18.5,5.4,28,5.4c0.2,0,0.4,0,0.5,0c0.2,0,0.4,0,0.5,0c9.3-0.2,18.4-2.1,27.3-5.7c8.9-3.6,16.9-8.9,23.9-15.9l3.4,3.4
		C447.4,342.7,438.8,348.4,429.3,352.3z M337.3,284.6c-2.9-3.3-6.5-5.3-10.8-5.9v34.9c4.3-0.6,7.9-2.6,10.8-5.9
		c2.9-3.3,4.3-7.1,4.3-11.6C341.7,291.8,340.2,287.9,337.3,284.6z"/>
	<path fill="#FFFFFF" d="M346.1,336.1v-4.8h2c1,0,1.9-0.4,2.6-1.1c0.7-0.7,1.1-1.6,1.1-2.6v-45.4c0-1-0.4-1.9-1.1-2.6
		c-0.7-0.7-1.6-1.1-2.6-1.1h-2v-4.8h16v4.8h-2c-1,0-1.9,0.4-2.6,1.1c-0.7,0.7-1.1,1.6-1.1,2.6v45.4c0,1,0.4,1.9,1.1,2.6
		c0.7,0.7,1.6,1.1,2.6,1.1h2v4.8H346.1z"/>
	<path fill="#FFFFFF" d="M386.3,284.2v-1.9c0-1-0.4-1.9-1.1-2.6c-0.7-0.7-1.6-1.1-2.6-1.1h-2.1v49c0,1,0.4,1.9,1.1,2.6
		c0.7,0.7,1.6,1.1,2.6,1.1h2v4.8h-16v-4.8h1.9c1,0,1.9-0.4,2.6-1.1c0.7-0.7,1.1-1.6,1.1-2.6v-49h-2c-1,0-1.9,0.4-2.6,1.1
		c-0.7,0.7-1.1,1.6-1.1,2.6v1.9h-4.8v-10.3h25.9v10.3H386.3z"/>
	<path fill="#FFFFFF" d="M393.3,336.1v-4.8h2c1,0,1.8-0.4,2.5-1.1c0.7-0.7,1-1.5,1.1-2.5v-32.4h-5.7v-4.8h5.7v-8.3
		c-0.1-1-0.4-1.8-1.1-2.5c-0.7-0.7-1.5-1-2.5-1h-2v-4.8h30.3v10.3h-4.8v-1.9v-0.1c-0.1-1-0.4-1.8-1.1-2.5c-0.7-0.7-1.5-1-2.5-1
		h-11.5v11.9h11.2v4.8h-11.2v36h11.6c0.9-0.1,1.8-0.4,2.4-1.1c0.7-0.7,1-1.5,1.1-2.4v-0.1v-2h4.8v10.4H393.3z"/>
	<path fill="#FFFFFF" d="M454.3,330.5c-3.8,3.8-8.3,5.6-13.6,5.6c-1.7,0-3.4-0.2-5.1-0.7c-1.7-0.5-3.3-1.1-4.7-2v2.7h-4.8v-13.8h4.8
		v1.6v1.9c0,1.4,0.6,2.4,1.8,3.2c1.2,0.8,2.5,1.4,3.8,1.7c0.8,0.2,1.6,0.4,2.3,0.5c0.7,0.1,1.4,0.1,1.9,0.1c4,0,7.4-1.4,10.2-4.3
		s4.3-6.2,4.3-10.2c0-3.7-1.2-6.8-3.6-9.2c-2.4-2.4-5-4.6-7.9-6.6c-0.3-0.2-0.6-0.4-0.9-0.6c-0.3-0.2-0.6-0.4-0.9-0.6
		c-0.4-0.2-0.8-0.5-1.2-0.8c-0.4-0.3-0.8-0.5-1.1-0.8c-2.7-1.9-5.1-3.9-7-5.9c-2-2-2.9-4.6-2.9-7.7c0-3.1,1.1-5.7,3.4-7.8
		c2.2-2.1,4.8-3.1,7.6-3c0.6,0,1.3,0.1,2,0.2c0.6,0.1,1.3,0.3,1.9,0.5v-0.9h4.8v10.6h-4.8c0-0.3,0-0.6,0-0.9c0-0.3,0-0.7,0-1
		c0-1.2-0.4-2.1-1.2-2.7s-1.8-0.9-2.9-0.9c-0.1,0-0.1,0-0.2,0c-0.1,0-0.1,0-0.2,0c-1.4,0.1-2.7,0.7-3.9,1.8
		c-1.2,1.1-1.7,2.5-1.7,4.2c0,1.8,0.7,3.5,2.2,5c1.4,1.5,3.2,2.9,5.2,4.3c0.5,0.3,0.9,0.6,1.4,0.9c0.4,0.3,0.9,0.6,1.4,0.9
		c0.3,0.2,0.6,0.4,0.9,0.6c0.3,0.2,0.6,0.4,0.9,0.6c3.4,2.3,6.6,5,9.4,8c2.8,3,4.3,7,4.3,11.9C460,322.2,458.1,326.7,454.3,330.5z"
		/>
</g>
<rect x="216.6" y="402.9" fill="#47592F" stroke="#93A1A1" stroke-width="9" stroke-miterlimit="10" width="178.9" height="169.1"/>
<g>
	<path fill="#FFFFFF" d="M255.1,439.4c1.2,2,2.2,4,3.4,6c1.1,2,2.2,4,3.3,6l6.6,12.1l6.5,12.1c2.2,4,4.3,8,6.4,12.1
		c2.2,4,4.2,8.1,6.3,12.1s4.2,8.1,6.3,12.2c2.1,4.1,4.2,8.1,6.2,12.2l6.2,12.3l-8.3-0.2c1.3-2.5,2.6-4.9,3.9-7.3
		c1.3-2.4,2.7-4.8,4.2-7.1c2.9-4.7,5.8-9.3,8.8-13.8s6.2-9,9.4-13.4c3.2-4.4,6.6-8.7,10-13c3.5-4.2,7-8.4,10.6-12.5
		c3.6-4.1,7.4-8.1,11.2-12.1c3.9-3.9,7.8-7.7,11.8-11.4c4-3.7,8.2-7.3,12.4-10.7c4.2-3.5,8.7-6.8,13.1-10c4.5-3.2,9-6.3,13.8-9.1
		c4.6-2.9,9.4-5.6,14.4-8.1c2.4-1.3,4.9-2.5,7.4-3.6c1.2-0.6,2.5-1.2,3.8-1.7c1.2-0.5,2.5-1.1,3.8-1.6c5-2.2,10.2-4,15.5-5.6
		c5.3-1.7,10.5-3,15.8-4.2c5.3-1.2,10.7-2,16.2-2.6l4.1-0.4c1.4-0.2,2.7-0.2,4.1-0.2c2.7-0.2,5.4-0.2,8.1-0.2
		c-5.3,0.9-10.7,1.9-15.9,3c-5.3,1.2-10.4,2.6-15.5,4.3c-5.1,1.6-10.1,3.5-15,5.6c-4.9,2-9.7,4.2-14.5,6.6c-4.7,2.4-9.4,4.9-14,7.6
		c-4.6,2.7-9,5.6-13.4,8.6c-4.3,3-8.7,6.1-12.8,9.4c-4.2,3.2-8.3,6.6-12.3,10.1s-7.9,7-11.7,10.7c-3.9,3.6-7.6,7.4-11.3,11.3
		c-3.7,3.8-7.3,7.7-10.8,11.7c-3.5,4-7,8-10.4,12.1s-6.6,8.3-9.9,12.6c-3.2,4.2-6.3,8.6-9.4,12.9c-3.1,4.3-6,8.7-9,13.2
		c-1.5,2.2-2.9,4.5-4.2,6.7c-1.4,2.2-2.8,4.6-4,6.8l-4.6,8.2l-3.7-8.3l-5.6-12.5c-1.9-4.2-3.7-8.3-5.6-12.5
		c-1.9-4.2-3.6-8.3-5.5-12.6c-1.8-4.2-3.6-8.4-5.4-12.6c-1.8-4.2-3.6-8.4-5.3-12.7l-5.3-12.7l-5.2-12.8c-0.9-2.1-1.7-4.2-2.5-6.4
		C256.7,443.7,255.8,441.5,255.1,439.4z"/>
</g>
</svg>
