<?xml version="1.0" encoding="utf-8"?>
<!-- Generator: Adobe Illustrator 17.1.0, SVG Export Plug-In . SVG Version: 6.00 Build 0)  -->
<!DOCTYPE svg PUBLIC "-//W3C//DTD SVG 1.1//EN" "http://www.w3.org/Graphics/SVG/1.1/DTD/svg11.dtd">
<svg version="1.1" id="Layer_1" xmlns="http://www.w3.org/2000/svg" xmlns:xlink="http://www.w3.org/1999/xlink" x="0px" y="0px"
	 viewBox="0 0 576 576" enable-background="new 0 0 576 576" xml:space="preserve">
<circle stroke="#C46F28" stroke-width="20.2183" stroke-miterlimit="10" cx="288" cy="288" r="273.2"/>
<g enable-background="new    ">
	<path fill="#FFFFFF" d="M191.5,163.8c-8.7,3.5-17.7,5.3-26.8,5.4c-0.1,0-0.4,0-0.5,0c-0.1,0-0.4,0-0.5,0c-9.5,0-18.8-1.9-27.9-5.6
		c-9.1-3.7-17.2-9.2-24.4-16.3c-0.1-0.1-0.3-0.3-0.4-0.5c-0.1-0.1-0.3-0.3-0.4-0.5c-0.1-0.1-0.3-0.3-0.5-0.4
		c-0.1-0.1-0.3-0.3-0.4-0.4c-0.5-0.5-1.1-1.1-1.5-1.8c-0.5-0.5-1-1.3-1.5-1.9l3.9-2.3c1.3,2,2.9,3.7,4.9,4.8c2,1.1,4.2,1.8,6.4,1.8
		c0.3,0,0.5,0,0.8,0c0.3,0,0.5,0,0.8-0.1c1-0.1,1.9-0.4,2.9-0.6c1-0.4,1.9-0.9,2.8-1.4c1.9-1.3,3.4-2.9,4.5-4.9
		c1.1-2,1.5-4.2,1.5-6.2c0-0.8,0-1.4-0.1-2.1c-0.1-0.6-0.3-1.4-0.5-2c-0.6-1.9-1.6-3.7-3.2-5.4c-1.4-1.6-2.9-3.3-4.5-4.9
		c-0.1-0.1-0.3-0.3-0.4-0.4s-0.3-0.3-0.4-0.4c-0.5-0.5-0.9-0.9-1.3-1.3c-0.5-0.5-0.9-0.9-1.1-1.3c-1.6-1.8-3-3.5-4.2-5.3
		s-1.6-3.7-1.6-5.8c0-0.4,0-0.6,0.1-1s0.1-0.8,0.1-1.1c0.5-2.4,1.6-4.3,3.5-5.8c1.9-1.5,3.9-2.1,6.2-2.1c0.4,0,0.8,0,1.1,0
		c0.4,0,0.6,0.1,1,0.1c0.5,0.1,0.9,0.1,1.1,0.4c0.4,0.1,0.8,0.4,1.1,0.5v-1h4.5v9.6h-4.3v-3.2c-0.5-0.8-1.1-1.3-1.9-1.6
		s-1.5-0.5-2.4-0.5c-1.1,0-2.3,0.4-3.4,1.1c-1.1,0.8-1.8,1.9-2,3.2c0,0.1,0,0.1,0,0.3c0,0.1,0,0.1,0,0.3c0,0.1,0,0.1,0,0.3
		c0,0.1,0,0.1,0,0.3c0,1.8,0.8,3.5,2.1,5.2c1.4,1.8,3,3.5,4.9,5.4c0.1,0.1,0.3,0.3,0.5,0.4c0.1,0.1,0.3,0.3,0.4,0.4
		c1.6,1.8,3.3,3.5,4.9,5.6c1.5,1.9,2.8,4,3.5,6.4c0.1,0.5,0.3,0.9,0.4,1.4c0.1,0.5,0.1,0.9,0.4,1.4c0.1,0.5,0.1,0.9,0.1,1.5
		c0,0.5,0,0.9,0,1.4c0,2.9-0.8,5.7-2.1,8.3c-1.4,2.7-3.3,4.9-5.9,6.4c-1.1,0.8-2.5,1.4-3.8,1.9c-1.3,0.5-2.5,0.8-3.9,0.9
		c-0.4,0-0.6,0-1,0s-0.6,0-1,0c-0.1,0-0.1,0-0.1,0h-0.1H122c5.9,4.5,12.5,8.1,19.5,10.5c7.1,2.4,14.2,3.7,21.4,3.9
		c0.1,0,0.5,0,0.6,0s0.5,0,0.6,0c8.7,0,17.3-1.6,25.7-5.1c8.3-3.3,15.9-8.2,22.5-14.9l3.2,3.2C208.1,155.1,200.2,160.4,191.5,163.8z
		"/>
	<path fill="#FFFFFF" d="M158.4,151.4V147h1.9c0.9,0,1.8-0.4,2.4-1c0.6-0.6,1-1.5,1-2.4v-29.8h-14.3v29.8c0,0.9,0.4,1.8,1,2.4
		c0.6,0.6,1.5,1,2.4,1h1.9v4.4H140V147h1.9c0.9,0,1.8-0.4,2.4-1c0.6-0.6,1-1.5,1-2.4v-41.7c0-0.9-0.4-1.8-1-2.4s-1.5-1-2.4-1H140
		v-4.3h14.7v4.4h-1.9c-0.9,0-1.8,0.4-2.4,1s-1,1.5-1,2.4v7.6h14.2V102c0-0.9-0.4-1.8-1-2.4s-1.5-1-2.4-1h-1.9v-4.4h14.7v4.4H171
		c-0.9,0-1.8,0.4-2.4,1s-1,1.5-1,2.4v41.7c0,0.9,0.4,1.8,1,2.4s1.5,1,2.4,1h1.9v4.4L158.4,151.4L158.4,151.4z"/>
	<path fill="#FFFFFF" d="M196.6,151.4V147h1.8c0.9,0,1.8-0.4,2.4-1c0.6-0.6,1-1.5,1-2.4v-6.1h-17.2v6.1c0,0.9,0.4,1.8,1,2.4
		c0.6,0.6,1.5,1,2.4,1h1.9v4.4h-14.7V147h1.9c0.9,0,1.6-0.4,2.3-1c0.6-0.6,0.9-1.4,1-2.3v-6.2h-3.5v-4.4h3.5v-17.6
		c0-4.8,1.1-9,3.5-12.6c2.3-3.7,5.6-6.7,9.5-9.1c4,2.4,7.2,5.4,9.6,9c2.3,3.7,3.5,8,3.5,12.6v28.2c0.1,0.9,0.4,1.6,1.1,2.3
		c0.6,0.6,1.4,1,2.3,1h1.9v4.4h-15.3V151.4z M201.7,115.4c0-3.3-0.8-6.4-2.3-9.4c-1.5-2.9-3.7-5.3-6.3-7.2c-2.7,1.9-4.8,4.2-6.2,7.2
		c-1.5,2.9-2.3,6.1-2.3,9.4V133h17.2v-17.6H201.7z"/>
	<path fill="#FFFFFF" d="M229.1,151.4V147c0.9-0.1,1.5-0.4,1.9-0.8c0.4-0.4,0.5-0.9,0.5-1.5c0-0.1,0-0.5-0.1-0.8
		c-0.1-0.3-0.1-0.5-0.3-0.8c-0.1-0.3-0.3-0.5-0.4-0.8c-0.1-0.3-0.3-0.5-0.5-0.8c-0.9-1.1-1.6-2.4-2.5-3.5c-0.9-1.1-1.5-2.4-2.3-3.5
		c-0.5,0.1-1,0.3-1.5,0.4s-1.1,0.1-1.6,0.3v1.6v6.7c0,0.9,0.4,1.8,1,2.4s1.5,1,2.3,1h1.9v4.4h-14.7V147h1.8c0.9,0,1.8-0.4,2.4-1
		s1-1.5,1-2.4v-41.7c0-0.9-0.4-1.8-1-2.4s-1.5-1-2.4-1h-1.8V94h8c5.6,0,10.2,2,14.2,6.1c3.9,4,5.8,9,5.8,14.5c0,3.9-1,7.6-3,10.7
		c-2,3.2-4.7,5.7-8,7.5c0.5,0.8,0.9,1.5,1.5,2.5c0.5,0.9,1.1,1.8,1.9,2.5c0.8,1.1,1.5,2.1,2.5,3.2c0.9,1.1,1.8,2,2.5,2.9
		c0.9,0.9,1.9,1.5,2.7,2.1c0.9,0.5,1.8,0.8,2.5,0.8h1.4h0.4v4.4L229.1,151.4L229.1,151.4z M232.5,104c-2.7-3-5.9-4.9-10-5.4v32.1
		c3.9-0.5,7.2-2.3,10-5.4c2.7-3,4-6.6,4-10.6C236.6,110.6,235.2,107,232.5,104z"/>
	<path fill="#FFFFFF" d="M247.4,151.4V147h1.9c0.9,0,1.6-0.4,2.3-1c0.6-0.6,0.9-1.4,1-2.3v-29.8h-5.2v-4.4h5.2v-7.6
		c-0.1-0.9-0.4-1.6-1-2.3s-1.4-0.9-2.3-0.9h-1.9v-4.5h27.8v9.5h-4.4v-1.8v-0.1c-0.1-0.9-0.4-1.6-1-2.3c-0.6-0.6-1.4-0.9-2.3-0.9
		h-10.6v11h10.2v4.4h-10.2v33.1h10.6c0.9-0.1,1.6-0.4,2.1-1c0.6-0.6,0.9-1.4,1-2.1v-0.1v-1.9h4.4v9.6L247.4,151.4L247.4,151.4z"/>
</g>
<g enable-background="new    ">
	<path fill="#FFFFFF" d="M335.6,98.5c-0.9,0-1.6,0.4-2.3,1c-0.6,0.6-1,1.5-1,2.4v17.1c0,4-0.9,8-2.9,11.5c-1.9,3.5-4.5,6.6-8,8.8
		v4.3c0,0.9,0.4,1.8,1,2.4c0.6,0.6,1.5,1,2.3,1h1.9v4.4H312V147h1.8c0.9,0,1.8-0.4,2.4-1c0.6-0.6,1-1.5,1-2.4v-4.4
		c-3.3-2.1-5.9-5.2-8-8.7c-1.9-3.5-2.9-7.5-2.9-11.5v-17.1c0-0.9-0.4-1.8-1-2.4c-0.6-0.6-1.5-1-2.4-1H301V94h9.6v24.8
		c0,3.2,0.8,6.3,2.3,9.2c1.5,2.9,3.5,5.3,6.2,7.2c2.8-1.9,4.9-4.3,6.3-7.2c1.5-2.9,2.3-5.9,2.3-9.4V93.9h9.6v4.4h-1.6V98.5z"/>
	<path fill="#FFFFFF" d="M384.5,142.9c-5.6,5.6-12.3,8.3-20.3,8.3c-8,0-14.7-2.8-20.2-8.3c-5.6-5.6-8.3-12.3-8.3-20.2
		s2.8-14.7,8.3-20.2c5.6-5.6,12.3-8.3,20.2-8.3c8,0,14.7,2.8,20.3,8.3c5.6,5.6,8.3,12.3,8.3,20.2
		C392.9,130.5,390.1,137.2,384.5,142.9z M381.3,105.5c-4.7-4.7-10.4-7.1-17.1-7.1c-6.6,0-12.3,2.4-17.1,7.1
		c-4.8,4.7-7.2,10.4-7.2,17.1c0,6.6,2.4,12.3,7.2,17.1c4.8,4.8,10.5,7.2,17.1,7.2c6.7,0,12.4-2.4,17.1-7.2
		c4.7-4.8,7.1-10.5,7.1-17.1S386.1,110.3,381.3,105.5z"/>
	<path fill="#FFFFFF" d="M424.9,98.5c-0.9,0-1.8,0.3-2.4,0.9c-0.6,0.6-1,1.4-1,2.3v36.9c0,3.5-1.1,6.4-3.7,9c-2.5,2.5-5.6,3.8-9,3.8
		c-3.5,0-6.4-1.3-9-3.8c-2.5-2.5-3.8-5.6-3.8-9v-36.8c0-0.9-0.3-1.8-0.9-2.4c-0.6-0.6-1.4-1-2.3-1h-0.1H391V94h9.6v44.5
		c0,2.3,0.9,4.2,2.5,5.9c1.6,1.6,3.5,2.5,5.9,2.5c2.1,0,4.2-0.9,5.8-2.5c1.6-1.6,2.5-3.5,2.5-5.9V94h9.5v4.4H424.9z"/>
	<path fill="#FFFFFF" d="M444.6,151.4V147c0.9-0.1,1.5-0.4,1.9-0.8c0.4-0.4,0.5-0.9,0.5-1.5c0-0.1,0-0.5-0.1-0.8s-0.1-0.5-0.3-0.8
		c-0.1-0.3-0.3-0.5-0.4-0.8c-0.1-0.3-0.3-0.5-0.5-0.8c-0.9-1.1-1.6-2.4-2.5-3.5c-0.9-1.1-1.5-2.4-2.3-3.5c-0.5,0.1-1,0.3-1.5,0.4
		c-0.5,0.1-1.1,0.1-1.6,0.3v1.6v6.7c0,0.9,0.4,1.8,1,2.4c0.6,0.6,1.5,1,2.3,1h1.9v4.4h-14.7V147h1.8c0.9,0,1.8-0.4,2.4-1
		s1-1.5,1-2.4v-41.7c0-0.9-0.4-1.8-1-2.4s-1.5-1-2.4-1h-1.8V94h8c5.6,0,10.2,2,14.2,6.1c3.9,4,5.8,9,5.8,14.5c0,3.9-1,7.6-3,10.7
		c-2,3.2-4.7,5.7-8,7.5c0.5,0.8,0.9,1.5,1.5,2.5c0.5,0.9,1.1,1.8,1.9,2.5c0.8,1.1,1.5,2.1,2.5,3.2c0.9,1.1,1.8,2,2.5,2.9
		c0.9,0.9,1.9,1.5,2.7,2.1c0.9,0.5,1.8,0.8,2.5,0.8h1.4h0.4v4.4L444.6,151.4L444.6,151.4z M447.9,104c-2.7-3-5.9-4.9-10-5.4v32.1
		c3.9-0.5,7.2-2.3,10-5.4c2.7-3,4-6.6,4-10.6C451.9,110.6,450.6,107,447.9,104z"/>
</g>
<g enable-background="new    ">
	<path fill="#FFFFFF" d="M252.5,240.6c-8.7,3.5-17.6,5.3-26.5,5.4c-0.1,0-0.4,0-0.5,0c-0.1,0-0.4,0-0.5,0c-9.5,0-18.8-1.9-27.8-5.4
		c-9.1-3.7-17.2-9-24.4-16.2v-47.1c0-0.9-0.4-1.8-1-2.4s-1.5-1-2.4-1h-1.8v-4.4h8c5.6,0,10.2,2,14.2,6.1c3.9,4,5.8,9,5.8,14.5
		c0,5.2-1.8,9.9-5.3,13.8c-3.5,3.9-8,6.2-13,6.8v11.9c6.6,6.4,14,11.2,22.4,14.4c8.3,3.2,16.7,4.8,25.4,4.8c8.7,0,17.3-1.6,25.7-5.1
		c8.3-3.3,15.9-8.2,22.5-14.9l3.2,3.2C269,231.9,261.2,237.1,252.5,240.6z M187,179.3c-2.7-3-5.9-4.9-10-5.4V206
		c3.9-0.5,7.2-2.3,10-5.4c2.7-3,4-6.6,4-10.6C191.1,185.9,189.7,182.4,187,179.3z"/>
	<path fill="#FFFFFF" d="M212.6,226.6v-4.4h1.9c0.9,0,1.8-0.4,2.4-1s1-1.5,1-2.4v-29.8h-14.3v29.8c0,0.9,0.4,1.8,1,2.4s1.5,1,2.4,1
		h1.9v4.4h-14.7v-4.4h1.9c0.9,0,1.8-0.4,2.4-1s1-1.5,1-2.4v-41.7c0-0.9-0.4-1.8-1-2.4s-1.5-1-2.4-1h-1.9v-4.4h14.7v4.4H207
		c-0.9,0-1.8,0.4-2.4,1s-1,1.5-1,2.4v7.6h14.2v-7.6c0-0.9-0.4-1.8-1-2.4s-1.5-1-2.4-1h-1.9v-4.4h14.7v4.4h-1.9c-0.9,0-1.8,0.4-2.4,1
		s-1,1.5-1,2.4v41.7c0,0.9,0.4,1.8,1,2.4s1.5,1,2.4,1h1.9v4.4H212.6z"/>
	<path fill="#FFFFFF" d="M275,218.1c-5.6,5.6-12.3,8.3-20.3,8.3c-8,0-14.7-2.8-20.2-8.3s-8.3-12.3-8.3-20.2c0-8,2.8-14.7,8.3-20.2
		c5.6-5.6,12.3-8.3,20.2-8.3c8,0,14.7,2.8,20.3,8.3s8.3,12.3,8.3,20.2C283.3,205.9,280.5,212.6,275,218.1z M271.7,180.8
		c-4.7-4.7-10.4-7.1-17.1-7.1c-6.6,0-12.3,2.4-17.1,7.1s-7.2,10.4-7.2,17.1c0,6.6,2.4,12.3,7.2,17.1c4.8,4.8,10.5,7.2,17.1,7.2
		c6.7,0,12.4-2.4,17.1-7.2c4.7-4.8,7.1-10.5,7.1-17.1C278.8,191.3,276.5,185.6,271.7,180.8z"/>
	<path fill="#FFFFFF" d="M299.5,178.8v-1.8c0-0.9-0.4-1.8-1-2.4c-0.6-0.6-1.5-1-2.4-1h-1.9v45c0,0.9,0.4,1.8,1,2.4s1.5,1,2.4,1h1.9
		v4.4h-14.7V222h1.8c0.9,0,1.8-0.4,2.4-1c0.6-0.6,1-1.5,1-2.4v-45h-2c-0.9,0-1.8,0.4-2.4,1c-0.6,0.6-1,1.5-1,2.4v1.8h-4.4v-9.5h23.8
		v9.5L299.5,178.8L299.5,178.8z"/>
	<path fill="#FFFFFF" d="M348.9,218.1c-5.6,5.6-12.3,8.3-20.3,8.3c-8,0-14.7-2.8-20.2-8.3s-8.3-12.3-8.3-20.2c0-8,2.8-14.7,8.3-20.2
		s12.3-8.3,20.2-8.3c8,0,14.7,2.8,20.3,8.3s8.3,12.3,8.3,20.2C357.2,205.9,354.6,212.6,348.9,218.1z M345.7,180.8
		c-4.7-4.7-10.4-7.1-17.1-7.1c-6.6,0-12.3,2.4-17.1,7.1c-4.8,4.7-7.2,10.4-7.2,17.1c0,6.6,2.4,12.3,7.2,17.1
		c4.8,4.8,10.5,7.2,17.1,7.2c6.7,0,12.4-2.4,17.1-7.2c4.7-4.8,7.1-10.5,7.1-17.1C352.8,191.3,350.6,185.6,345.7,180.8z"/>
	<path fill="#FFFFFF" d="M382.6,221.4c-3.5,3.5-7.6,5.2-12.5,5.2c-1.5,0-3.2-0.1-4.7-0.6s-3-1-4.3-1.9v2.5h-4.4V214h4.4v1.5v1.8
		c0,1.3,0.5,2.1,1.6,2.9s2.3,1.3,3.5,1.5c0.8,0.1,1.5,0.4,2.1,0.5c0.6,0.1,1.3,0.1,1.8,0.1c3.7,0,6.8-1.3,9.4-3.9
		c2.5-2.7,3.9-5.7,3.9-9.4c0-3.4-1.1-6.2-3.3-8.5c-2.1-2.1-4.5-4.2-7.2-6.1c-0.3-0.1-0.5-0.4-0.9-0.5c-0.3-0.1-0.5-0.4-0.9-0.5
		c-0.4-0.1-0.8-0.5-1.1-0.8c-0.4-0.3-0.8-0.5-1-0.8c-2.5-1.8-4.7-3.5-6.4-5.4c-1.9-1.9-2.7-4.2-2.7-7.1s1-5.2,3.2-7.2
		c2-1.9,4.4-2.9,7-2.8c0.5,0,1.1,0.1,1.9,0.1c0.5,0.1,1.1,0.3,1.8,0.5v-0.9h4.4v9.7h-4.4c0-0.3,0-0.5,0-0.9c0-0.3,0-0.6,0-0.9
		c0-1.1-0.4-1.9-1.1-2.5c-0.8-0.5-1.6-0.9-2.7-0.9c-0.1,0-0.1,0-0.1,0c-0.1,0-0.1,0-0.1,0c-1.3,0.1-2.5,0.6-3.5,1.6
		c-1.1,1-1.5,2.3-1.5,3.9s0.6,3.2,2,4.5c1.3,1.4,2.9,2.7,4.8,3.9c0.5,0.3,0.9,0.5,1.3,0.9c0.4,0.3,0.9,0.5,1.3,0.9
		c0.3,0.1,0.5,0.4,0.9,0.5c0.4,0.1,0.5,0.4,0.9,0.5c3.2,2.1,6.1,4.5,8.6,7.3c2.5,2.8,3.9,6.4,3.9,11
		C388,213.7,386.2,218,382.6,221.4z"/>
</g>
<rect x="222.5" y="416.3" fill="#C46F28" stroke="#FFFFFF" stroke-width="6.3182" stroke-miterlimit="10" width="139" height="100.6"/>
<polygon fill="#93A1A1" points="229.1,507.4 265.9,444.9 279.8,470.5 314.8,426.5 356.2,507.4 "/>
<polygon fill="#3D4F29" points="256.3,485.3 264.7,465.4 275,485.3 265.6,475.3 "/>
<polygon fill="#3D4F29" points="298.6,461 314.2,438.1 326,467.8 313.9,451.4 "/>
<rect x="54.5" y="276.8" fill="#C46F28" stroke="#FFFFFF" stroke-width="3.7386" stroke-miterlimit="10" width="82.3" height="59.5"/>
<polygon fill="#93A1A1" points="58.4,330.6 80.1,293.8 88.3,308.7 109.1,282.8 133.6,330.6 "/>
<polygon fill="#3D4F29" points="74.4,317.6 79.5,305.7 85.6,317.6 80,311.8 "/>
<polygon fill="#3D4F29" points="99.5,303.3 108.7,289.8 115.6,307.3 108.6,297.6 "/>
<rect x="182.7" y="276" fill="#C46F28" stroke="#FFFFFF" stroke-width="3.7386" stroke-miterlimit="10" width="82.3" height="59.5"/>
<polygon fill="#93A1A1" points="186.7,330 208.3,293.1 216.6,308.1 237.3,282.1 261.8,330 "/>
<polygon fill="#3D4F29" points="202.7,316.9 207.6,305.1 213.7,316.9 208.3,311 "/>
<polygon fill="#3D4F29" points="227.7,302.5 236.9,288.9 244,306.6 236.8,297 "/>
<rect x="311" y="276.2" fill="#C46F28" stroke="#FFFFFF" stroke-width="3.7386" stroke-miterlimit="10" width="82.3" height="59.5"/>
<polygon fill="#93A1A1" points="314.8,330.2 336.7,293.2 344.9,308.3 365.7,282.3 390,330.2 "/>
<polygon fill="#3D4F29" points="331,317.2 336,305.3 342,317.2 336.5,311.3 "/>
<polygon fill="#3D4F29" points="356,302.8 365.1,289.1 372.2,306.8 365,297.1 "/>
<rect x="439.3" y="276.2" fill="#C46F28" stroke="#FFFFFF" stroke-width="3.7386" stroke-miterlimit="10" width="82.3" height="59.5"/>
<polygon fill="#93A1A1" points="443,330.2 464.8,293.2 473.1,308.3 493.7,282.3 518.4,330.2 "/>
<polygon fill="#3D4F29" points="459.1,317.2 464.2,305.3 470.2,317.2 464.8,311.3 "/>
<polygon fill="#3D4F29" points="484.2,302.8 493.3,289.1 500.4,306.8 493.2,297.1 "/>
<g>
	<path fill="#FFFFFF" d="M99.5,346c0,0,6.4,4.9,16.3,12.3c9.7,7.3,22.7,17.1,35.6,26.8c6.4,4.9,13,9.9,19.1,14.3
		c2.9,2.3,5.9,4.5,8.6,6.7c2.8,2.1,5.3,4.2,7.7,6.1c2.4,1.9,4.5,3.5,6.6,5.2c1.9,1.5,3.5,2.9,4.9,4c2.8,2.3,4.3,3.5,4.3,3.5
		l-0.1,0.1c0,0-1.6-1.1-4.5-3.3c-1.4-1.1-3.2-2.3-5.2-3.8c-2-1.5-4.2-3.2-6.7-4.9c-2.4-1.9-5.2-3.8-8-5.9c-2.8-2-5.7-4.3-8.7-6.6
		c-6.1-4.7-12.4-9.6-18.8-14.7c-12.9-10-25.7-19.8-35.3-27.4c-9.6-7.5-16-12.5-16-12.5L99.5,346z"/>
</g>
<g>
	<path fill="#FFFFFF" d="M484.2,349.9c0,0-6.4,4.9-16,12.5c-9.6,7.5-22.4,17.3-35.3,27.4c-6.4,4.9-12.9,10-18.8,14.7
		c-3,2.3-5.9,4.5-8.7,6.6c-2.8,2-5.6,4-8,5.9c-2.4,1.9-4.7,3.5-6.7,4.9c-2,1.5-3.8,2.7-5.2,3.8c-2.9,2-4.5,3.3-4.5,3.3l-0.1-0.1
		c0,0,1.5-1.3,4.3-3.5c1.4-1.1,3-2.5,4.9-4c1.9-1.5,4.2-3.3,6.6-5.2c2.4-1.9,4.9-3.9,7.7-6.1s5.7-4.4,8.6-6.7
		c6.1-4.5,12.6-9.5,19.1-14.3c13-9.9,25.9-19.5,35.6-26.8C477.4,355,484,350,484,350L484.2,349.9z"/>
</g>
<g>
	<path fill="#FFFFFF" d="M353.2,342.3c0,0-1.4,3.5-3.3,9.1c-2,5.6-4.7,12.6-7.3,20c-1.4,3.5-2.7,7.2-3.9,10.6
		c-0.6,1.8-1.3,3.3-1.9,4.9c-0.6,1.5-1.1,2.9-1.8,4.3s-1.1,2.5-1.5,3.5c-0.5,1.1-0.9,2-1.1,2.8c-0.8,1.5-1.1,2.4-1.1,2.4l-0.1-0.1
		c0,0,0.3-0.9,0.9-2.5c0.3-0.8,0.5-1.8,0.9-2.9c0.4-1.1,0.9-2.3,1.3-3.8c0.5-1.4,1-2.9,1.5-4.4c0.5-1.5,1.1-3.2,1.9-4.9
		c1.4-3.3,2.8-7,4.2-10.5c2.9-7.2,5.8-14.3,8-19.7C351.7,345.7,353.2,342.2,353.2,342.3L353.2,342.3z"/>
</g>
<g>
	<path fill="#FFFFFF" d="M222.5,342.3c0,0,1.4,3.5,3.5,9c2.1,5.4,5.1,12.5,8,19.7c1.4,3.5,2.9,7.2,4.2,10.5c0.6,1.8,1.3,3.3,1.9,4.9
		c0.5,1.5,1.1,3,1.5,4.4c0.5,1.4,0.9,2.7,1.3,3.8c0.4,1.1,0.8,2,0.9,2.9c0.5,1.6,0.9,2.5,0.9,2.5l-0.1,0.1c0,0-0.5-0.9-1.1-2.4
		c-0.4-0.8-0.9-1.8-1.1-2.8c-0.5-1.1-1-2.3-1.5-3.5c-0.5-1.4-1.1-2.8-1.8-4.3c-0.6-1.5-1.3-3.2-1.9-4.9c-1.3-3.4-2.5-7-3.9-10.6
		c-2.7-7.2-5.4-14.5-7.3-20C223.8,346,222.5,342.5,222.5,342.3L222.5,342.3z"/>
</g>
</svg>
