<?xml version="1.0" encoding="utf-8"?>
<!-- Generator: Adobe Illustrator 17.1.0, SVG Export Plug-In . SVG Version: 6.00 Build 0)  -->
<!DOCTYPE svg PUBLIC "-//W3C//DTD SVG 1.1//EN" "http://www.w3.org/Graphics/SVG/1.1/DTD/svg11.dtd">
<svg version="1.1" id="Layer_1" xmlns="http://www.w3.org/2000/svg" xmlns:xlink="http://www.w3.org/1999/xlink" x="0px" y="0px"
	 viewBox="0 0 576 576" enable-background="new 0 0 576 576" xml:space="preserve">
<circle stroke="#C46F28" stroke-width="20.2923" stroke-miterlimit="10" cx="288" cy="288" r="274.2"/>
<path fill="#4B6470" d="M57.3,325c17.1,6.1,35.9-2.9,42-19.9c6.1-17.1-2.9-35.9-19.9-42c-0.8-0.3-1.4-0.5-2.2-0.8
	c8-2,16.7-1.9,25.2,1.1c22.4,8,34.4,32.7,26.3,55.3c-8,22.4-32.7,34.4-55.3,26.3c-12.6-4.6-21.8-14.2-26.1-25.9
	C50.2,321.7,53.5,323.6,57.3,325z"/>
<g>
	<g>
		<path fill="#93A1A1" d="M500.8,307.8c1.9-15.9-9.6-30.2-25.5-32c-16-1.9-30.3,9.5-32.2,25.2c-1.9,15.9,9.6,30.2,25.5,32
			C484.5,334.8,498.9,323.6,500.8,307.8z"/>
	</g>
	<g>
		<g>
			<polygon fill="#93A1A1" points="479.3,305.2 465.4,359.8 464.4,303.5 			"/>
		</g>
		<g>
			<polygon fill="#93A1A1" points="479,302.3 487.4,358.1 464.7,306.4 			"/>
		</g>
		<g>
			<polygon fill="#93A1A1" points="477.6,299.8 506.8,348.1 466.1,309.1 			"/>
		</g>
		<g>
			<polygon fill="#93A1A1" points="475.5,297.9 521,331.5 468.2,310.8 			"/>
		</g>
		<g>
			<polygon fill="#93A1A1" points="472.8,297 527.7,310.8 471,311.7 			"/>
		</g>
		<g>
			<polygon fill="#93A1A1" points="469.7,297.3 525.9,289.1 473.8,311.5 			"/>
		</g>
		<g>
			<polygon fill="#93A1A1" points="467.2,298.5 515.8,269.9 476.5,310.2 			"/>
		</g>
		<g>
			<polygon fill="#93A1A1" points="465.4,300.7 499.2,255.7 478.2,308 			"/>
		</g>
		<g>
			<polygon fill="#93A1A1" points="464.4,303.5 478.2,248.9 479.3,305.2 			"/>
		</g>
		<g>
			<polygon fill="#93A1A1" points="464.7,306.4 456.4,250.7 479,302.3 			"/>
		</g>
		<g>
			<polygon fill="#93A1A1" points="466.1,309.1 436.9,260.6 477.6,299.8 			"/>
		</g>
		<g>
			<polygon fill="#93A1A1" points="468.2,310.8 422.7,277.2 475.5,297.9 			"/>
		</g>
		<g>
			<polygon fill="#93A1A1" points="471,311.7 416,297.9 472.8,297 			"/>
		</g>
		<g>
			<polygon fill="#93A1A1" points="473.8,311.5 417.7,319.6 469.7,297.3 			"/>
		</g>
		<g>
			<polygon fill="#93A1A1" points="476.5,310.2 427.9,338.9 467.2,298.5 			"/>
		</g>
		<g>
			<polygon fill="#93A1A1" points="478.2,308 444.6,353.1 465.4,300.7 			"/>
		</g>
	</g>
</g>
<g>
	<rect x="144.1" y="305.8" fill="#4B6470" width="269.8" height="1.1"/>
	<rect x="149.6" y="302" fill="#4B6470" width="0.9" height="9.3"/>
	<rect x="157.2" y="302" fill="#4B6470" width="0.9" height="9.3"/>
	<rect x="164.7" y="302" fill="#4B6470" width="0.9" height="9.3"/>
	<rect x="172.2" y="302" fill="#4B6470" width="0.9" height="9.3"/>
	<rect x="179.8" y="302" fill="#4B6470" width="0.9" height="9.3"/>
	<rect x="187.4" y="302" fill="#4B6470" width="0.9" height="9.3"/>
	<rect x="194.9" y="302" fill="#4B6470" width="0.9" height="9.3"/>
	<rect x="202.5" y="302" fill="#4B6470" width="0.9" height="9.3"/>
	<rect x="210" y="302" fill="#4B6470" width="0.9" height="9.3"/>
	<rect x="217.6" y="302" fill="#4B6470" width="0.9" height="9.3"/>
	<rect x="225.1" y="302" fill="#4B6470" width="0.9" height="9.3"/>
	<rect x="232.7" y="302" fill="#4B6470" width="0.9" height="9.3"/>
	<rect x="240.2" y="302" fill="#4B6470" width="0.9" height="9.3"/>
	<rect x="247.8" y="302" fill="#4B6470" width="0.9" height="9.3"/>
	<rect x="255.4" y="302" fill="#4B6470" width="0.9" height="9.3"/>
	<rect x="262.9" y="302" fill="#4B6470" width="0.9" height="9.3"/>
	<rect x="270.4" y="302" fill="#4B6470" width="0.9" height="9.3"/>
	<rect x="278" y="302" fill="#4B6470" width="0.9" height="9.3"/>
	<rect x="285.5" y="302" fill="#4B6470" width="0.9" height="9.3"/>
	<rect x="293.1" y="302" fill="#4B6470" width="0.9" height="9.3"/>
	<rect x="300.7" y="302" fill="#4B6470" width="0.9" height="9.3"/>
	<rect x="308.2" y="302" fill="#4B6470" width="0.9" height="9.3"/>
	<rect x="315.8" y="302" fill="#4B6470" width="0.9" height="9.3"/>
	<rect x="323.3" y="302" fill="#4B6470" width="0.9" height="9.3"/>
	<rect x="330.7" y="302" fill="#4B6470" width="0.9" height="9.3"/>
	<rect x="338.4" y="302" fill="#4B6470" width="0.9" height="9.3"/>
	<rect x="346" y="302" fill="#4B6470" width="0.9" height="9.3"/>
	<rect x="353.4" y="302" fill="#4B6470" width="0.9" height="9.3"/>
	<rect x="361.1" y="302" fill="#4B6470" width="0.9" height="9.3"/>
	<rect x="368.5" y="302" fill="#4B6470" width="0.9" height="9.3"/>
	<rect x="376.1" y="302" fill="#4B6470" width="0.9" height="9.3"/>
	<rect x="383.6" y="302" fill="#4B6470" width="0.9" height="9.3"/>
	<rect x="391.2" y="302" fill="#4B6470" width="0.9" height="9.3"/>
	<rect x="398.7" y="302" fill="#4B6470" width="0.9" height="9.3"/>
	<rect x="406.3" y="302" fill="#4B6470" width="0.9" height="9.3"/>
</g>
<g enable-background="new    ">
	<path fill="#FFFFFF" d="M145.1,152.2v-4.4h1.9c0.9,0,1.6-0.4,2.3-1c0.6-0.6,0.9-1.4,1-2.3v-29.9h-5.2v-4.4h5.2v-7.6
		c-0.1-0.9-0.4-1.6-1-2.3c-0.6-0.6-1.4-0.9-2.3-0.9h-1.9v-4.4H173v9.5h-4.4v-1.8v-0.1c-0.1-0.9-0.4-1.6-1-2.3
		c-0.6-0.6-1.4-0.9-2.3-0.9h-10.7v11h10.3v4.4h-10.3V148h10.7c0.9-0.1,1.6-0.4,2.2-1c0.6-0.6,0.9-1.4,1-2.2v-0.1v-1.9h4.4v9.6
		L145.1,152.2L145.1,152.2z"/>
	<path fill="#FFFFFF" d="M203,143.7c-5.6,5.6-12.3,8.4-20.2,8.6h-7.7v-4.4h1.8h0.1c0.9,0,1.8-0.4,2.4-1c0.6-0.6,1-1.5,1-2.3v-41.9
		c0-0.9-0.4-1.8-1-2.4c-0.6-0.6-1.5-1-2.4-1h-1.9v-4.4h7.7c7.9,0.1,14.6,2.9,20.2,8.5c5.6,5.6,8.2,12.3,8.2,20.2
		C211.4,131.4,208.6,138.1,203,143.7z M200.5,107.1c-4.2-4.6-9.5-7.2-15.7-7.7v48.4c6.2-0.5,11.4-3.2,15.7-7.7
		c4.2-4.6,6.5-10.1,6.5-16.4C207,117.2,204.8,111.7,200.5,107.1z"/>
	<path fill="#FFFFFF" d="M211.4,152.2v-4.4h1.9c0.9,0,1.8-0.4,2.4-1c0.6-0.6,1-1.5,1-2.4v-41.7c0-0.9-0.4-1.8-1-2.4
		c-0.6-0.6-1.5-1-2.4-1h-1.9v-4.4h14.7v4.4h-1.9c-0.9,0-1.8,0.4-2.4,1c-0.6,0.6-1,1.5-1,2.4v41.9c0,0.9,0.4,1.8,1,2.4
		c0.6,0.6,1.5,1,2.4,1h1.9v4.4L211.4,152.2L211.4,152.2z"/>
	<path fill="#FFFFFF" d="M248.6,104.2v-1.6c0-0.9-0.4-1.8-1-2.4s-1.5-1-2.4-1h-1.9v45.2c0,0.9,0.4,1.8,1,2.4c0.6,0.6,1.5,1,2.4,1
		h1.9v4.4h-14.7v-4.4h1.8c0.9,0,1.8-0.4,2.4-1c0.6-0.6,1-1.5,1-2.4V99.2h-1.9c-0.9,0-1.8,0.4-2.4,1c-0.6,0.6-1,1.5-1,2.4v1.8h-4.4
		v-9.5h23.8v9.5L248.6,104.2L248.6,104.2z"/>
</g>
<g enable-background="new    ">
	<path fill="#FFFFFF" d="M367.3,166.5c-9,3.6-18.1,5.2-27.3,5.2c-9.5,0-18.8-1.9-27.9-5.5c-9.1-3.7-17.2-9-24.5-16.2v-9.9
		c-3.3-2.2-6-5.2-8-8.8c-2-3.6-2.9-7.5-2.9-11.5v-17.2c0-0.9-0.4-1.8-1-2.4c-0.6-0.6-1.5-1-2.4-1h-1.8v-4.4h9.6v24.9
		c0,3.2,0.8,6.3,2.3,9.3c1.5,2.9,3.6,5.3,6.2,7.2c2.8-1.9,4.9-4.3,6.3-7.2c1.5-2.9,2.3-6,2.3-9.4V94.6h9.6V99H306
		c-0.9,0-1.6,0.4-2.3,1c-0.6,0.6-1,1.5-1,2.4v17.1c0,4.1-1,8-2.9,11.5s-4.6,6.6-8,8.9v8c6.6,6.5,14.1,11.3,22.4,14.5
		c8.2,3.2,16.7,4.8,25.5,4.8s17.4-1.6,25.7-5.1c8.4-3.3,16-8.2,22.6-15l3.2,3.2C384.3,157.6,376.1,163.1,367.3,166.5z"/>
	<path fill="#FFFFFF" d="M354.5,143.8c-5.6,5.6-12.3,8.4-20.4,8.4c-8,0-14.7-2.8-20.3-8.4c-5.6-5.6-8.4-12.3-8.4-20.3
		c0-8,2.8-14.7,8.4-20.3c5.6-5.6,12.3-8.4,20.3-8.4s14.7,2.8,20.4,8.4c5.7,5.6,8.4,12.3,8.4,20.3C363,131.5,360,138.2,354.5,143.8z
		 M351.3,106.4c-4.7-4.7-10.4-7.1-17.1-7.1c-6.6,0-12.3,2.4-17.1,7.1c-4.8,4.7-7.2,10.4-7.2,17.1c0,6.6,2.4,12.3,7.2,17.1
		s10.5,7.2,17.1,7.2c6.7,0,12.4-2.4,17.1-7.2c4.7-4.8,7.1-10.5,7.1-17.1C358.4,116.8,356,111.1,351.3,106.4z"/>
	<path fill="#FFFFFF" d="M395,99.3c-0.9,0-1.8,0.3-2.4,0.9c-0.6,0.6-1,1.4-1,2.3v37c0,3.6-1.1,6.5-3.7,9c-2.5,2.5-5.6,3.8-9,3.8
		c-3.6,0-6.5-1.3-9-3.8c-2.5-2.5-3.8-5.6-3.8-9v-36.9c0-0.9-0.3-1.8-0.9-2.4c-0.6-0.6-1.4-1-2.3-1h-0.1h-1.8v-4.4h9.6v44.8
		c0,2.3,0.9,4.2,2.5,6c1.6,1.6,3.6,2.5,6,2.5c2.2,0,4.2-0.9,5.8-2.5c1.6-1.6,2.5-3.6,2.5-6V94.8h9.5v4.4H395L395,99.3z"/>
	<path fill="#FFFFFF" d="M414.7,152.2v-4.4c0.9-0.1,1.5-0.4,1.9-0.8c0.4-0.4,0.5-0.9,0.5-1.5c0-0.1,0-0.5-0.1-0.8
		c-0.1-0.3-0.1-0.5-0.3-0.8c-0.1-0.3-0.3-0.5-0.4-0.8c-0.1-0.3-0.3-0.5-0.5-0.8c-0.9-1.1-1.6-2.4-2.5-3.6c-0.9-1.1-1.5-2.4-2.3-3.6
		c-0.5,0.1-1,0.3-1.5,0.4s-1.1,0.1-1.6,0.3v1.6v6.7c0,0.9,0.4,1.8,1,2.4c0.6,0.6,1.5,1,2.3,1h1.9v4.4h-14.7v-4.6h1.8
		c0.9,0,1.8-0.4,2.4-1c0.6-0.6,1-1.5,1-2.4v-41.7c0-0.9-0.4-1.8-1-2.4c-0.6-0.6-1.5-1-2.4-1h-1.8v-4.4h8c5.6,0,10.3,2,14.2,6.1
		c3.9,4.1,5.8,9,5.8,14.6c0,3.9-1,7.6-3,10.8c-2,3.2-4.7,5.7-8,7.5c0.5,0.8,0.9,1.5,1.5,2.5c0.5,0.9,1.1,1.8,1.9,2.5
		c0.8,1.1,1.5,2.2,2.5,3.2c0.9,1.1,1.8,2,2.5,2.9c0.9,0.9,1.9,1.5,2.7,2.2c0.9,0.5,1.8,0.8,2.5,0.8h1.4h0.4v4.4L414.7,152.2
		L414.7,152.2z M418.1,104.9c-2.7-3-6-4.9-10-5.5v32.2c3.9-0.5,7.2-2.3,10-5.5c2.7-3,4.1-6.6,4.1-10.7
		C422.2,111.3,420.8,107.9,418.1,104.9z"/>
</g>
<g enable-background="new    ">
	<path fill="#FFFFFF" d="M194.1,211.3c-3.6,3.9-8,6.2-13.1,6.8v1.6v6.7c0,0.9,0.4,1.8,1,2.4s1.5,1,2.4,1h1.9v4.4h-14.7v-4.4h1.9
		c0.9,0,1.8-0.4,2.4-1c0.6-0.6,1-1.5,1-2.4v-41.9c0-0.9-0.4-1.8-1-2.4c-0.6-0.6-1.5-1-2.4-1h-1.9v-4.4h8c5.6,0,10.3,2,14.1,6.1
		c3.9,4.1,5.8,9,5.8,14.6C199.5,202.8,197.7,207.3,194.1,211.3z M191.1,186.7c-2.7-3-6-4.9-10-5.5v32.2c3.9-0.5,7.2-2.3,10-5.5
		c2.7-3,4.1-6.6,4.1-10.7C195.2,193.3,193.8,189.8,191.1,186.7z"/>
	<path fill="#FFFFFF" d="M216.7,234.2v-4.4h1.9c0.9,0,1.8-0.4,2.4-1c0.6-0.6,1-1.5,1-2.4v-29.9h-14.2v29.9c0,0.9,0.4,1.8,1,2.4
		c0.6,0.6,1.5,1,2.4,1h1.9v4.4h-14.7v-4.4h1.9c0.9,0,1.8-0.4,2.4-1s1-1.5,1-2.4v-41.9c0-0.9-0.4-1.8-1-2.4c-0.6-0.6-1.5-1-2.4-1
		h-1.9v-4.4h14.7v4.4h-1.9c-0.9,0-1.8,0.4-2.4,1c-0.6,0.6-1,1.5-1,2.4v7.6H222v-7.6c0-0.9-0.4-1.8-1-2.4c-0.6-0.6-1.5-1-2.4-1h-1.9
		v-4.4h14.7v4.4h-1.8c-0.9,0-1.8,0.4-2.4,1c-0.6,0.6-1,1.5-1,2.4v41.9c0,0.9,0.4,1.8,1,2.4c0.6,0.6,1.5,1,2.4,1h1.9v4.4H216.7z"/>
	<path fill="#FFFFFF" d="M279.4,225.7c-5.6,5.6-12.3,8.4-20.4,8.4c-8,0-14.7-2.8-20.3-8.4c-5.6-5.6-8.4-12.3-8.4-20.3
		c0-8,2.8-14.7,8.4-20.3c5.6-5.6,12.3-8.4,20.3-8.4c8,0,14.7,2.8,20.4,8.4c5.6,5.6,8.4,12.3,8.4,20.3
		C287.9,213.4,285,220.1,279.4,225.7z M276.2,188.3c-4.7-4.7-10.4-7.1-17.1-7.1c-6.6,0-12.3,2.4-17.1,7.1
		c-4.8,4.7-7.2,10.4-7.2,17.1c0,6.6,2.4,12.3,7.2,17.1s10.5,7.2,17.1,7.2c6.7,0,12.4-2.4,17.1-7.2c4.7-4.8,7.1-10.5,7.1-17.1
		S280.9,193.1,276.2,188.3z"/>
	<path fill="#FFFFFF" d="M304,186.3v-1.8c0-0.9-0.4-1.8-1-2.4c-0.6-0.6-1.5-1-2.4-1h-1.9v45.2c0,0.9,0.4,1.8,1,2.4
		c0.6,0.6,1.5,1,2.4,1h1.9v4.4h-14.7v-4.4h1.8c0.9,0,1.8-0.4,2.4-1c0.6-0.6,1-1.5,1-2.4v-45.2h-1.9c-0.9,0-1.8,0.4-2.4,1
		c-0.6,0.6-1,1.5-1,2.4v1.8h-4.4v-9.5h23.8v9.5H304z"/>
	<path fill="#FFFFFF" d="M353.7,225.7c-5.6,5.6-12.3,8.4-20.4,8.4c-8,0-14.7-2.8-20.3-8.4c-5.6-5.6-8.4-12.3-8.4-20.3
		c0-8,2.8-14.7,8.4-20.3s12.3-8.4,20.3-8.4s14.7,2.8,20.4,8.4c5.6,5.6,8.4,12.3,8.4,20.3C362.1,213.4,359.1,220.1,353.7,225.7z
		 M350.4,188.3c-4.7-4.7-10.4-7.1-17.1-7.1c-6.6,0-12.3,2.4-17.1,7.1c-4.8,4.7-7.2,10.4-7.2,17.1c0,6.6,2.4,12.3,7.2,17.1
		c4.8,4.8,10.5,7.2,17.1,7.2c6.7,0,12.4-2.4,17.1-7.2c4.7-4.8,7.1-10.5,7.1-17.1C357.5,198.8,355.1,193.1,350.4,188.3z"/>
	<path fill="#FFFFFF" d="M387.6,229c-3.6,3.6-7.6,5.2-12.6,5.2c-1.5,0-3.2-0.1-4.7-0.6s-3-1-4.3-1.9v2.5h-4.4v-12.7h4.4v1.5v1.8
		c0,1.3,0.5,2.2,1.6,2.9c1.1,0.8,2.3,1.3,3.6,1.5c0.8,0.1,1.5,0.4,2.2,0.5c0.6,0.1,1.3,0.1,1.8,0.1c3.7,0,6.8-1.3,9.4-3.9
		s3.9-5.7,3.9-9.4c0-3.4-1.1-6.2-3.3-8.5c-2.2-2.2-4.6-4.2-7.2-6.1c-0.3-0.1-0.5-0.4-0.9-0.5s-0.5-0.4-0.9-0.5
		c-0.4-0.1-0.8-0.5-1.1-0.8c-0.4-0.3-0.8-0.5-1-0.8c-2.5-1.8-4.7-3.6-6.5-5.5c-1.9-1.9-2.7-4.2-2.7-7.1s1-5.2,3.2-7.2
		c2-1.9,4.4-2.9,7-2.8c0.5,0,1.1,0.1,1.9,0.1c0.5,0.1,1.1,0.3,1.8,0.5v-0.9h4.4v9.8h-4.6c0-0.3,0-0.5,0-0.9c0-0.4,0-0.6,0-0.9
		c0-1.1-0.4-1.9-1.1-2.5c-0.8-0.5-1.6-0.9-2.7-0.9c-0.1,0-0.1,0-0.1,0h-0.1c-1.3,0.1-2.5,0.6-3.6,1.6c-1.1,1-1.5,2.3-1.5,3.9
		c0,1.6,0.6,3.2,2,4.6c1.3,1.4,2.9,2.7,4.8,3.9c0.5,0.3,0.9,0.5,1.3,0.9c0.4,0.3,0.9,0.5,1.3,0.9c0.3,0.1,0.5,0.4,0.9,0.5
		c0.3,0.1,0.5,0.4,0.9,0.5c3.2,2.2,6.1,4.6,8.6,7.4c2.5,2.8,3.9,6.5,3.9,11C392.6,221.3,391,225.6,387.6,229z"/>
</g>
<g>
	<circle fill="#C46F28" cx="288" cy="422.8" r="59.7"/>
	<path fill="#A0A8AA" d="M228.3,422.8c0,33.1,26.9,59.7,59.7,59.7V363C254.9,363.1,228.3,389.8,228.3,422.8z"/>
</g>
<rect x="272.1" y="399.1" fill="none" width="87" height="85.7"/>
<text transform="matrix(1 0 0 1 300.3281 435.8379)" fill="#FFFFFF" font-family="'HelveticaNeue'" font-size="51.3178">+</text>
<rect x="220.1" y="401.4" fill="none" width="87" height="85.7"/>
<text transform="matrix(1 0 0 1 253.7676 437.9785)" fill="#FFFFFF" font-family="'HelveticaNeue'" font-size="51.3178">-</text>
<g>
	<g>
		<path d="M274.3,111.8c2.3,0,2.3-3.6,0-3.6C271.9,108.3,271.9,111.8,274.3,111.8L274.3,111.8z"/>
	</g>
</g>
<g>
	<g>
		<path d="M274.3,111.8c2.3,0,2.3-3.6,0-3.6C271.9,108.3,271.9,111.8,274.3,111.8L274.3,111.8z"/>
	</g>
</g>
</svg>
