<?xml version="1.0" encoding="utf-8"?>
<!-- Generator: Adobe Illustrator 17.1.0, SVG Export Plug-In . SVG Version: 6.00 Build 0)  -->
<!DOCTYPE svg PUBLIC "-//W3C//DTD SVG 1.1//EN" "http://www.w3.org/Graphics/SVG/1.1/DTD/svg11.dtd">
<svg version="1.1" id="Layer_1" xmlns="http://www.w3.org/2000/svg" xmlns:xlink="http://www.w3.org/1999/xlink" x="0px" y="0px"
	 viewBox="0 0 792 792" enable-background="new 0 0 792 792" xml:space="preserve">
<circle stroke="#3D4F29" stroke-width="16" stroke-miterlimit="10" cx="396" cy="396" r="384.8"/>
<path fill="#4B6470" d="M72.4,482c24,8.5,50.3-4,58.9-28c8.5-24-4-50.3-28-58.9c-1-0.4-2-0.7-3.1-1c11.3-2.9,23.6-2.6,35.4,1.6
	c31.6,11.2,48.1,46,36.8,77.5c-11.2,31.6-46,48.1-77.5,36.8c-17.6-6.3-30.6-19.9-36.6-36.2C62.4,477.4,67.1,480.1,72.4,482z"/>
<g>
	<g>
		<path fill="#93A1A1" d="M694.7,453c0-22.4-18.2-40.5-40.8-40.5c-22.5,0-40.8,18.1-40.8,40.5c0,22.4,18.2,40.5,40.8,40.5
			C676.5,493.5,694.7,475.4,694.7,453z"/>
	</g>
	<g>
		<g>
			<polygon fill="#93A1A1" points="664.4,453 654,531.3 643.5,453 			"/>
		</g>
		<g>
			<polygon fill="#93A1A1" points="663.6,449 684.1,525.3 644.3,457 			"/>
		</g>
		<g>
			<polygon fill="#93A1A1" points="661.3,445.6 709.7,508.3 646.6,460.4 			"/>
		</g>
		<g>
			<polygon fill="#93A1A1" points="657.9,443.4 726.8,482.9 650,462.6 			"/>
		</g>
		<g>
			<polygon fill="#93A1A1" points="654,442.6 732.8,453 654,463.4 			"/>
		</g>
		<g>
			<polygon fill="#93A1A1" points="650,443.4 726.8,423.1 657.9,462.6 			"/>
		</g>
		<g>
			<polygon fill="#93A1A1" points="646.6,445.6 709.7,397.7 661.3,460.4 			"/>
		</g>
		<g>
			<polygon fill="#93A1A1" points="644.3,449 684.1,380.7 663.6,457 			"/>
		</g>
		<g>
			<polygon fill="#93A1A1" points="643.5,453 654,374.7 664.4,453 			"/>
		</g>
		<g>
			<polygon fill="#93A1A1" points="644.3,457 623.8,380.7 663.6,449 			"/>
		</g>
		<g>
			<polygon fill="#93A1A1" points="646.6,460.4 598.2,397.7 661.3,445.6 			"/>
		</g>
		<g>
			<polygon fill="#93A1A1" points="650,462.6 581.1,423.1 657.9,443.4 			"/>
		</g>
		<g>
			<polygon fill="#93A1A1" points="654,463.4 575.1,453 654,442.6 			"/>
		</g>
		<g>
			<polygon fill="#93A1A1" points="657.9,462.6 581.1,482.9 650,443.4 			"/>
		</g>
		<g>
			<polygon fill="#93A1A1" points="661.3,460.4 598.2,508.3 646.6,445.6 			"/>
		</g>
		<g>
			<polygon fill="#93A1A1" points="663.6,457 623.8,525.3 644.3,449 			"/>
		</g>
	</g>
</g>
<g>
	<rect x="194" y="466.9" fill="#4B6470" width="378.4" height="1.6"/>
	<rect x="201.9" y="461.5" fill="#4B6470" width="1.2" height="13"/>
	<rect x="212.5" y="461.5" fill="#4B6470" width="1.2" height="13"/>
	<rect x="223.1" y="461.5" fill="#4B6470" width="1.2" height="13"/>
	<rect x="233.6" y="461.5" fill="#4B6470" width="1.2" height="13"/>
	<rect x="244.2" y="461.5" fill="#4B6470" width="1.2" height="13"/>
	<rect x="254.8" y="461.5" fill="#4B6470" width="1.2" height="13"/>
	<rect x="265.4" y="461.5" fill="#4B6470" width="1.2" height="13"/>
	<rect x="276" y="461.5" fill="#4B6470" width="1.2" height="13"/>
	<rect x="286.6" y="461.5" fill="#4B6470" width="1.2" height="13"/>
	<rect x="297.2" y="461.5" fill="#4B6470" width="1.2" height="13"/>
	<rect x="307.8" y="461.5" fill="#4B6470" width="1.2" height="13"/>
	<rect x="318.4" y="461.5" fill="#4B6470" width="1.2" height="13"/>
	<rect x="329" y="461.5" fill="#4B6470" width="1.2" height="13"/>
	<rect x="339.6" y="461.5" fill="#4B6470" width="1.2" height="13"/>
	<rect x="350.2" y="461.5" fill="#4B6470" width="1.2" height="13"/>
	<rect x="360.8" y="461.5" fill="#4B6470" width="1.2" height="13"/>
	<rect x="371.3" y="461.5" fill="#4B6470" width="1.2" height="13"/>
	<rect x="381.9" y="461.5" fill="#4B6470" width="1.2" height="13"/>
	<rect x="392.5" y="461.5" fill="#4B6470" width="1.2" height="13"/>
	<rect x="403.1" y="461.5" fill="#4B6470" width="1.2" height="13"/>
	<rect x="413.7" y="461.5" fill="#4B6470" width="1.2" height="13"/>
	<rect x="424.3" y="461.5" fill="#4B6470" width="1.2" height="13"/>
	<rect x="434.9" y="461.5" fill="#4B6470" width="1.2" height="13"/>
	<rect x="445.5" y="461.5" fill="#4B6470" width="1.2" height="13"/>
	<rect x="456.1" y="461.5" fill="#4B6470" width="1.2" height="13"/>
	<rect x="466.7" y="461.5" fill="#4B6470" width="1.2" height="13"/>
	<rect x="477.3" y="461.5" fill="#4B6470" width="1.2" height="13"/>
	<rect x="487.9" y="461.5" fill="#4B6470" width="1.2" height="13"/>
	<rect x="498.5" y="461.5" fill="#4B6470" width="1.2" height="13"/>
	<rect x="509" y="461.5" fill="#4B6470" width="1.2" height="13"/>
	<rect x="519.6" y="461.5" fill="#4B6470" width="1.2" height="13"/>
	<rect x="530.2" y="461.5" fill="#4B6470" width="1.2" height="13"/>
	<rect x="540.8" y="461.5" fill="#4B6470" width="1.2" height="13"/>
	<rect x="551.4" y="461.5" fill="#4B6470" width="1.2" height="13"/>
	<rect x="562" y="461.5" fill="#4B6470" width="1.2" height="13"/>
</g>
<text transform="matrix(1 0 0 1 171.8212 183.5068)"><tspan x="0" y="0" fill="#FFFFFF" font-family="'CoventryGarden'" font-size="114.7303">Brightness</tspan><tspan x="197.1" y="78" fill="#FFFFFF" font-family="'CoventryGarden'" font-size="85.1438">&amp;</tspan><tspan x="21.6" y="182.1" fill="#FFFFFF" font-family="'CoventryGarden'" font-size="114.7303">conTrast</tspan></text>
<g>
	<circle fill="#45582F" cx="396" cy="609.2" r="83.9"/>
	<path fill="#A0A8AA" d="M312.1,609.2c0,46.4,37.6,83.9,83.9,83.9V525.3C349.6,525.3,312.1,562.9,312.1,609.2z"/>
</g>
<rect x="373.8" y="576" fill="none" width="122.1" height="120.2"/>
<text transform="matrix(1 0 0 1 413.2978 627.4207)" fill="#FFFFFF" font-family="'HelveticaNeue'" font-size="72">+</text>
<rect x="300.9" y="579" fill="none" width="122.1" height="120.2"/>
<text transform="matrix(1 0 0 1 347.9716 630.4207)" fill="#FFFFFF" font-family="'HelveticaNeue'" font-size="72">-</text>
</svg>
