<?xml version="1.0" encoding="utf-8"?>
<!-- Generator: Adobe Illustrator 17.1.0, SVG Export Plug-In . SVG Version: 6.00 Build 0)  -->
<!DOCTYPE svg PUBLIC "-//W3C//DTD SVG 1.1//EN" "http://www.w3.org/Graphics/SVG/1.1/DTD/svg11.dtd">
<svg version="1.1" id="Layer_1" xmlns="http://www.w3.org/2000/svg" xmlns:xlink="http://www.w3.org/1999/xlink" x="0px" y="0px"
	 viewBox="0 0 157 101.1" enable-background="new 0 0 157 101.1" xml:space="preserve">
<g>
	<path fill="#FFFFFF" d="M156.5,11.8c0,6.2-5,11.3-11.3,11.3H11.8C5.5,23,0.5,18,0.5,11.8l0,0c0-6.2,5-11.3,11.3-11.3h133.5
		C151.4,0.5,156.5,5.5,156.5,11.8L156.5,11.8z"/>
	<path fill="#FFFFFF" d="M156.5,49.6c0,6.2-5,11.3-11.3,11.3H11.8c-6.2,0-11.3-5-11.3-11.3l0,0c0-6.2,5-11.3,11.3-11.3h133.5
		C151.4,38.3,156.5,43.4,156.5,49.6L156.5,49.6z"/>
	<path fill="#FFFFFF" d="M156.5,89.4c0,6.2-5,11.3-11.3,11.3H11.8c-6.2,0-11.3-5-11.3-11.3l0,0c0-6.2,5-11.3,11.3-11.3h133.5
		C151.4,78.1,156.5,83.2,156.5,89.4L156.5,89.4z"/>
</g>
</svg>
