<?xml version="1.0" encoding="utf-8"?>
<!-- Generator: Adobe Illustrator 17.1.0, SVG Export Plug-In . SVG Version: 6.00 Build 0)  -->
<!DOCTYPE svg PUBLIC "-//W3C//DTD SVG 1.1//EN" "http://www.w3.org/Graphics/SVG/1.1/DTD/svg11.dtd">
<svg version="1.1" id="Layer_1" xmlns="http://www.w3.org/2000/svg" xmlns:xlink="http://www.w3.org/1999/xlink" x="0px" y="0px"
	 viewBox="0 0 440.4 443" enable-background="new 0 0 440.4 443" xml:space="preserve">
<g>
	<g>
		<path fill="#010101" d="M209.5,80.7c1.8,0,1.8-2.8,0-2.8C207.6,77.9,207.6,80.7,209.5,80.7L209.5,80.7z"/>
	</g>
</g>
<g>
	<g>
		<path fill="#010101" d="M209.5,80.7c1.8,0,1.8-2.8,0-2.8C207.6,77.9,207.6,80.7,209.5,80.7L209.5,80.7z"/>
	</g>
</g>
<g>
	<defs>
		<circle id="SVGID_1_" cx="220.3" cy="220.6" r="216.2"/>
	</defs>
	<clipPath id="SVGID_2_">
		<use xlink:href="#SVGID_1_"  overflow="visible"/>
	</clipPath>
	
		<circle clip-path="url(#SVGID_2_)" fill="#010101" stroke="#3E5029" stroke-width="16" stroke-miterlimit="10" cx="220.3" cy="219.6" r="216.2"/>
	
		<circle clip-path="url(#SVGID_2_)" fill="none" stroke="#3E5029" stroke-width="16" stroke-miterlimit="10" cx="737.1" cy="226.8" r="216.2"/>
	<g clip-path="url(#SVGID_2_)">
		<g>
			<g>
				<polygon fill="#3E5029" points="241.8,319.2 211.8,415.2 200.8,315.2 				"/>
			</g>
			<g>
				<polygon fill="#3E5029" points="241.4,312.5 243.6,413.4 201.2,321.9 				"/>
			</g>
			<g>
				<polygon fill="#3E5029" points="238.9,306.5 273.2,402.2 203.7,327.9 				"/>
			</g>
			<g>
				<polygon fill="#3E5029" points="234.7,301.6 297.8,382.7 207.9,332.8 				"/>
			</g>
			<g>
				<polygon fill="#3E5029" points="229.3,298.2 314.8,356.8 213.3,336.2 				"/>
			</g>
			<g>
				<polygon fill="#3E5029" points="223.3,296.7 322.7,327 219.3,337.7 				"/>
			</g>
			<g>
				<polygon fill="#3E5029" points="217.1,297.1 320.7,296.3 225.5,337.3 				"/>
			</g>
			<g>
				<polygon fill="#3E5029" points="211.1,299.3 308.9,267.6 231.4,335.1 				"/>
			</g>
			<g>
				<polygon fill="#3E5029" points="206.1,303.3 288.6,243.7 236.5,331.1 				"/>
			</g>
			<g>
				<polygon fill="#3E5029" points="202.5,308.8 261.6,227.1 240.1,325.6 				"/>
			</g>
			<g>
				<polygon fill="#3E5029" points="200.8,315.2 230.8,219.2 241.8,319.2 				"/>
			</g>
			<g>
				<polygon fill="#3E5029" points="201.2,321.9 199,221 241.4,312.5 				"/>
			</g>
			<g>
				<polygon fill="#3E5029" points="203.7,327.9 169.4,232.2 238.9,306.5 				"/>
			</g>
			<g>
				<polygon fill="#3E5029" points="207.9,332.8 144.8,251.7 234.7,301.6 				"/>
			</g>
			<g>
				<polygon fill="#3E5029" points="213.3,336.2 127.8,277.6 229.3,298.2 				"/>
			</g>
			<g>
				<polygon fill="#3E5029" points="219.3,337.7 119.9,307.4 223.3,296.7 				"/>
			</g>
			<g>
				<polygon fill="#3E5029" points="225.5,337.3 121.9,338.1 217.1,297.1 				"/>
			</g>
			<g>
				<polygon fill="#3E5029" points="231.4,335.1 133.7,366.8 211.1,299.3 				"/>
			</g>
			<g>
				<polygon fill="#3E5029" points="236.5,331.1 154,390.7 206.1,303.3 				"/>
			</g>
			<g>
				<polygon fill="#3E5029" points="240.1,325.6 180.9,407.3 202.5,308.8 				"/>
			</g>
		</g>
	</g>
	<rect x="207.8" y="307.3" clip-path="url(#SVGID_2_)" fill="none" width="68.6" height="67.6"/>
	<g clip-path="url(#SVGID_2_)">
		<g>
			<g>
				<polygon fill="#A0A8AA" points="234.7,318.5 214.5,387.9 207.9,315.9 				"/>
			</g>
			<g>
				<polygon fill="#A0A8AA" points="234.4,314.2 237.4,386.6 208.2,320.2 				"/>
			</g>
			<g>
				<polygon fill="#A0A8AA" points="232.8,310.2 258.8,378.5 209.8,324.2 				"/>
			</g>
			<g>
				<polygon fill="#A0A8AA" points="230.1,307 276.5,364.5 212.5,327.4 				"/>
			</g>
			<g>
				<polygon fill="#A0A8AA" points="226.5,304.8 288.8,345.8 216,329.6 				"/>
			</g>
			<g>
				<polygon fill="#A0A8AA" points="222.6,303.8 294.4,324.3 220,330.6 				"/>
			</g>
			<g>
				<polygon fill="#A0A8AA" points="218.5,304 293,302.1 224.1,330.4 				"/>
			</g>
			<g>
				<polygon fill="#A0A8AA" points="214.7,305.5 284.5,281.4 227.9,328.9 				"/>
			</g>
			<g>
				<polygon fill="#A0A8AA" points="211.4,308.1 269.8,264.2 231.2,326.3 				"/>
			</g>
			<g>
				<polygon fill="#A0A8AA" points="209,311.7 250.4,252.2 233.6,322.7 				"/>
			</g>
			<g>
				<polygon fill="#A0A8AA" points="207.9,315.9 228.1,246.5 234.7,318.5 				"/>
			</g>
			<g>
				<polygon fill="#A0A8AA" points="208.2,320.2 205.2,247.8 234.4,314.2 				"/>
			</g>
			<g>
				<polygon fill="#A0A8AA" points="209.8,324.2 183.8,255.9 232.8,310.2 				"/>
			</g>
			<g>
				<polygon fill="#A0A8AA" points="212.5,327.4 166.1,269.9 230.1,307 				"/>
			</g>
			<g>
				<polygon fill="#A0A8AA" points="216,329.6 153.8,288.6 226.5,304.8 				"/>
			</g>
			<g>
				<polygon fill="#A0A8AA" points="220,330.6 148.1,310.1 222.6,303.8 				"/>
			</g>
			<g>
				<polygon fill="#A0A8AA" points="224.1,330.4 149.6,332.3 218.5,304 				"/>
			</g>
			<g>
				<polygon fill="#A0A8AA" points="227.9,328.9 158.1,353 214.7,305.5 				"/>
			</g>
			<g>
				<polygon fill="#A0A8AA" points="231.2,326.3 172.8,370.2 211.4,308.1 				"/>
			</g>
			<g>
				<polygon fill="#A0A8AA" points="233.6,322.7 192.2,382.2 209,311.7 				"/>
			</g>
		</g>
	</g>
	<g clip-path="url(#SVGID_2_)">
		<path fill="#FFFFFF" d="M137.5,202.5c-1.4,1.7-3.1,2.7-5.1,3.2v7.9h-3.1v-7.8c-1.1-0.1-2-0.4-2.9-0.9c-0.9-0.5-1.7-1.1-2.6-1.8
			c0-0.8,0-1.6,0-2.4s0-1.6,0-2.4h3.1v3.4c0.4,0.3,0.8,0.5,1.3,0.7s0.9,0.3,1.3,0.4c0.2,0,0.3,0,0.5,0c0.2,0,0.3,0,0.5,0
			c1.6,0,3-0.5,4.2-1.6c1.2-1.1,1.9-2.5,1.9-4.4c0-1.6-0.5-2.9-1.6-3.9c-1-1.1-2.2-2-3.5-2.9c-0.1-0.1-0.2-0.2-0.3-0.2
			c-0.1-0.1-0.2-0.2-0.3-0.2c-0.1-0.1-0.2-0.1-0.3-0.2c-0.1-0.1-0.2-0.1-0.3-0.2c-1.3-0.9-2.5-1.9-3.5-2.9c-1-1-1.5-2.3-1.5-3.8
			c0-1.4,0.4-2.6,1.3-3.5c0.9-0.9,1.9-1.5,3-1.7v-3.6h3.1v3.9c0.3,0.1,0.6,0.3,0.8,0.4c0.2,0.2,0.5,0.4,0.8,0.6
			c0.1,0,0.2,0.1,0.3,0.2c0.1,0.1,0.2,0.2,0.3,0.3c0,0.6-0.1,1.2-0.1,1.8c0,0.6,0,1.2,0,1.9h-3.1v-2.2c-0.2-0.1-0.3-0.1-0.5-0.2
			c-0.2,0-0.3-0.1-0.5-0.1c-0.6,0-1.1,0.2-1.6,0.7c-0.5,0.4-0.7,1-0.7,1.6c0,0.6,0.3,1.2,0.8,1.8c0.5,0.6,1.2,1.1,1.9,1.7
			c0.2,0.2,0.5,0.4,0.8,0.5c0.3,0.2,0.6,0.4,0.8,0.5c0.1,0.1,0.2,0.2,0.4,0.2c0.1,0.1,0.3,0.2,0.4,0.3c1.6,1.1,3.1,2.3,4.4,3.7
			c1.3,1.4,2,3.3,2,5.6C139.6,198.9,138.9,200.8,137.5,202.5z"/>
		<path fill="#FFFFFF" d="M201.4,171h3l-11.2,44.1h-2.9L201.4,171z"/>
		<path fill="#FFFFFF" d="M218.7,210.6v-2.4h1c0.5,0,0.9-0.2,1.3-0.5c0.4-0.4,0.5-0.8,0.5-1.3v-20.5v-3.6c-1.3,1.1-2.3,2.4-3,3.9
			c-0.7,1.5-1.1,3.1-1.1,4.8h-0.1H215h-0.1c0-1.7-0.4-3.4-1.1-4.9c-0.8-1.5-1.8-2.8-3.1-3.9v3.7v20.5c0,0.5,0.2,0.9,0.6,1.3
			c0.4,0.4,0.8,0.5,1.3,0.5h1v2.4h-8.1v-2.4h0.9c0.5,0,0.9-0.2,1.3-0.5c0.4-0.4,0.5-0.8,0.5-1.3v-23c0-0.5-0.2-0.9-0.5-1.3
			c-0.4-0.4-0.8-0.5-1.3-0.5h-0.9V179h4.5c0,0,0.1,0,0.1,0s0.1,0,0.1,0c0.1,0,0.2,0,0.2,0c0.1,0,0.1,0.1,0.2,0.1
			c1.2,0.7,2.3,1.6,3.3,2.7s1.7,2.3,2.3,3.6c0.1-0.2,0.2-0.4,0.3-0.6c0.1-0.2,0.2-0.4,0.3-0.6c0.1-0.1,0.1-0.2,0.2-0.3
			c0.1-0.1,0.1-0.2,0.2-0.3c0.5-1,1.2-1.9,1.9-2.7c0.7-0.9,1.6-1.4,2.7-1.7l0.6-0.2h4.5v2.4h-1c-0.5,0-0.9,0.2-1.3,0.5
			c-0.4,0.4-0.6,0.8-0.6,1.3v23c0,0.5,0.2,0.9,0.6,1.3c0.4,0.4,0.8,0.5,1.3,0.5h1v2.4H218.7z"/>
		<path fill="#FFFFFF" d="M253,206c-3.1,3.1-6.8,4.6-11.2,4.6c-4.4,0-8.1-1.5-11.2-4.6s-4.6-6.8-4.6-11.2c0-4.4,1.5-8.1,4.6-11.2
			c3.1-3.1,6.8-4.6,11.2-4.6c4.4,0,8.1,1.5,11.2,4.6c3.1,3.1,4.6,6.8,4.6,11.2C257.6,199.2,256.1,202.9,253,206z M251.2,185.4
			c-2.6-2.6-5.8-3.9-9.5-3.9c-3.7,0-6.8,1.3-9.4,3.9c-2.6,2.6-3.9,5.8-3.9,9.5c0,3.7,1.3,6.8,3.9,9.4c2.6,2.6,5.8,3.9,9.4,3.9
			c3.7,0,6.8-1.3,9.5-3.9c2.6-2.6,3.9-5.8,3.9-9.4C255.2,191.1,253.8,188,251.2,185.4z"/>
		<path fill="#FFFFFF" d="M268.4,210.6v-2.4h0.9c0.5,0,0.9-0.2,1.3-0.5c0.4-0.4,0.5-0.8,0.5-1.3v-6.1c0-3.6-0.8-6.9-2.5-10.1
			c-1.6-3.2-3.9-5.8-6.8-7.9v24.1c0,0.5,0.2,0.9,0.5,1.3c0.4,0.4,0.8,0.5,1.3,0.5h1v2.4h-8.1v-2.4h1c0.5,0,0.9-0.2,1.3-0.5
			c0.4-0.4,0.5-0.8,0.5-1.3v-23c0-0.5-0.2-0.9-0.5-1.3c-0.4-0.4-0.8-0.5-1.3-0.5h-1V179h4.4c0,0,0.1,0,0.1,0c0,0,0.1,0,0.1,0
			c0.1,0,0.2,0,0.2,0c0.1,0,0.1,0.1,0.2,0.1c2.1,1.2,3.9,2.7,5.5,4.5c1.6,1.8,2.9,3.8,4,5.9v-6.3c0-0.5-0.2-0.9-0.5-1.3
			c-0.4-0.4-0.8-0.5-1.3-0.5h-0.9V179h8.1v2.4h-1c-0.5,0-0.9,0.2-1.3,0.5c-0.4,0.4-0.6,0.8-0.6,1.3v23c0,0.5,0.2,0.9,0.6,1.3
			c0.4,0.4,0.8,0.5,1.3,0.5h1v2.4H268.4z"/>
		<path fill="#FFFFFF" d="M288.6,184.2v-0.9c0-0.5-0.2-0.9-0.5-1.3c-0.4-0.4-0.8-0.5-1.3-0.5h-1.1v24.9c0,0.5,0.2,0.9,0.5,1.3
			c0.4,0.4,0.8,0.5,1.3,0.5h1v2.4h-8.1v-2.4h0.9c0.5,0,0.9-0.2,1.3-0.5c0.4-0.4,0.5-0.8,0.5-1.3v-24.9h-1c-0.5,0-0.9,0.2-1.3,0.5
			c-0.4,0.4-0.5,0.8-0.5,1.3v0.9h-2.4V179H291v5.2H288.6z"/>
		<path fill="#FFFFFF" d="M302.4,210.6v-2.4h1c0.5,0,0.9-0.2,1.3-0.5c0.4-0.4,0.5-0.8,0.5-1.3v-16.4h-7.8v16.4
			c0,0.5,0.2,0.9,0.5,1.3c0.4,0.4,0.8,0.5,1.3,0.5h1v2.4h-8.1v-2.4h1c0.5,0,0.9-0.2,1.3-0.5c0.4-0.4,0.5-0.8,0.5-1.3v-23
			c0-0.5-0.2-0.9-0.5-1.3c-0.4-0.4-0.8-0.5-1.3-0.5h-1V179h8.1v2.4h-1c-0.5,0-0.9,0.2-1.3,0.5c-0.4,0.4-0.5,0.8-0.5,1.3v4.2h7.8
			v-4.2c0-0.5-0.2-0.9-0.5-1.3c-0.4-0.4-0.8-0.5-1.3-0.5h-1V179h8.1v2.4h-1c-0.5,0-0.9,0.2-1.3,0.5c-0.4,0.4-0.5,0.8-0.5,1.3v23
			c0,0.5,0.2,0.9,0.5,1.3c0.4,0.4,0.8,0.5,1.3,0.5h1v2.4H302.4z"/>
	</g>
	
		<circle clip-path="url(#SVGID_2_)" fill="none" stroke="#3E5029" stroke-width="16" stroke-miterlimit="10" cx="220.3" cy="220.6" r="216.2"/>
</g>
<g>
	<path fill="#FFFFFF" d="M154.2,193.2c-1.1,2-2.4,3.9-3.8,5.8c-0.2,0.2-0.3,0.4-0.5,0.6c-0.1,0.2-0.3,0.4-0.4,0.6
		c-1.1,1.4-2.2,2.9-3.2,4.4c-1,1.5-1.8,3.1-2.4,4.7h6.1c0.6,0,1-0.2,1.4-0.6c0.4-0.4,0.6-0.9,0.6-1.4v-1.9h2.6v6.6l-14,0l0.3-1.6
		c0.4-2.2,1.2-4.3,2.4-6.1c1.2-1.9,2.5-3.7,3.9-5.5c0,0,0.1-0.1,0.1-0.1c0,0,0.1-0.1,0.1-0.1c0.1-0.2,0.3-0.4,0.4-0.6
		c0.1-0.2,0.3-0.4,0.5-0.6c1.3-1.7,2.4-3.4,3.4-5.1s1.5-3.5,1.5-5.4c0-2-0.7-3.7-2.1-4.9c-1.4-1.2-2.9-1.8-4.6-1.8
		c-0.5,0-0.9,0-1.4,0.1c-0.5,0.1-0.9,0.3-1.4,0.5c-0.7,0.3-1.2,0.8-1.5,1.4c-0.3,0.6-0.4,1.3-0.4,2h-2.6v-6.7h2.6v1.3
		c0.7-0.4,1.5-0.7,2.3-1c0.8-0.2,1.6-0.3,2.4-0.3c2.5,0,4.7,0.9,6.6,2.7c1.8,1.8,2.7,4,2.7,6.6C155.8,189.1,155.3,191.2,154.2,193.2
		z"/>
	<path fill="#FFFFFF" d="M186.1,206.9c-3.4,3.4-7.4,5-12.2,5c-4.7,0-8.8-1.7-12.2-5c-3.4-3.4-5-7.4-5-12.2c0-4.8,1.7-8.8,5-12.2
		c3.4-3.3,7.4-5,12.2-5c4.8,0,8.8,1.7,12.2,5c3.4,3.3,5,7.4,5,12.2C191.1,199.5,189.4,203.5,186.1,206.9z M184.1,184.4
		c-2.8-2.8-6.3-4.3-10.3-4.3c-4,0-7.4,1.4-10.3,4.3c-2.9,2.8-4.3,6.3-4.3,10.3c0,4,1.4,7.4,4.3,10.3c2.9,2.9,6.3,4.3,10.3,4.3
		c4,0,7.4-1.4,10.3-4.3c2.8-2.9,4.3-6.3,4.3-10.3C188.4,190.7,187,187.3,184.1,184.4z"/>
</g>
<g>
	<path fill="#FFFFFF" d="M77.6,150.9v-4.1h1.7c0.9,0,1.6-0.3,2.2-0.9c0.6-0.6,0.9-1.3,0.9-2.1V105c0-0.9-0.3-1.6-0.9-2.2
		s-1.3-0.9-2.2-0.9h-1.7v-4.1h13.6v4.1h-1.7c-0.9,0-1.6,0.3-2.2,0.9s-0.9,1.3-0.9,2.2v41.9h9.8c0.9,0,1.6-0.4,2.2-0.9
		c0.6-0.6,0.9-1.3,0.9-2.1v-0.1V142h4.1v8.9H77.6z"/>
	<path fill="#FFFFFF" d="M198.1,164.7c-8.3,3.3-16.7,4.9-25.4,4.8c-8.6,0-17-1.6-25.2-4.9c-8.2-3.3-15.7-8.1-22.2-14.6
		c-2-2.1-3.8-4.2-5.5-6.4c-1.6-2.2-3.2-4.4-4.7-6.8v6.9c0,0.9,0.3,1.6,0.9,2.2s1.3,0.9,2.2,0.9h1.7v4.1h-13.6v-4.1h1.7
		c0.9,0,1.6-0.3,2.2-0.9c0.6-0.6,0.9-1.3,0.9-2.1v-26.2c0-4.4,1.1-8.4,3.3-11.8c2.2-3.4,5.1-6.2,8.8-8.4c3.7,2.2,6.7,5,8.9,8.4
		c2.2,3.4,3.3,7.3,3.3,11.8v14.8c0.2,0,0.4,0,0.8,0c0.4,0,0.8,0,1.2,0c0.4,0,0.8,0,1.1,0c0.4,0,0.6,0,0.8,0v4.1h-3.9v7.3
		c0,0.8,0.4,1.5,1,2.1s1.3,0.9,2.1,0.9h1.7v4.1h-7.7c5.9,4.8,12.3,8.5,19.3,10.9c7,2.4,14.1,3.7,21.3,3.7c8.1-0.1,16.1-1.6,23.8-4.7
		c7.7-3.1,14.7-7.6,20.8-13.7l2.9,2.9C213.8,156.5,206.3,161.4,198.1,164.7z M131.1,117.6c0-3.1-0.7-6-2.1-8.7
		c-1.4-2.7-3.4-4.9-5.9-6.7c-2.5,1.7-4.4,3.9-5.8,6.7c-1.4,2.7-2.1,5.6-2.1,8.7v14.8c1.3,0,2.6,0,4,0c1.3,0,2.7,0,4,0
		c1.3,0,2.6,0,4,0c1.3,0,2.7,0,4,0V117.6z M131.1,136.5h-11.4c1.2,1.9,2.4,3.7,3.8,5.4c1.4,1.7,2.8,3.4,4.4,4.9h0.2
		c0.9,0,1.6-0.3,2.2-0.9s0.9-1.3,0.9-2.2V136.5z"/>
	<path fill="#FFFFFF" d="M160.8,150.9v-4.1h1.6c0.9,0,1.6-0.3,2.2-0.9s0.9-1.3,0.9-2.2v-10.3c0-6-1.4-11.7-4.2-17
		c-2.8-5.3-6.6-9.7-11.4-13.2v40.5c0,0.9,0.3,1.6,0.9,2.2s1.3,0.9,2.2,0.9h1.7v4.1h-13.6v-4.1h1.7c0.9,0,1.6-0.3,2.2-0.9
		s0.9-1.3,0.9-2.2V105c0-0.9-0.3-1.6-0.9-2.2s-1.3-0.9-2.2-0.9h-1.7v-4.1h7.3c0,0,0.1,0,0.2,0c0,0,0.1,0,0.2,0.1c0.2,0,0.3,0,0.4,0
		c0.1,0,0.2,0.1,0.3,0.2c3.5,2,6.6,4.6,9.3,7.6c2.7,3.1,4.9,6.4,6.7,10V105c0-0.9-0.3-1.6-0.9-2.2s-1.3-0.9-2.2-0.9h-1.6v-4.1h13.6
		v4.1h-1.7c-0.8,0-1.5,0.3-2.2,0.9c-0.6,0.6-0.9,1.3-0.9,2.2v38.8c0,0.9,0.3,1.6,0.9,2.2c0.6,0.6,1.3,0.9,2.2,0.9h1.7v4.1H160.8z"/>
	<path fill="#FFFFFF" d="M202.3,143c-5.1,5.2-11.3,7.8-18.6,7.9h-7.2v-4.1h1.6h0.1c0.9,0,1.6-0.3,2.2-0.9c0.6-0.6,0.9-1.3,0.9-2.2
		V105c0-0.9-0.3-1.6-0.9-2.2s-1.3-0.9-2.2-0.9h-1.7v-4.1h7.2c7.3,0.1,13.5,2.7,18.6,7.9c5.1,5.2,7.7,11.4,7.7,18.7
		S207.4,137.8,202.3,143z M199.9,109.1c-4-4.3-8.8-6.7-14.6-7.2v44.8c5.8-0.5,10.6-2.9,14.6-7.2c4-4.3,5.9-9.4,5.9-15.2
		C205.9,118.5,203.9,113.4,199.9,109.1z"/>
	<path fill="#FFFFFF" d="M234.2,146.1c-3.2,3.2-7.1,4.8-11.6,4.8c-1.5,0-2.9-0.2-4.4-0.6c-1.4-0.4-2.8-1-4-1.7v2.3h-4.1v-11.8h4.1
		v1.4v1.6c0,1.2,0.5,2.1,1.5,2.8c1,0.7,2.1,1.2,3.3,1.5c0.7,0.2,1.4,0.3,2,0.4c0.6,0.1,1.2,0.1,1.6,0.1c3.4,0,6.3-1.2,8.7-3.6
		c2.4-2.4,3.6-5.3,3.6-8.7c0-3.2-1-5.8-3.1-7.9c-2-2.1-4.3-4-6.8-5.7c-0.3-0.2-0.5-0.3-0.8-0.5c-0.3-0.2-0.5-0.3-0.8-0.5
		c-0.4-0.2-0.7-0.4-1-0.6c-0.3-0.2-0.6-0.4-0.9-0.6c-2.3-1.6-4.3-3.3-6-5c-1.7-1.7-2.5-3.9-2.5-6.5c0-2.7,1-4.9,2.9-6.7
		c1.9-1.8,4.1-2.6,6.5-2.6c0.6,0,1.1,0.1,1.7,0.2c0.6,0.1,1.1,0.3,1.6,0.5v-0.8h4.1v9h-4.1c0-0.3,0-0.5,0-0.8c0-0.3,0-0.6,0-0.9
		c0-1-0.3-1.8-1-2.3c-0.7-0.5-1.5-0.8-2.5-0.8c-0.1,0-0.1,0-0.2,0c-0.1,0-0.1,0-0.2,0c-1.2,0.1-2.3,0.6-3.3,1.6
		c-1,0.9-1.5,2.1-1.5,3.6c0,1.6,0.6,3,1.9,4.2c1.2,1.3,2.7,2.5,4.4,3.7c0.4,0.3,0.8,0.5,1.2,0.8c0.4,0.3,0.8,0.5,1.2,0.8
		c0.3,0.2,0.5,0.3,0.8,0.5c0.3,0.2,0.5,0.3,0.8,0.5c2.9,2,5.6,4.2,8,6.8s3.6,6,3.6,10.1C239.1,139,237.5,142.9,234.2,146.1z"/>
	<path fill="#FFFFFF" d="M267.2,150.9c-7.3,0-13.6-2.6-18.8-7.8c-5.2-5.2-7.8-11.5-7.8-18.8c0-7.3,2.6-13.6,7.8-18.8
		c5.2-5.2,11.5-7.8,18.8-7.8c0.4,0,0.7,0,1,0c0.3,0,0.7,0,1,0v9.2h-4.1c0-0.1,0-0.2,0-0.3c0-0.1,0-0.2,0-0.3c0-1-0.4-1.9-1.1-2.6
		c-0.8-0.7-1.6-1.1-2.6-1.1c-0.2,0-0.4,0-0.5,0c-0.2,0-0.3,0.1-0.5,0.1c-4.5,1.4-8.3,4.1-11.3,8.1c-3,4-4.5,8.4-4.5,13.4
		c0,5.8,2,10.8,5.9,15.1c4,4.3,8.8,6.7,14.5,7.3c0.7,0.1,1.4,0.1,2.1,0.1c0.7,0,1.3,0,2,0v4.1H267.2z"/>
	<path fill="#FFFFFF" d="M292.2,150.9v-4.1h1.6c0.9,0,1.6-0.3,2.2-0.9s0.9-1.3,0.9-2.2V138h-16v5.7c0,0.9,0.3,1.6,0.9,2.2
		s1.3,0.9,2.2,0.9h1.7v4.1h-13.6v-4.1h1.7c0.9,0,1.6-0.3,2.2-0.9s0.9-1.3,0.9-2.1V138h-3.3v-4.1h3.3v-16.3c0-4.4,1.1-8.4,3.3-11.8
		c2.2-3.4,5.1-6.2,8.8-8.4c3.7,2.2,6.7,5,8.9,8.4c2.2,3.4,3.3,7.3,3.3,11.8v26.2c0,0.8,0.4,1.5,1,2.1s1.3,0.9,2.1,0.9h1.7v4.1H292.2
		z M296.9,117.6c0-3.1-0.7-6-2.1-8.7c-1.4-2.7-3.4-4.9-5.9-6.7c-2.5,1.7-4.4,3.9-5.8,6.7c-1.4,2.7-2.1,5.6-2.1,8.7v16.3h16V117.6z"
		/>
	<path fill="#FFFFFF" d="M328.4,129.7c-3.3,3.6-7.3,5.7-12.1,6.3v1.5v6.2c0,0.9,0.3,1.6,0.9,2.2s1.3,0.9,2.2,0.9h1.7v4.1h-13.6v-4.1
		h1.7c0.9,0,1.6-0.3,2.2-0.9s0.9-1.3,0.9-2.2V105c0-0.9-0.3-1.6-0.9-2.2s-1.3-0.9-2.2-0.9h-1.7v-4.1h7.4c5.1,0,9.4,1.9,13.1,5.7
		c3.6,3.8,5.4,8.3,5.4,13.5C333.3,121.8,331.7,126.1,328.4,129.7z M325.5,107c-2.5-2.8-5.6-4.5-9.2-5v29.8c3.6-0.5,6.7-2.2,9.2-5
		c2.5-2.8,3.7-6.1,3.7-9.9C329.2,113.1,328,109.8,325.5,107z"/>
	<path fill="#FFFFFF" d="M335.1,150.9v-4.1h1.7c0.9,0,1.6-0.3,2.2-0.9s0.9-1.3,0.9-2.1v-27.7h-4.8V112h4.8v-7.1
		c-0.1-0.9-0.4-1.6-0.9-2.2c-0.6-0.6-1.3-0.9-2.2-0.9h-1.7v-4.1H361v8.8h-4.1V105v-0.1c-0.1-0.9-0.4-1.6-0.9-2.2
		c-0.6-0.6-1.3-0.9-2.2-0.9H344V112h9.5v4.1H344v30.7h9.9c0.8,0,1.5-0.4,2.1-0.9c0.6-0.6,0.9-1.3,0.9-2.1v-0.1V142h4.1v8.9H335.1z"
		/>
</g>
</svg>
