<?xml version="1.0" encoding="utf-8"?>
<!-- Generator: Adobe Illustrator 17.1.0, SVG Export Plug-In . SVG Version: 6.00 Build 0)  -->
<!DOCTYPE svg PUBLIC "-//W3C//DTD SVG 1.1//EN" "http://www.w3.org/Graphics/SVG/1.1/DTD/svg11.dtd">
<svg version="1.1" id="Layer_1" xmlns="http://www.w3.org/2000/svg" xmlns:xlink="http://www.w3.org/1999/xlink" x="0px" y="0px"
	 viewBox="0 0 457.2 457.2" enable-background="new 0 0 457.2 457.2" xml:space="preserve">
<g>
	<g>
		<path fill="#010101" d="M217.5,89.3c1.8,0,1.8-2.8,0-2.8C215.7,86.5,215.7,89.3,217.5,89.3L217.5,89.3z"/>
	</g>
</g>
<g>
	<g>
		<path fill="#010101" d="M217.5,89.3c1.8,0,1.8-2.8,0-2.8C215.7,86.5,215.7,89.3,217.5,89.3L217.5,89.3z"/>
	</g>
</g>
<circle fill="#010101" stroke="#3E5029" stroke-width="16" stroke-miterlimit="10" cx="228.4" cy="228.2" r="216.2"/>
<g>
	<g>
		<g>
			<polygon fill="#C57029" points="249.9,327.8 219.9,423.7 208.9,323.8 			"/>
		</g>
		<g>
			<polygon fill="#C57029" points="249.4,321.1 251.7,422 209.3,330.4 			"/>
		</g>
		<g>
			<polygon fill="#C57029" points="247,315 281.3,410.8 211.8,336.5 			"/>
		</g>
		<g>
			<polygon fill="#C57029" points="242.8,310.1 305.9,391.3 216,341.4 			"/>
		</g>
		<g>
			<polygon fill="#C57029" points="237.4,306.8 322.9,365.4 221.4,344.7 			"/>
		</g>
		<g>
			<polygon fill="#C57029" points="231.4,305.3 330.8,335.6 227.4,346.3 			"/>
		</g>
		<g>
			<polygon fill="#C57029" points="225.1,305.6 328.8,304.8 233.6,345.9 			"/>
		</g>
		<g>
			<polygon fill="#C57029" points="219.2,307.9 317,276.1 239.5,343.7 			"/>
		</g>
		<g>
			<polygon fill="#C57029" points="214.2,311.9 296.7,252.3 244.6,339.7 			"/>
		</g>
		<g>
			<polygon fill="#C57029" points="210.6,317.4 269.7,235.6 248.2,334.2 			"/>
		</g>
		<g>
			<polygon fill="#C57029" points="208.9,323.8 238.9,227.8 249.9,327.8 			"/>
		</g>
		<g>
			<polygon fill="#C57029" points="209.3,330.4 207.1,229.6 249.4,321.1 			"/>
		</g>
		<g>
			<polygon fill="#C57029" points="211.8,336.5 177.4,240.8 247,315 			"/>
		</g>
		<g>
			<polygon fill="#C57029" points="216,341.4 152.9,260.3 242.8,310.1 			"/>
		</g>
		<g>
			<polygon fill="#C57029" points="221.4,344.7 135.9,286.2 237.4,306.8 			"/>
		</g>
		<g>
			<polygon fill="#C57029" points="227.4,346.3 128,316 231.4,305.3 			"/>
		</g>
		<g>
			<polygon fill="#C57029" points="233.6,345.9 130,346.7 225.1,305.6 			"/>
		</g>
		<g>
			<polygon fill="#C57029" points="239.5,343.7 141.8,375.4 219.2,307.9 			"/>
		</g>
		<g>
			<polygon fill="#C57029" points="244.6,339.7 162.1,399.3 214.2,311.9 			"/>
		</g>
		<g>
			<polygon fill="#C57029" points="248.2,334.2 189,415.9 210.6,317.4 			"/>
		</g>
	</g>
</g>
<rect x="215.9" y="315.8" fill="none" width="68.6" height="67.6"/>
<g>
	<g>
		<g>
			<polygon fill="#A0A8AA" points="242.8,327.1 222.5,396.4 216,324.5 			"/>
		</g>
		<g>
			<polygon fill="#A0A8AA" points="242.5,322.7 245.5,395.2 216.3,328.8 			"/>
		</g>
		<g>
			<polygon fill="#A0A8AA" points="240.9,318.7 266.9,387.1 217.9,332.8 			"/>
		</g>
		<g>
			<polygon fill="#A0A8AA" points="238.1,315.5 284.5,373 220.6,336 			"/>
		</g>
		<g>
			<polygon fill="#A0A8AA" points="234.6,313.4 296.8,354.3 224.1,338.2 			"/>
		</g>
		<g>
			<polygon fill="#A0A8AA" points="230.7,312.4 302.5,332.8 228.1,339.2 			"/>
		</g>
		<g>
			<polygon fill="#A0A8AA" points="226.6,312.6 301.1,310.7 232.2,338.9 			"/>
		</g>
		<g>
			<polygon fill="#A0A8AA" points="222.7,314.1 292.6,290 236,337.5 			"/>
		</g>
		<g>
			<polygon fill="#A0A8AA" points="219.4,316.7 277.9,272.8 239.3,334.9 			"/>
		</g>
		<g>
			<polygon fill="#A0A8AA" points="217.1,320.3 258.5,260.8 241.7,331.3 			"/>
		</g>
		<g>
			<polygon fill="#A0A8AA" points="216,324.5 236.2,255.1 242.8,327.1 			"/>
		</g>
		<g>
			<polygon fill="#A0A8AA" points="216.3,328.8 213.3,256.4 242.5,322.7 			"/>
		</g>
		<g>
			<polygon fill="#A0A8AA" points="217.9,332.8 191.9,264.4 240.9,318.7 			"/>
		</g>
		<g>
			<polygon fill="#A0A8AA" points="220.6,336 174.2,278.5 238.1,315.5 			"/>
		</g>
		<g>
			<polygon fill="#A0A8AA" points="224.1,338.2 161.9,297.2 234.6,313.4 			"/>
		</g>
		<g>
			<polygon fill="#A0A8AA" points="228.1,339.2 156.2,318.7 230.7,312.4 			"/>
		</g>
		<g>
			<polygon fill="#A0A8AA" points="232.2,338.9 157.7,340.9 226.6,312.6 			"/>
		</g>
		<g>
			<polygon fill="#A0A8AA" points="236,337.5 166.2,361.6 222.7,314.1 			"/>
		</g>
		<g>
			<polygon fill="#A0A8AA" points="239.3,334.9 180.9,378.8 219.4,316.7 			"/>
		</g>
		<g>
			<polygon fill="#A0A8AA" points="241.7,331.3 200.3,390.8 217.1,320.3 			"/>
		</g>
	</g>
</g>
<g>
	<path fill="#FFFFFF" d="M145.6,211c-1.4,1.7-3.1,2.7-5.1,3.2v7.9h-3.1v-7.8c-1.1-0.1-2-0.4-2.9-0.9c-0.9-0.5-1.7-1.1-2.6-1.8
		c0-0.8,0-1.6,0-2.4s0-1.6,0-2.4h3.1v3.4c0.4,0.3,0.8,0.5,1.3,0.7s0.9,0.3,1.3,0.4c0.2,0,0.3,0,0.5,0c0.2,0,0.3,0,0.5,0
		c1.6,0,3-0.5,4.2-1.6c1.2-1.1,1.9-2.5,1.9-4.4c0-1.6-0.5-2.9-1.6-3.9c-1-1.1-2.2-2-3.5-2.9c-0.1-0.1-0.2-0.2-0.3-0.2
		c-0.1-0.1-0.2-0.2-0.3-0.2c-0.1-0.1-0.2-0.1-0.3-0.2c-0.1-0.1-0.2-0.1-0.3-0.2c-1.3-0.9-2.5-1.9-3.5-2.9c-1-1-1.5-2.3-1.5-3.8
		c0-1.4,0.4-2.6,1.3-3.5c0.9-0.9,1.9-1.5,3-1.7v-3.6h3.1v3.9c0.3,0.1,0.6,0.3,0.8,0.4c0.2,0.2,0.5,0.4,0.8,0.6
		c0.1,0,0.2,0.1,0.3,0.2c0.1,0.1,0.2,0.2,0.3,0.3c0,0.6-0.1,1.2-0.1,1.8c0,0.6,0,1.2,0,1.9h-3.1v-2.2c-0.2-0.1-0.3-0.1-0.5-0.2
		c-0.2,0-0.3-0.1-0.5-0.1c-0.6,0-1.1,0.2-1.6,0.7c-0.5,0.4-0.7,1-0.7,1.6c0,0.6,0.3,1.2,0.8,1.8c0.5,0.6,1.2,1.1,1.9,1.7
		c0.2,0.2,0.5,0.4,0.8,0.5c0.3,0.2,0.6,0.4,0.8,0.5c0.1,0.1,0.2,0.2,0.4,0.2c0.1,0.1,0.3,0.2,0.4,0.3c1.6,1.1,3.1,2.3,4.4,3.7
		c1.3,1.4,2,3.3,2,5.6C147.7,207.5,147,209.4,145.6,211z"/>
	<path fill="#FFFFFF" d="M209.5,179.6h3l-11.2,44.1h-2.9L209.5,179.6z"/>
	<path fill="#FFFFFF" d="M226.7,219.2v-2.4h1c0.5,0,0.9-0.2,1.3-0.5c0.4-0.4,0.5-0.8,0.5-1.3v-20.5v-3.6c-1.3,1.1-2.3,2.4-3,3.9
		c-0.7,1.5-1.1,3.1-1.1,4.8h-0.1h-2.3H223c0-1.7-0.4-3.4-1.1-4.9c-0.8-1.5-1.8-2.8-3.1-3.9v3.7v20.5c0,0.5,0.2,0.9,0.6,1.3
		c0.4,0.4,0.8,0.5,1.3,0.5h1v2.4h-8.1v-2.4h0.9c0.5,0,0.9-0.2,1.3-0.5c0.4-0.4,0.5-0.8,0.5-1.3v-23c0-0.5-0.2-0.9-0.5-1.3
		c-0.4-0.4-0.8-0.5-1.3-0.5h-0.9v-2.4h4.5c0,0,0.1,0,0.1,0s0.1,0,0.1,0c0.1,0,0.2,0,0.2,0c0.1,0,0.1,0.1,0.2,0.1
		c1.2,0.7,2.3,1.6,3.3,2.7s1.7,2.3,2.3,3.6c0.1-0.2,0.2-0.4,0.3-0.6c0.1-0.2,0.2-0.4,0.3-0.6c0.1-0.1,0.1-0.2,0.2-0.3
		c0.1-0.1,0.1-0.2,0.2-0.3c0.5-1,1.2-1.9,1.9-2.7c0.7-0.9,1.6-1.4,2.7-1.7l0.6-0.2h4.5v2.4h-1c-0.5,0-0.9,0.2-1.3,0.5
		c-0.4,0.4-0.6,0.8-0.6,1.3v23c0,0.5,0.2,0.9,0.6,1.3c0.4,0.4,0.8,0.5,1.3,0.5h1v2.4H226.7z"/>
	<path fill="#FFFFFF" d="M261.1,214.5c-3.1,3.1-6.8,4.6-11.2,4.6c-4.4,0-8.1-1.5-11.2-4.6s-4.6-6.8-4.6-11.2c0-4.4,1.5-8.1,4.6-11.2
		c3.1-3.1,6.8-4.6,11.2-4.6c4.4,0,8.1,1.5,11.2,4.6c3.1,3.1,4.6,6.8,4.6,11.2C265.7,207.7,264.2,211.5,261.1,214.5z M259.3,193.9
		c-2.6-2.6-5.8-3.9-9.5-3.9c-3.7,0-6.8,1.3-9.4,3.9c-2.6,2.6-3.9,5.8-3.9,9.5c0,3.7,1.3,6.8,3.9,9.4c2.6,2.6,5.8,3.9,9.4,3.9
		c3.7,0,6.8-1.3,9.5-3.9c2.6-2.6,3.9-5.8,3.9-9.4C263.2,199.7,261.9,196.5,259.3,193.9z"/>
	<path fill="#FFFFFF" d="M276.5,219.2v-2.4h0.9c0.5,0,0.9-0.2,1.3-0.5c0.4-0.4,0.5-0.8,0.5-1.3v-6.1c0-3.6-0.8-6.9-2.5-10.1
		c-1.6-3.2-3.9-5.8-6.8-7.9v24.1c0,0.5,0.2,0.9,0.5,1.3c0.4,0.4,0.8,0.5,1.3,0.5h1v2.4h-8.1v-2.4h1c0.5,0,0.9-0.2,1.3-0.5
		c0.4-0.4,0.5-0.8,0.5-1.3v-23c0-0.5-0.2-0.9-0.5-1.3c-0.4-0.4-0.8-0.5-1.3-0.5h-1v-2.4h4.4c0,0,0.1,0,0.1,0c0,0,0.1,0,0.1,0
		c0.1,0,0.2,0,0.2,0c0.1,0,0.1,0.1,0.2,0.1c2.1,1.2,3.9,2.7,5.5,4.5c1.6,1.8,2.9,3.8,4,5.9v-6.3c0-0.5-0.2-0.9-0.5-1.3
		c-0.4-0.4-0.8-0.5-1.3-0.5h-0.9v-2.4h8.1v2.4h-1c-0.5,0-0.9,0.2-1.3,0.5c-0.4,0.4-0.6,0.8-0.6,1.3v23c0,0.5,0.2,0.9,0.6,1.3
		c0.4,0.4,0.8,0.5,1.3,0.5h1v2.4H276.5z"/>
	<path fill="#FFFFFF" d="M296.7,192.8v-0.9c0-0.5-0.2-0.9-0.5-1.3c-0.4-0.4-0.8-0.5-1.3-0.5h-1.1v24.9c0,0.5,0.2,0.9,0.5,1.3
		c0.4,0.4,0.8,0.5,1.3,0.5h1v2.4h-8.1v-2.4h0.9c0.5,0,0.9-0.2,1.3-0.5c0.4-0.4,0.5-0.8,0.5-1.3V190h-1c-0.5,0-0.9,0.2-1.3,0.5
		c-0.4,0.4-0.5,0.8-0.5,1.3v0.9H286v-5.2h13.1v5.2H296.7z"/>
	<path fill="#FFFFFF" d="M310.4,219.2v-2.4h1c0.5,0,0.9-0.2,1.3-0.5c0.4-0.4,0.5-0.8,0.5-1.3v-16.4h-7.8v16.4c0,0.5,0.2,0.9,0.5,1.3
		c0.4,0.4,0.8,0.5,1.3,0.5h1v2.4h-8.1v-2.4h1c0.5,0,0.9-0.2,1.3-0.5c0.4-0.4,0.5-0.8,0.5-1.3v-23c0-0.5-0.2-0.9-0.5-1.3
		c-0.4-0.4-0.8-0.5-1.3-0.5h-1v-2.4h8.1v2.4h-1c-0.5,0-0.9,0.2-1.3,0.5c-0.4,0.4-0.5,0.8-0.5,1.3v4.2h7.8v-4.2
		c0-0.5-0.2-0.9-0.5-1.3c-0.4-0.4-0.8-0.5-1.3-0.5h-1v-2.4h8.1v2.4h-1c-0.5,0-0.9,0.2-1.3,0.5c-0.4,0.4-0.5,0.8-0.5,1.3v23
		c0,0.5,0.2,0.9,0.5,1.3c0.4,0.4,0.8,0.5,1.3,0.5h1v2.4H310.4z"/>
</g>
<circle fill="none" stroke="#3E5029" stroke-width="16" stroke-miterlimit="10" cx="228.4" cy="229.2" r="216.2"/>
<circle fill="none" stroke="#C57029" stroke-width="16" stroke-miterlimit="10" cx="228.4" cy="229.2" r="216.2"/>
<g>
	<path fill="#FFFFFF" d="M162.2,201.7c-1.1,2-2.4,3.9-3.8,5.8c-0.2,0.2-0.3,0.4-0.5,0.6c-0.1,0.2-0.3,0.4-0.4,0.6
		c-1.1,1.4-2.2,2.9-3.2,4.4c-1,1.5-1.8,3.1-2.4,4.7h6.1c0.6,0,1-0.2,1.4-0.6c0.4-0.4,0.6-0.9,0.6-1.4v-1.9h2.6v6.6l-14,0l0.3-1.6
		c0.4-2.2,1.2-4.3,2.4-6.1c1.2-1.9,2.5-3.7,3.9-5.5c0,0,0.1-0.1,0.1-0.1c0,0,0.1-0.1,0.1-0.1c0.1-0.2,0.3-0.4,0.4-0.6
		c0.1-0.2,0.3-0.4,0.5-0.6c1.3-1.7,2.4-3.4,3.4-5.1s1.5-3.5,1.5-5.4c0-2-0.7-3.7-2.1-4.9c-1.4-1.2-2.9-1.8-4.6-1.8
		c-0.5,0-0.9,0-1.4,0.1c-0.5,0.1-0.9,0.3-1.4,0.5c-0.7,0.3-1.2,0.8-1.5,1.4c-0.3,0.6-0.4,1.3-0.4,2h-2.6V186h2.6v1.3
		c0.7-0.4,1.5-0.7,2.3-1c0.8-0.2,1.6-0.3,2.4-0.3c2.5,0,4.7,0.9,6.6,2.7c1.8,1.8,2.7,4,2.7,6.6C163.9,197.6,163.4,199.8,162.2,201.7
		z"/>
	<path fill="#FFFFFF" d="M194.1,215.4c-3.4,3.4-7.4,5-12.2,5c-4.7,0-8.8-1.7-12.2-5c-3.4-3.4-5-7.4-5-12.2c0-4.8,1.7-8.8,5-12.2
		c3.4-3.3,7.4-5,12.2-5c4.8,0,8.8,1.7,12.2,5c3.4,3.3,5,7.4,5,12.2C199.2,208,197.5,212.1,194.1,215.4z M192.2,193
		c-2.8-2.8-6.3-4.3-10.3-4.3c-4,0-7.4,1.4-10.3,4.3c-2.9,2.8-4.3,6.3-4.3,10.3c0,4,1.4,7.4,4.3,10.3c2.9,2.9,6.3,4.3,10.3,4.3
		c4,0,7.4-1.4,10.3-4.3c2.8-2.9,4.3-6.3,4.3-10.3C196.5,199.3,195.1,195.8,192.2,193z"/>
</g>
<g>
	<path fill="#FFFFFF" d="M85.7,159.5v-4.1h1.7c0.9,0,1.6-0.3,2.2-0.9c0.6-0.6,0.9-1.3,0.9-2.1v-38.8c0-0.9-0.3-1.6-0.9-2.2
		s-1.3-0.9-2.2-0.9h-1.7v-4.1h13.6v4.1h-1.7c-0.9,0-1.6,0.3-2.2,0.9s-0.9,1.3-0.9,2.2v41.9h9.8c0.9,0,1.6-0.4,2.2-0.9
		c0.6-0.6,0.9-1.3,0.9-2.1v-0.1v-1.7h4.1v8.9H85.7z"/>
	<path fill="#FFFFFF" d="M206.2,173.2c-8.3,3.3-16.7,4.9-25.4,4.8c-8.6,0-17-1.6-25.2-4.9c-8.2-3.3-15.7-8.1-22.2-14.6
		c-2-2.1-3.8-4.2-5.5-6.4c-1.6-2.2-3.2-4.4-4.7-6.8v6.9c0,0.9,0.3,1.6,0.9,2.2s1.3,0.9,2.2,0.9h1.7v4.1h-13.6v-4.1h1.7
		c0.9,0,1.6-0.3,2.2-0.9c0.6-0.6,0.9-1.3,0.9-2.1v-26.2c0-4.4,1.1-8.4,3.3-11.8c2.2-3.4,5.1-6.2,8.8-8.4c3.7,2.2,6.7,5,8.9,8.4
		c2.2,3.4,3.3,7.3,3.3,11.8V141c0.2,0,0.4,0,0.8,0c0.4,0,0.8,0,1.2,0c0.4,0,0.8,0,1.1,0c0.4,0,0.6,0,0.8,0v4.1h-3.9v7.3
		c0,0.8,0.4,1.5,1,2.1s1.3,0.9,2.1,0.9h1.7v4.1h-7.7c5.9,4.8,12.3,8.5,19.3,10.9c7,2.4,14.1,3.7,21.3,3.7c8.1-0.1,16.1-1.6,23.8-4.7
		c7.7-3.1,14.7-7.6,20.8-13.7l2.9,2.9C221.8,165.1,214.4,170,206.2,173.2z M139.2,126.2c0-3.1-0.7-6-2.1-8.7
		c-1.4-2.7-3.4-4.9-5.9-6.7c-2.5,1.7-4.4,3.9-5.8,6.7c-1.4,2.7-2.1,5.6-2.1,8.7V141c1.3,0,2.6,0,4,0c1.3,0,2.7,0,4,0
		c1.3,0,2.6,0,4,0c1.3,0,2.7,0,4,0V126.2z M139.2,145.1h-11.4c1.2,1.9,2.4,3.7,3.8,5.4c1.4,1.7,2.8,3.4,4.4,4.9h0.2
		c0.9,0,1.6-0.3,2.2-0.9s0.9-1.3,0.9-2.2V145.1z"/>
	<path fill="#FFFFFF" d="M168.8,159.5v-4.1h1.6c0.9,0,1.6-0.3,2.2-0.9s0.9-1.3,0.9-2.2V142c0-6-1.4-11.7-4.2-17
		c-2.8-5.3-6.6-9.7-11.4-13.2v40.5c0,0.9,0.3,1.6,0.9,2.2s1.3,0.9,2.2,0.9h1.7v4.1h-13.6v-4.1h1.7c0.9,0,1.6-0.3,2.2-0.9
		s0.9-1.3,0.9-2.2v-38.8c0-0.9-0.3-1.6-0.9-2.2s-1.3-0.9-2.2-0.9h-1.7v-4.1h7.3c0,0,0.1,0,0.2,0c0,0,0.1,0,0.2,0.1
		c0.2,0,0.3,0,0.4,0c0.1,0,0.2,0.1,0.3,0.2c3.5,2,6.6,4.6,9.3,7.6c2.7,3.1,4.9,6.4,6.7,10v-10.7c0-0.9-0.3-1.6-0.9-2.2
		s-1.3-0.9-2.2-0.9h-1.6v-4.1h13.6v4.1h-1.7c-0.8,0-1.5,0.3-2.2,0.9c-0.6,0.6-0.9,1.3-0.9,2.2v38.8c0,0.9,0.3,1.6,0.9,2.2
		c0.6,0.6,1.3,0.9,2.2,0.9h1.7v4.1H168.8z"/>
	<path fill="#FFFFFF" d="M210.4,151.6c-5.1,5.2-11.3,7.8-18.6,7.9h-7.2v-4.1h1.6h0.1c0.9,0,1.6-0.3,2.2-0.9c0.6-0.6,0.9-1.3,0.9-2.2
		v-38.8c0-0.9-0.3-1.6-0.9-2.2s-1.3-0.9-2.2-0.9h-1.7v-4.1h7.2c7.3,0.1,13.5,2.7,18.6,7.9c5.1,5.2,7.7,11.4,7.7,18.7
		C218,140.2,215.5,146.4,210.4,151.6z M208,117.7c-4-4.3-8.8-6.7-14.6-7.2v44.8c5.8-0.5,10.6-2.9,14.6-7.2c4-4.3,5.9-9.4,5.9-15.2
		C213.9,127,212,122,208,117.7z"/>
	<path fill="#FFFFFF" d="M242.3,154.7c-3.2,3.2-7.1,4.8-11.6,4.8c-1.5,0-2.9-0.2-4.4-0.6c-1.4-0.4-2.8-1-4-1.7v2.3h-4.1v-11.8h4.1
		v1.4v1.6c0,1.2,0.5,2.1,1.5,2.8c1,0.7,2.1,1.2,3.3,1.5c0.7,0.2,1.4,0.3,2,0.4c0.6,0.1,1.2,0.1,1.6,0.1c3.4,0,6.3-1.2,8.7-3.6
		c2.4-2.4,3.6-5.3,3.6-8.7c0-3.2-1-5.8-3.1-7.9c-2-2.1-4.3-4-6.8-5.7c-0.3-0.2-0.5-0.3-0.8-0.5c-0.3-0.2-0.5-0.3-0.8-0.5
		c-0.4-0.2-0.7-0.4-1-0.6c-0.3-0.2-0.6-0.4-0.9-0.6c-2.3-1.6-4.3-3.3-6-5c-1.7-1.7-2.5-3.9-2.5-6.5c0-2.7,1-4.9,2.9-6.7
		c1.9-1.8,4.1-2.6,6.5-2.6c0.6,0,1.1,0.1,1.7,0.2c0.6,0.1,1.1,0.3,1.6,0.5v-0.8h4.1v9h-4.1c0-0.3,0-0.5,0-0.8c0-0.3,0-0.6,0-0.9
		c0-1-0.3-1.8-1-2.3c-0.7-0.5-1.5-0.8-2.5-0.8c-0.1,0-0.1,0-0.2,0c-0.1,0-0.1,0-0.2,0c-1.2,0.1-2.3,0.6-3.3,1.6
		c-1,0.9-1.5,2.1-1.5,3.6c0,1.6,0.6,3,1.9,4.2c1.2,1.3,2.7,2.5,4.4,3.7c0.4,0.3,0.8,0.5,1.2,0.8c0.4,0.3,0.8,0.5,1.2,0.8
		c0.3,0.2,0.5,0.3,0.8,0.5c0.3,0.2,0.5,0.3,0.8,0.5c2.9,2,5.6,4.2,8,6.8s3.6,6,3.6,10.1C247.2,147.6,245.6,151.5,242.3,154.7z"/>
	<path fill="#FFFFFF" d="M275.3,159.5c-7.3,0-13.6-2.6-18.8-7.8c-5.2-5.2-7.8-11.5-7.8-18.8c0-7.3,2.6-13.6,7.8-18.8
		c5.2-5.2,11.5-7.8,18.8-7.8c0.4,0,0.7,0,1,0c0.3,0,0.7,0,1,0v9.2h-4.1c0-0.1,0-0.2,0-0.3c0-0.1,0-0.2,0-0.3c0-1-0.4-1.9-1.1-2.6
		c-0.8-0.7-1.6-1.1-2.6-1.1c-0.2,0-0.4,0-0.5,0c-0.2,0-0.3,0.1-0.5,0.1c-4.5,1.4-8.3,4.1-11.3,8.1c-3,4-4.5,8.4-4.5,13.4
		c0,5.8,2,10.8,5.9,15.1c4,4.3,8.8,6.7,14.5,7.3c0.7,0.1,1.4,0.1,2.1,0.1c0.7,0,1.3,0,2,0v4.1H275.3z"/>
	<path fill="#FFFFFF" d="M300.3,159.5v-4.1h1.6c0.9,0,1.6-0.3,2.2-0.9s0.9-1.3,0.9-2.2v-5.7h-16v5.7c0,0.9,0.3,1.6,0.9,2.2
		s1.3,0.9,2.2,0.9h1.7v4.1h-13.6v-4.1h1.7c0.9,0,1.6-0.3,2.2-0.9s0.9-1.3,0.9-2.1v-5.8h-3.3v-4.1h3.3v-16.3c0-4.4,1.1-8.4,3.3-11.8
		c2.2-3.4,5.1-6.2,8.8-8.4c3.7,2.2,6.7,5,8.9,8.4c2.2,3.4,3.3,7.3,3.3,11.8v26.2c0,0.8,0.4,1.5,1,2.1s1.3,0.9,2.1,0.9h1.7v4.1H300.3
		z M305,126.2c0-3.1-0.7-6-2.1-8.7c-1.4-2.7-3.4-4.9-5.9-6.7c-2.5,1.7-4.4,3.9-5.8,6.7c-1.4,2.7-2.1,5.6-2.1,8.7v16.3h16V126.2z"/>
	<path fill="#FFFFFF" d="M336.5,138.3c-3.3,3.6-7.3,5.7-12.1,6.3v1.5v6.2c0,0.9,0.3,1.6,0.9,2.2s1.3,0.9,2.2,0.9h1.7v4.1h-13.6v-4.1
		h1.7c0.9,0,1.6-0.3,2.2-0.9s0.9-1.3,0.9-2.2v-38.8c0-0.9-0.3-1.6-0.9-2.2s-1.3-0.9-2.2-0.9h-1.7v-4.1h7.4c5.1,0,9.4,1.9,13.1,5.7
		c3.6,3.8,5.4,8.3,5.4,13.5C341.4,130.4,339.8,134.6,336.5,138.3z M333.6,115.6c-2.5-2.8-5.6-4.5-9.2-5v29.8c3.6-0.5,6.7-2.2,9.2-5
		c2.5-2.8,3.7-6.1,3.7-9.9C337.3,121.7,336.1,118.4,333.6,115.6z"/>
	<path fill="#FFFFFF" d="M343.2,159.5v-4.1h1.7c0.9,0,1.6-0.3,2.2-0.9s0.9-1.3,0.9-2.1v-27.7h-4.8v-4.1h4.8v-7.1
		c-0.1-0.9-0.4-1.6-0.9-2.2c-0.6-0.6-1.3-0.9-2.2-0.9h-1.7v-4.1h25.9v8.8H365v-1.6v-0.1c-0.1-0.9-0.4-1.6-0.9-2.2
		c-0.6-0.6-1.3-0.9-2.2-0.9h-9.8v10.1h9.5v4.1h-9.5v30.7h9.9c0.8,0,1.5-0.4,2.1-0.9c0.6-0.6,0.9-1.3,0.9-2.1v-0.1v-1.7h4.1v8.9
		H343.2z"/>
</g>
</svg>
