<?xml version="1.0" encoding="utf-8"?>
<!-- Generator: Adobe Illustrator 17.1.0, SVG Export Plug-In . SVG Version: 6.00 Build 0)  -->
<!DOCTYPE svg PUBLIC "-//W3C//DTD SVG 1.1//EN" "http://www.w3.org/Graphics/SVG/1.1/DTD/svg11.dtd">
<svg version="1.1" id="Layer_1" xmlns="http://www.w3.org/2000/svg" xmlns:xlink="http://www.w3.org/1999/xlink" x="0px" y="0px"
	 viewBox="0 0 440.4 443" enable-background="new 0 0 440.4 443" xml:space="preserve">
<g>
	<g>
		<path fill="#010101" d="M209.5,80.7c1.8,0,1.8-2.8,0-2.8C207.6,77.9,207.6,80.7,209.5,80.7L209.5,80.7z"/>
	</g>
</g>
<g>
	<g>
		<path fill="#010101" d="M209.5,80.7c1.8,0,1.8-2.8,0-2.8C207.6,77.9,207.6,80.7,209.5,80.7L209.5,80.7z"/>
	</g>
</g>
<g>
	<defs>
		<circle id="SVGID_1_" cx="220.3" cy="220.6" r="216.2"/>
	</defs>
	<clipPath id="SVGID_2_">
		<use xlink:href="#SVGID_1_"  overflow="visible"/>
	</clipPath>
	
		<circle clip-path="url(#SVGID_2_)" fill="#010101" stroke="#3E5029" stroke-width="16" stroke-miterlimit="10" cx="220.3" cy="219.6" r="216.2"/>
	
		<circle clip-path="url(#SVGID_2_)" fill="none" stroke="#3E5029" stroke-width="16" stroke-miterlimit="10" cx="737.1" cy="226.8" r="216.2"/>
	<g clip-path="url(#SVGID_2_)">
		<g>
			<g>
				<polygon fill="#3E5029" points="244.7,372.3 210.5,481.9 197.9,367.8 				"/>
			</g>
			<g>
				<polygon fill="#3E5029" points="244.2,364.8 246.8,479.9 198.4,375.4 				"/>
			</g>
			<g>
				<polygon fill="#3E5029" points="241.4,357.8 280.6,467.1 201.2,382.3 				"/>
			</g>
			<g>
				<polygon fill="#3E5029" points="236.6,352.2 308.6,444.9 206,387.9 				"/>
			</g>
			<g>
				<polygon fill="#3E5029" points="230.5,348.4 328,415.3 212.1,391.7 				"/>
			</g>
			<g>
				<polygon fill="#3E5029" points="223.6,346.7 337,381.3 219,393.5 				"/>
			</g>
			<g>
				<polygon fill="#3E5029" points="216.5,347.1 334.7,346.2 226.1,393.1 				"/>
			</g>
			<g>
				<polygon fill="#3E5029" points="209.7,349.6 321.3,313.4 232.9,390.5 				"/>
			</g>
			<g>
				<polygon fill="#3E5029" points="204,354.2 298.1,286.2 238.6,385.9 				"/>
			</g>
			<g>
				<polygon fill="#3E5029" points="199.8,360.5 267.3,267.2 242.7,379.7 				"/>
			</g>
			<g>
				<polygon fill="#3E5029" points="197.9,367.8 232.1,258.3 244.7,372.3 				"/>
			</g>
			<g>
				<polygon fill="#3E5029" points="198.4,375.4 195.8,260.3 244.2,364.8 				"/>
			</g>
			<g>
				<polygon fill="#3E5029" points="201.2,382.3 162,273 241.4,357.8 				"/>
			</g>
			<g>
				<polygon fill="#3E5029" points="206,387.9 134,295.3 236.6,352.2 				"/>
			</g>
			<g>
				<polygon fill="#3E5029" points="212.1,391.7 114.6,324.9 230.5,348.4 				"/>
			</g>
			<g>
				<polygon fill="#3E5029" points="219,393.5 105.5,358.9 223.6,346.7 				"/>
			</g>
			<g>
				<polygon fill="#3E5029" points="226.1,393.1 107.9,394 216.5,347.1 				"/>
			</g>
			<g>
				<polygon fill="#3E5029" points="232.9,390.5 121.3,426.7 209.7,349.6 				"/>
			</g>
			<g>
				<polygon fill="#3E5029" points="238.6,385.9 144.5,454 204,354.2 				"/>
			</g>
			<g>
				<polygon fill="#3E5029" points="242.7,379.7 175.2,473 199.8,360.5 				"/>
			</g>
		</g>
	</g>
	<rect x="207.8" y="307.3" clip-path="url(#SVGID_2_)" fill="none" width="68.6" height="67.6"/>
	<g clip-path="url(#SVGID_2_)">
		<g>
			<g>
				<polygon fill="#A0A8AA" points="236.6,371.6 213.5,450.7 206,368.6 				"/>
			</g>
			<g>
				<polygon fill="#A0A8AA" points="236.3,366.6 239.7,449.3 206.3,373.6 				"/>
			</g>
			<g>
				<polygon fill="#A0A8AA" points="234.4,362.1 264.1,440.1 208.2,378.1 				"/>
			</g>
			<g>
				<polygon fill="#A0A8AA" points="231.3,358.4 284.3,424 211.3,381.7 				"/>
			</g>
			<g>
				<polygon fill="#A0A8AA" points="227.3,355.9 298.3,402.7 215.3,384.2 				"/>
			</g>
			<g>
				<polygon fill="#A0A8AA" points="222.8,354.8 304.8,378.1 219.8,385.4 				"/>
			</g>
			<g>
				<polygon fill="#A0A8AA" points="218.1,355 303.1,352.8 224.5,385.1 				"/>
			</g>
			<g>
				<polygon fill="#A0A8AA" points="213.7,356.7 293.4,329.2 228.9,383.4 				"/>
			</g>
			<g>
				<polygon fill="#A0A8AA" points="210,359.7 276.7,309.6 232.6,380.5 				"/>
			</g>
			<g>
				<polygon fill="#A0A8AA" points="207.3,363.8 254.5,295.9 235.3,376.4 				"/>
			</g>
			<g>
				<polygon fill="#A0A8AA" points="206,368.6 229.1,289.4 236.6,371.6 				"/>
			</g>
			<g>
				<polygon fill="#A0A8AA" points="206.3,373.6 202.9,290.9 236.3,366.6 				"/>
			</g>
			<g>
				<polygon fill="#A0A8AA" points="208.2,378.1 178.5,300.1 234.4,362.1 				"/>
			</g>
			<g>
				<polygon fill="#A0A8AA" points="211.3,381.7 158.3,316.1 231.3,358.4 				"/>
			</g>
			<g>
				<polygon fill="#A0A8AA" points="215.3,384.2 144.3,337.5 227.3,355.9 				"/>
			</g>
			<g>
				<polygon fill="#A0A8AA" points="219.8,385.4 137.8,362 222.8,354.8 				"/>
			</g>
			<g>
				<polygon fill="#A0A8AA" points="224.5,385.1 139.5,387.3 218.1,355 				"/>
			</g>
			<g>
				<polygon fill="#A0A8AA" points="228.9,383.4 149.2,410.9 213.7,356.7 				"/>
			</g>
			<g>
				<polygon fill="#A0A8AA" points="232.6,380.5 165.9,430.6 210,359.7 				"/>
			</g>
			<g>
				<polygon fill="#A0A8AA" points="235.3,376.4 188.1,444.3 207.3,363.8 				"/>
			</g>
		</g>
	</g>
	<g clip-path="url(#SVGID_2_)">
		<path fill="#FFFFFF" d="M145.5,199.5c-1.4,1.7-3.1,2.7-5.1,3.2v7.9h-3.1v-7.8c-1.1-0.1-2-0.4-2.9-0.9c-0.9-0.5-1.7-1.1-2.6-1.8
			c0-0.8,0-1.6,0-2.4s0-1.6,0-2.4h3.1v3.4c0.4,0.3,0.8,0.5,1.3,0.7s0.9,0.3,1.3,0.4c0.2,0,0.3,0,0.5,0c0.2,0,0.3,0,0.5,0
			c1.6,0,3-0.5,4.2-1.6c1.2-1.1,1.9-2.5,1.9-4.4c0-1.6-0.5-2.9-1.6-3.9c-1-1.1-2.2-2-3.5-2.9c-0.1-0.1-0.2-0.2-0.3-0.2
			c-0.1-0.1-0.2-0.2-0.3-0.2c-0.1-0.1-0.2-0.1-0.3-0.2c-0.1-0.1-0.2-0.1-0.3-0.2c-1.3-0.9-2.5-1.9-3.5-2.9c-1-1-1.5-2.3-1.5-3.8
			c0-1.4,0.4-2.6,1.3-3.5c0.9-0.9,1.9-1.5,3-1.7v-3.6h3.1v3.9c0.3,0.1,0.6,0.3,0.8,0.4c0.2,0.2,0.5,0.4,0.8,0.6
			c0.1,0,0.2,0.1,0.3,0.2c0.1,0.1,0.2,0.2,0.3,0.3c0,0.6-0.1,1.2-0.1,1.8c0,0.6,0,1.2,0,1.9h-3.1v-2.2c-0.2-0.1-0.3-0.1-0.5-0.2
			c-0.2,0-0.3-0.1-0.5-0.1c-0.6,0-1.1,0.2-1.6,0.7c-0.5,0.4-0.7,1-0.7,1.6c0,0.6,0.3,1.2,0.8,1.8c0.5,0.6,1.2,1.1,1.9,1.7
			c0.2,0.2,0.5,0.4,0.8,0.5c0.3,0.2,0.6,0.4,0.8,0.5c0.1,0.1,0.2,0.2,0.4,0.2c0.1,0.1,0.3,0.2,0.4,0.3c1.6,1.1,3.1,2.3,4.4,3.7
			c1.3,1.4,2,3.3,2,5.6C147.6,195.9,146.9,197.8,145.5,199.5z"/>
		<path fill="#FFFFFF" d="M201.4,171h3l-11.2,44.1h-2.9L201.4,171z"/>
		<path fill="#FFFFFF" d="M218.7,210.6v-2.4h1c0.5,0,0.9-0.2,1.3-0.5c0.4-0.4,0.5-0.8,0.5-1.3v-20.5v-3.6c-1.3,1.1-2.3,2.4-3,3.9
			c-0.7,1.5-1.1,3.1-1.1,4.8h-0.1H215h-0.1c0-1.7-0.4-3.4-1.1-4.9c-0.8-1.5-1.8-2.8-3.1-3.9v3.7v20.5c0,0.5,0.2,0.9,0.6,1.3
			c0.4,0.4,0.8,0.5,1.3,0.5h1v2.4h-8.1v-2.4h0.9c0.5,0,0.9-0.2,1.3-0.5c0.4-0.4,0.5-0.8,0.5-1.3v-23c0-0.5-0.2-0.9-0.5-1.3
			c-0.4-0.4-0.8-0.5-1.3-0.5h-0.9V179h4.5c0,0,0.1,0,0.1,0s0.1,0,0.1,0c0.1,0,0.2,0,0.2,0c0.1,0,0.1,0.1,0.2,0.1
			c1.2,0.7,2.3,1.6,3.3,2.7s1.7,2.3,2.3,3.6c0.1-0.2,0.2-0.4,0.3-0.6c0.1-0.2,0.2-0.4,0.3-0.6c0.1-0.1,0.1-0.2,0.2-0.3
			c0.1-0.1,0.1-0.2,0.2-0.3c0.5-1,1.2-1.9,1.9-2.7c0.7-0.9,1.6-1.4,2.7-1.7l0.6-0.2h4.5v2.4h-1c-0.5,0-0.9,0.2-1.3,0.5
			c-0.4,0.4-0.6,0.8-0.6,1.3v23c0,0.5,0.2,0.9,0.6,1.3c0.4,0.4,0.8,0.5,1.3,0.5h1v2.4H218.7z"/>
		<path fill="#FFFFFF" d="M253,206c-3.1,3.1-6.8,4.6-11.2,4.6c-4.4,0-8.1-1.5-11.2-4.6s-4.6-6.8-4.6-11.2c0-4.4,1.5-8.1,4.6-11.2
			c3.1-3.1,6.8-4.6,11.2-4.6c4.4,0,8.1,1.5,11.2,4.6c3.1,3.1,4.6,6.8,4.6,11.2C257.6,199.2,256.1,202.9,253,206z M251.2,185.4
			c-2.6-2.6-5.8-3.9-9.5-3.9c-3.7,0-6.8,1.3-9.4,3.9c-2.6,2.6-3.9,5.8-3.9,9.5c0,3.7,1.3,6.8,3.9,9.4c2.6,2.6,5.8,3.9,9.4,3.9
			c3.7,0,6.8-1.3,9.5-3.9c2.6-2.6,3.9-5.8,3.9-9.4C255.2,191.1,253.8,188,251.2,185.4z"/>
		<path fill="#FFFFFF" d="M268.4,210.6v-2.4h0.9c0.5,0,0.9-0.2,1.3-0.5c0.4-0.4,0.5-0.8,0.5-1.3v-6.1c0-3.6-0.8-6.9-2.5-10.1
			c-1.6-3.2-3.9-5.8-6.8-7.9v24.1c0,0.5,0.2,0.9,0.5,1.3c0.4,0.4,0.8,0.5,1.3,0.5h1v2.4h-8.1v-2.4h1c0.5,0,0.9-0.2,1.3-0.5
			c0.4-0.4,0.5-0.8,0.5-1.3v-23c0-0.5-0.2-0.9-0.5-1.3c-0.4-0.4-0.8-0.5-1.3-0.5h-1V179h4.4c0,0,0.1,0,0.1,0c0,0,0.1,0,0.1,0
			c0.1,0,0.2,0,0.2,0c0.1,0,0.1,0.1,0.2,0.1c2.1,1.2,3.9,2.7,5.5,4.5c1.6,1.8,2.9,3.8,4,5.9v-6.3c0-0.5-0.2-0.9-0.5-1.3
			c-0.4-0.4-0.8-0.5-1.3-0.5h-0.9V179h8.1v2.4h-1c-0.5,0-0.9,0.2-1.3,0.5c-0.4,0.4-0.6,0.8-0.6,1.3v23c0,0.5,0.2,0.9,0.6,1.3
			c0.4,0.4,0.8,0.5,1.3,0.5h1v2.4H268.4z"/>
		<path fill="#FFFFFF" d="M288.6,184.2v-0.9c0-0.5-0.2-0.9-0.5-1.3c-0.4-0.4-0.8-0.5-1.3-0.5h-1.1v24.9c0,0.5,0.2,0.9,0.5,1.3
			c0.4,0.4,0.8,0.5,1.3,0.5h1v2.4h-8.1v-2.4h0.9c0.5,0,0.9-0.2,1.3-0.5c0.4-0.4,0.5-0.8,0.5-1.3v-24.9h-1c-0.5,0-0.9,0.2-1.3,0.5
			c-0.4,0.4-0.5,0.8-0.5,1.3v0.9h-2.4V179H291v5.2H288.6z"/>
		<path fill="#FFFFFF" d="M302.4,210.6v-2.4h1c0.5,0,0.9-0.2,1.3-0.5c0.4-0.4,0.5-0.8,0.5-1.3v-16.4h-7.8v16.4
			c0,0.5,0.2,0.9,0.5,1.3c0.4,0.4,0.8,0.5,1.3,0.5h1v2.4h-8.1v-2.4h1c0.5,0,0.9-0.2,1.3-0.5c0.4-0.4,0.5-0.8,0.5-1.3v-23
			c0-0.5-0.2-0.9-0.5-1.3c-0.4-0.4-0.8-0.5-1.3-0.5h-1V179h8.1v2.4h-1c-0.5,0-0.9,0.2-1.3,0.5c-0.4,0.4-0.5,0.8-0.5,1.3v4.2h7.8
			v-4.2c0-0.5-0.2-0.9-0.5-1.3c-0.4-0.4-0.8-0.5-1.3-0.5h-1V179h8.1v2.4h-1c-0.5,0-0.9,0.2-1.3,0.5c-0.4,0.4-0.5,0.8-0.5,1.3v23
			c0,0.5,0.2,0.9,0.5,1.3c0.4,0.4,0.8,0.5,1.3,0.5h1v2.4H302.4z"/>
	</g>
	
		<circle clip-path="url(#SVGID_2_)" fill="none" stroke="#3E5029" stroke-width="16" stroke-miterlimit="10" cx="220.3" cy="220.6" r="216.2"/>
</g>
<g>
	<path fill="#FFFFFF" d="M103.6,141.4c-3.8,3.7-8.3,5.6-13.5,5.6c-1.7,0-3.4-0.2-5.1-0.7c-1.7-0.5-3.3-1.1-4.7-1.9v2.6h-4.8v-13.8
		h4.8v1.6v1.9c0,1.4,0.6,2.4,1.8,3.2c1.2,0.8,2.4,1.4,3.8,1.7c0.8,0.2,1.6,0.4,2.3,0.5c0.7,0.1,1.4,0.1,1.9,0.1
		c3.9,0,7.3-1.4,10.2-4.2c2.8-2.8,4.2-6.2,4.2-10.2c0-3.7-1.2-6.8-3.6-9.2c-2.4-2.4-5-4.6-7.9-6.6c-0.3-0.2-0.6-0.4-0.9-0.6
		c-0.3-0.2-0.6-0.4-0.9-0.6c-0.4-0.2-0.8-0.5-1.2-0.8c-0.4-0.3-0.8-0.5-1.1-0.8c-2.7-1.9-5-3.8-7-5.9c-1.9-2-2.9-4.6-2.9-7.6
		c0-3.1,1.1-5.7,3.4-7.8c2.2-2.1,4.8-3.1,7.6-3c0.6,0,1.3,0.1,1.9,0.2c0.6,0.1,1.3,0.3,1.9,0.5v-0.9h4.8v10.5h-4.8
		c0-0.3,0-0.6,0-0.9c0-0.3,0-0.7,0-1c0-1.2-0.4-2.1-1.2-2.7s-1.8-0.9-2.9-0.9c-0.1,0-0.1,0-0.2,0c-0.1,0-0.1,0-0.2,0
		c-1.4,0.1-2.7,0.7-3.8,1.8c-1.1,1.1-1.7,2.5-1.7,4.2c0,1.8,0.7,3.5,2.2,4.9c1.4,1.5,3.2,2.9,5.2,4.3c0.5,0.3,0.9,0.6,1.4,0.9
		c0.4,0.3,0.9,0.6,1.4,0.9c0.3,0.2,0.6,0.4,0.9,0.6c0.3,0.2,0.6,0.4,0.9,0.6c3.4,2.3,6.5,4.9,9.4,8c2.8,3,4.2,6.9,4.2,11.8
		C109.3,133.1,107.4,137.7,103.6,141.4z"/>
	<path fill="#FFFFFF" d="M124.2,95.2v-1.9c0-1-0.4-1.9-1.1-2.6c-0.7-0.7-1.6-1.1-2.6-1.1h-2.1v48.8c0,1,0.4,1.9,1.1,2.6
		c0.7,0.7,1.6,1.1,2.6,1.1h1.9v4.8h-15.9v-4.8h1.9c1,0,1.9-0.4,2.6-1.1s1.1-1.6,1.1-2.6V89.8h-2c-1,0-1.9,0.4-2.6,1.1
		c-0.7,0.7-1.1,1.6-1.1,2.6v1.9h-4.8V85H129v10.2H124.2z"/>
	<path fill="#FFFFFF" d="M149.6,147v-4.8h1.9c1,0,1.9-0.4,2.6-1.1c0.7-0.7,1.1-1.6,1.1-2.6V132h-18.6v6.6c0,1,0.4,1.9,1.1,2.6
		s1.6,1.1,2.6,1.1h1.9v4.8h-15.9v-4.8h1.9c1,0,1.8-0.4,2.5-1.1c0.7-0.7,1-1.5,1.1-2.5V132h-3.9v-4.8h3.9v-19.1
		c0-5.2,1.3-9.8,3.8-13.7c2.5-4,5.9-7.3,10.2-9.8c4.4,2.6,7.8,5.9,10.3,9.8c2.5,3.9,3.8,8.5,3.8,13.8v30.6c0.1,0.9,0.4,1.8,1.1,2.5
		c0.7,0.7,1.5,1.1,2.5,1.1h1.9v4.8H149.6z M155.1,108.1c0-3.6-0.8-7-2.5-10.2c-1.6-3.2-3.9-5.8-6.9-7.8c-2.9,2-5.2,4.6-6.8,7.8
		c-1.6,3.2-2.5,6.6-2.5,10.2v19.1h18.6V108.1z"/>
	<path fill="#FFFFFF" d="M190.3,147v-4.8h1.9c1,0,1.9-0.4,2.6-1.1c0.7-0.7,1.1-1.6,1.1-2.6v-12c0-7-1.6-13.6-4.9-19.8
		c-3.2-6.2-7.7-11.4-13.2-15.4v47.3c0,1,0.4,1.9,1.1,2.6c0.7,0.7,1.6,1.1,2.6,1.1h1.9v4.8h-15.9v-4.8h1.9c1,0,1.9-0.4,2.6-1.1
		s1.1-1.6,1.1-2.6V93.4c0-1-0.4-1.9-1.1-2.6c-0.7-0.7-1.6-1.1-2.6-1.1h-1.9V85h8.6c0.1,0,0.1,0,0.2,0c0.1,0,0.1,0,0.2,0.1
		c0.2,0,0.3,0,0.5,0c0.1,0,0.3,0.1,0.4,0.2c4.1,2.4,7.7,5.3,10.9,8.9c3.2,3.6,5.8,7.4,7.8,11.6V93.4c0-1-0.4-1.9-1.1-2.6
		c-0.7-0.7-1.6-1.1-2.6-1.1h-1.9V85h15.9v4.8h-2c-0.9,0-1.8,0.4-2.5,1.1c-0.7,0.7-1.1,1.6-1.1,2.6v45.2c0,1,0.4,1.9,1.1,2.6
		c0.7,0.7,1.6,1.1,2.5,1.1h2v4.8H190.3z"/>
	<path fill="#FFFFFF" d="M301,162.2c-9.4,3.8-19,5.8-28.8,5.9c-0.2,0-0.4,0-0.6,0c-0.2,0-0.4,0-0.6,0c-9.7,0-19.2-1.8-28.6-5.3
		c-9.3-3.5-17.8-8.8-25.5-15.7h-8.1v-4.8h1.8h0.1c1,0,1.9-0.4,2.6-1.1c0.7-0.7,1.1-1.6,1.1-2.5V93.4c0-1-0.4-1.9-1.1-2.6
		c-0.7-0.7-1.6-1.1-2.6-1.1h-1.9V85h8.3c8.5,0.1,15.7,3.1,21.7,9.2c6,6.1,9,13.3,9,21.8c0,7.4-2.3,13.9-7,19.6
		c-4.7,5.6-10.5,9.2-17.5,10.7c6.8,5.7,14.4,10,22.6,12.9c8.2,2.9,16.6,4.3,25,4.2c9.5,0,18.7-1.8,27.8-5.4c9-3.6,17.2-9,24.3-16.1
		l3.4,3.4C319,152.7,310.5,158.4,301,162.2z M236.2,98.2c-4.7-5-10.3-7.8-17-8.4v52.3c6.7-0.6,12.4-3.4,17-8.4c4.7-5,7-10.9,7-17.8
		C243.2,109.2,240.8,103.3,236.2,98.2z"/>
	<path fill="#FFFFFF" d="M271.1,147v-4.8h1.9c1,0,1.9-0.4,2.6-1.1c0.7-0.7,1.1-1.6,1.1-2.6V132h-18.6v6.6c0,1,0.4,1.9,1.1,2.6
		s1.6,1.1,2.6,1.1h1.9v4.8h-15.9v-4.8h1.9c1,0,1.8-0.4,2.5-1.1c0.7-0.7,1-1.5,1.1-2.5V132h-3.9v-4.8h3.9v-19.1
		c0-5.2,1.3-9.8,3.8-13.7c2.5-4,5.9-7.3,10.2-9.8c4.4,2.6,7.8,5.9,10.3,9.8c2.5,3.9,3.8,8.5,3.8,13.8v30.6c0.1,0.9,0.4,1.8,1.1,2.5
		c0.7,0.7,1.5,1.1,2.5,1.1h1.9v4.8H271.1z M276.6,108.1c0-3.6-0.8-7-2.5-10.2c-1.6-3.2-3.9-5.8-6.9-7.8c-2.9,2-5.2,4.6-6.8,7.8
		c-1.6,3.2-2.5,6.6-2.5,10.2v19.1h18.6V108.1z"/>
	<path fill="#FFFFFF" d="M306.2,147v-4.8c1-0.1,1.7-0.4,2.1-0.8c0.4-0.4,0.6-1,0.6-1.5c0-0.2,0-0.5-0.1-0.8
		c-0.1-0.3-0.1-0.5-0.3-0.8c-0.1-0.3-0.3-0.6-0.4-0.8c-0.1-0.3-0.3-0.5-0.5-0.8c-0.9-1.3-1.8-2.6-2.7-3.9c-0.9-1.3-1.7-2.6-2.5-3.9
		c-0.5,0.2-1.1,0.3-1.6,0.4c-0.6,0.1-1.2,0.2-1.8,0.3v1.8v7.2c0,1,0.4,1.9,1.1,2.6s1.6,1.1,2.5,1.1h2v4.8h-15.9v-4.8h1.9
		c1,0,1.9-0.4,2.6-1.1c0.7-0.7,1.1-1.6,1.1-2.6V93.4c0-1-0.4-1.9-1.1-2.6c-0.7-0.7-1.6-1.1-2.6-1.1h-1.9V85h8.6
		c6,0,11.1,2.2,15.3,6.6c4.2,4.4,6.3,9.7,6.3,15.7c0,4.3-1.1,8.2-3.3,11.7c-2.2,3.5-5.1,6.2-8.7,8.1c0.5,0.8,1,1.7,1.6,2.6
		c0.6,0.9,1.3,1.9,2,2.8c0.8,1.2,1.7,2.3,2.7,3.5c0.9,1.1,1.9,2.2,2.8,3c1,0.9,2,1.7,2.9,2.3c0.9,0.6,1.9,0.8,2.7,0.8h1.5h0.4v4.8
		H306.2z M309.9,95.8c-2.9-3.3-6.5-5.2-10.8-5.8v34.8c4.3-0.6,7.9-2.5,10.8-5.8c2.9-3.3,4.4-7.2,4.4-11.6S312.8,99.1,309.9,95.8z"/>
	<path fill="#FFFFFF" d="M356,137.8c-6,6-13.2,9.1-21.7,9.2h-8.4v-4.8h1.9h0.1c1,0,1.9-0.4,2.6-1.1c0.7-0.7,1.1-1.6,1.1-2.5V93.4
		c0-1-0.4-1.9-1.1-2.6c-0.7-0.7-1.6-1.1-2.6-1.1h-1.9V85h8.4c8.5,0.1,15.7,3.1,21.7,9.2c6,6.1,9,13.3,9,21.8S362,131.7,356,137.8z
		 M353.3,98.2c-4.6-5-10.3-7.8-17-8.4v52.3c6.7-0.6,12.4-3.4,17-8.4c4.6-5,6.9-10.9,6.9-17.8C360.2,109.2,357.9,103.3,353.3,98.2z"
		/>
</g>
<g>
	<path fill="#FFFFFF" d="M153.8,212.7v-3.1h1.2c0.6,0,1.2-0.2,1.6-0.7c0.4-0.4,0.7-1,0.7-1.6v-28.7c0-0.6-0.2-1.2-0.7-1.6
		c-0.4-0.4-1-0.7-1.6-0.7h-1.2v-3h6.6v34c0,0.6,0.2,1.2,0.7,1.6c0.4,0.4,1,0.7,1.6,0.7h1.2v3.1H153.8z"/>
	<path fill="#FFFFFF" d="M182.5,191.4c-1.3,2.2-2.7,4.4-4.3,6.6c-0.2,0.2-0.4,0.4-0.5,0.6c-0.2,0.2-0.3,0.4-0.5,0.6
		c-1.3,1.6-2.5,3.3-3.7,5c-1.2,1.7-2.1,3.5-2.7,5.4h6.9c0.6,0,1.2-0.2,1.6-0.7c0.4-0.5,0.6-1,0.6-1.6v-2.2h3v7.5l-16,0.1l0.3-1.8
		c0.5-2.5,1.4-4.9,2.8-7c1.4-2.1,2.9-4.2,4.4-6.3c0,0,0.1-0.1,0.1-0.1c0-0.1,0.1-0.1,0.1-0.1c0.1-0.2,0.3-0.4,0.5-0.6
		c0.2-0.2,0.3-0.4,0.5-0.6c1.5-1.9,2.7-3.9,3.9-5.9c1.1-2,1.7-4,1.7-6.2c0-2.3-0.8-4.2-2.4-5.6c-1.6-1.4-3.4-2.1-5.3-2.1
		c-0.5,0-1,0.1-1.6,0.2c-0.5,0.1-1,0.3-1.6,0.6c-0.8,0.4-1.4,0.9-1.7,1.6c-0.3,0.7-0.5,1.4-0.5,2.3h-3v-7.6h3v1.5
		c0.8-0.5,1.7-0.8,2.6-1.1c0.9-0.2,1.8-0.4,2.8-0.4c2.9,0,5.4,1,7.5,3.1c2.1,2.1,3.1,4.6,3.1,7.6
		C184.4,186.7,183.7,189.1,182.5,191.4z"/>
</g>
</svg>
