<?xml version="1.0" encoding="utf-8"?>
<!-- Generator: Adobe Illustrator 17.1.0, SVG Export Plug-In . SVG Version: 6.00 Build 0)  -->
<!DOCTYPE svg PUBLIC "-//W3C//DTD SVG 1.1//EN" "http://www.w3.org/Graphics/SVG/1.1/DTD/svg11.dtd">
<svg version="1.1" id="Layer_1" xmlns="http://www.w3.org/2000/svg" xmlns:xlink="http://www.w3.org/1999/xlink" x="0px" y="0px"
	 viewBox="0 0 457.2 457.2" enable-background="new 0 0 457.2 457.2" xml:space="preserve">
<g>
	<g>
		<g>
			<path fill="#020202" d="M217.4,84.2c1.9,0,1.9-2.9,0-2.9C215.5,81.3,215.5,84.2,217.4,84.2L217.4,84.2z"/>
		</g>
	</g>
	<g>
		<g>
			<path fill="#020202" d="M217.4,84.2c1.9,0,1.9-2.9,0-2.9C215.5,81.3,215.5,84.2,217.4,84.2L217.4,84.2z"/>
		</g>
	</g>
	<g>
		<g>
			<defs>
				<circle id="SVGID_1_" cx="228.6" cy="228.6" r="223.1"/>
			</defs>
			<clipPath id="SVGID_2_">
				<use xlink:href="#SVGID_1_"  overflow="visible"/>
			</clipPath>
			
				<circle clip-path="url(#SVGID_2_)" fill="#020202" stroke="#3F5029" stroke-width="16" stroke-miterlimit="10" cx="228.6" cy="227.6" r="223.1"/>
		</g>
		<g>
			<defs>
				<circle id="SVGID_3_" cx="228.6" cy="228.6" r="223.1"/>
			</defs>
			<clipPath id="SVGID_4_">
				<use xlink:href="#SVGID_3_"  overflow="visible"/>
			</clipPath>
			
				<circle clip-path="url(#SVGID_4_)" fill="none" stroke="#3F5029" stroke-width="16" stroke-miterlimit="10" cx="761.9" cy="235" r="223.1"/>
		</g>
		<g>
			<defs>
				<circle id="SVGID_5_" cx="228.6" cy="228.6" r="223.1"/>
			</defs>
			<clipPath id="SVGID_6_">
				<use xlink:href="#SVGID_5_"  overflow="visible"/>
			</clipPath>
			<g clip-path="url(#SVGID_6_)">
				<g>
					<g>
						<polygon fill="#C46F29" points="253.8,427.5 218.5,540.6 205.5,422.8 						"/>
					</g>
					<g>
						<polygon fill="#C46F29" points="253.3,419.7 255.9,538.5 206,430.7 						"/>
					</g>
					<g>
						<polygon fill="#C46F29" points="250.4,412.5 290.8,525.3 208.9,437.8 						"/>
					</g>
					<g>
						<polygon fill="#C46F29" points="245.4,406.7 319.7,502.4 213.8,443.5 						"/>
					</g>
					<g>
						<polygon fill="#C46F29" points="239.1,402.8 339.7,471.8 220.1,447.5 						"/>
					</g>
					<g>
						<polygon fill="#C46F29" points="232,401 349,436.7 227.2,449.3 						"/>
					</g>
					<g>
						<polygon fill="#C46F29" points="224.7,401.4 346.6,400.5 234.6,448.9 						"/>
					</g>
					<g>
						<polygon fill="#C46F29" points="217.6,404 332.8,366.7 241.6,446.2 						"/>
					</g>
					<g>
						<polygon fill="#C46F29" points="211.8,408.8 308.9,338.6 247.5,441.5 						"/>
					</g>
					<g>
						<polygon fill="#C46F29" points="207.4,415.3 277.1,319 251.7,435.1 						"/>
					</g>
					<g>
						<polygon fill="#C46F29" points="205.5,422.8 240.8,309.8 253.8,427.5 						"/>
					</g>
					<g>
						<polygon fill="#C46F29" points="206,430.7 203.3,311.9 253.3,419.7 						"/>
					</g>
					<g>
						<polygon fill="#C46F29" points="208.9,437.8 168.4,325 250.4,412.5 						"/>
					</g>
					<g>
						<polygon fill="#C46F29" points="213.8,443.5 139.5,348 245.4,406.7 						"/>
					</g>
					<g>
						<polygon fill="#C46F29" points="220.1,447.5 119.5,378.5 239.1,402.8 						"/>
					</g>
					<g>
						<polygon fill="#C46F29" points="227.2,449.3 110.1,413.6 232,401 						"/>
					</g>
					<g>
						<polygon fill="#C46F29" points="234.6,448.9 112.6,449.8 224.7,401.4 						"/>
					</g>
					<g>
						<polygon fill="#C46F29" points="241.6,446.2 126.4,483.6 217.6,404 						"/>
					</g>
					<g>
						<polygon fill="#C46F29" points="247.5,441.5 150.4,511.8 211.8,408.8 						"/>
					</g>
					<g>
						<polygon fill="#C46F29" points="251.7,435.1 182,531.4 207.4,415.3 						"/>
					</g>
				</g>
			</g>
		</g>
		<g>
			<defs>
				<circle id="SVGID_7_" cx="228.6" cy="228.6" r="223.1"/>
			</defs>
			<clipPath id="SVGID_8_">
				<use xlink:href="#SVGID_7_"  overflow="visible"/>
			</clipPath>
			<rect x="215.7" y="318.1" clip-path="url(#SVGID_8_)" fill="none" width="70.8" height="69.8"/>
		</g>
		<g>
			<defs>
				<circle id="SVGID_9_" cx="228.6" cy="228.6" r="223.1"/>
			</defs>
			<clipPath id="SVGID_10_">
				<use xlink:href="#SVGID_9_"  overflow="visible"/>
			</clipPath>
			<g clip-path="url(#SVGID_10_)">
				<path fill="#FFFFFF" d="M244.1,164.4c-10.7,4.2-21.7,6.3-32.7,6.2c-11.4,0-22.5-2.2-33.4-6.6c-10.9-4.3-20.7-10.8-29.4-19.5v-59
					c-2.8,2.4-5,5.2-6.6,8.5c-1.5,3.3-2.4,6.8-2.4,10.5h-0.2h-5.1h-0.2c0-3.8-0.8-7.3-2.5-10.7c-1.7-3.4-3.9-6.2-6.8-8.5v8h0.1v44.6
					c0,1.1,0.4,2.1,1.1,2.9c0.8,0.8,1.8,1.1,2.9,1.1h2.2v5.3h-17.6v-5.3h2.2c1.1,0,2.1-0.4,2.9-1.1c0.8-0.8,1.1-1.8,1.1-2.9V87.7
					c0-1.1-0.4-2.1-1.1-2.9c-0.8-0.8-1.8-1.1-2.9-1.1h-2.2v-5.3h10c0.1,0,0.1,0,0.2,0c0.1,0,0.1,0,0.2,0.1c0.2,0,0.4,0,0.5,0
					c0.2,0,0.3,0.1,0.4,0.2c2.7,1.5,5.1,3.4,7.1,5.8c2.1,2.4,3.7,5,5,7.8c0.2-0.4,0.4-0.9,0.6-1.3c0.2-0.4,0.5-0.8,0.7-1.3
					c0.1-0.2,0.3-0.4,0.4-0.6c0.1-0.2,0.3-0.5,0.4-0.7c1.1-2.1,2.6-4,4.1-5.9s3.5-3.1,5.8-3.7l1.3-0.4h9.7v5.3h-2.2
					c-1,0-2,0.4-2.8,1.1c-0.8,0.8-1.2,1.8-1.2,2.9v54.5c7.9,7.7,16.9,13.5,26.9,17.4c10,3.9,20.1,5.8,30.5,5.8c10.5,0,20.8-2,30.9-6
					c10.1-4,19.1-10,27-17.9l3.7,3.8C264.4,153.8,254.7,160.2,244.1,164.4z"/>
				<path fill="#FFFFFF" d="M183.3,147.3V142h2.1c1.1,0,2.1-0.4,2.9-1.1c0.8-0.8,1.1-1.8,1.1-2.9v-7.3h-20.6v7.3
					c0,1.1,0.4,2.1,1.1,2.9c0.8,0.8,1.8,1.1,2.9,1.1h2.2v5.3h-17.6V142h2.2c1.1,0,2.1-0.4,2.8-1.1c0.7-0.8,1.1-1.7,1.2-2.8v-7.4
					h-4.3v-5.3h4.3v-21.3c0-5.8,1.4-10.8,4.2-15.3c2.8-4.4,6.6-8,11.4-10.9c4.9,2.9,8.7,6.5,11.5,10.8c2.8,4.3,4.2,9.5,4.2,15.3v34
					c0.1,1,0.5,2,1.2,2.8c0.8,0.8,1.7,1.1,2.8,1.1h2.2v5.3h-17.6V147.3z M189.4,104.1c0-4-0.9-7.7-2.8-11.2
					c-1.9-3.5-4.3-6.4-7.6-8.7c-3.2,2.3-5.7,5.1-7.5,8.7c-1.9,3.5-2.8,7.3-2.8,11.2v21.2h20.6v-21.2H189.4z"/>
				<path fill="#FFFFFF" d="M233,147.3c-9.5,0-17.5-3.4-24.4-10.1c-6.7-6.7-10.1-14.9-10.1-24.4s3.4-17.5,10.1-24.4
					c6.7-6.7,14.9-10.1,24.4-10.1c0.4,0,0.9,0,1.3,0s0.8,0,1.3,0v12h-5.3c0-0.1,0-0.3,0-0.4c0-0.2,0-0.3,0-0.4
					c0-1.3-0.5-2.4-1.4-3.3c-1-0.9-2.1-1.3-3.3-1.3c-0.3,0-0.5,0-0.7,0c-0.2,0-0.4,0.1-0.6,0.1c-5.9,1.9-10.7,5.3-14.7,10.4
					c-3.8,5.2-5.8,10.9-5.8,17.4c0,7.5,2.6,14,7.7,19.6s11.4,8.7,18.8,9.4c0.9,0.1,1.9,0.1,2.7,0.1c0.9,0,1.8,0,2.6,0v5.3H233V147.3
					z"/>
				<path fill="#FFFFFF" d="M258.5,147.3V142c1.1-0.1,1.9-0.4,2.4-0.9c0.4-0.5,0.7-1,0.7-1.8c0-0.3,0-0.5-0.1-0.8s-0.2-0.6-0.3-0.9
					c-0.1-0.3-0.3-0.6-0.4-0.9c-0.2-0.3-0.3-0.6-0.5-0.8c-1-1.4-2.1-2.9-3-4.3c-0.9-1.4-1.9-2.9-2.8-4.3c-0.6,0.2-1.2,0.3-1.9,0.4
					c-0.6,0.1-1.3,0.2-2,0.3v2v8c0,1.1,0.4,2.1,1.2,2.9c0.8,0.8,1.8,1.1,2.8,1.1h2.3v5.3h-17.6v-5.3h2.1c1.1,0,2.1-0.4,2.9-1.1
					c0.8-0.8,1.1-1.8,1.1-2.9V87.7c0-1.1-0.4-2.1-1.1-2.9c-0.8-0.8-1.8-1.1-2.9-1.1h-2.1v-5.3h9.5c6.7,0,12.4,2.5,17,7.3
					c4.6,5,7,10.7,7,17.4c0,4.7-1.2,9.1-3.7,13c-2.5,3.9-5.7,6.9-9.7,9c0.5,0.9,1.1,1.9,1.9,3c0.7,1,1.4,2.1,2.2,3.1
					c0.9,1.3,1.9,2.6,3,3.9c1,1.2,2.1,2.4,3.1,3.4c1.1,1,2.2,1.9,3.2,2.5c1,0.6,2.1,0.9,3,0.9h1.7h0.5v5.3L258.5,147.3L258.5,147.3z
					 M262.6,90.4c-3.2-3.6-7.2-5.8-12-6.5v38.6c4.7-0.6,8.8-2.8,12-6.5c3.2-3.6,4.9-7.9,4.9-12.8S265.8,94,262.6,90.4z"/>
				<path fill="#FFFFFF" d="M334.5,137.2c-6.7,6.7-14.9,10.1-24.5,10.1c-9.5,0-17.5-3.4-24.4-10.1c-6.7-6.7-10.1-14.9-10.1-24.4
					s3.4-17.6,10.1-24.4s14.9-10,24.4-10c9.5,0,17.6,3.3,24.5,10c6.7,6.7,10.1,14.9,10.1,24.4C344.5,122.3,341.2,130.4,334.5,137.2z
					 M330.5,92.3c-5.7-5.7-12.6-8.6-20.6-8.6c-7.9,0-14.9,2.9-20.5,8.6c-5.7,5.7-8.6,12.6-8.6,20.5s2.9,14.9,8.6,20.5
					c5.7,5.7,12.6,8.6,20.5,8.6c8,0,14.9-2.9,20.6-8.6c5.7-5.7,8.6-12.6,8.6-20.5C339.1,104.7,336.3,97.9,330.5,92.3z"/>
			</g>
		</g>
		<g>
			<defs>
				<circle id="SVGID_11_" cx="228.6" cy="228.6" r="223.1"/>
			</defs>
			<clipPath id="SVGID_12_">
				<use xlink:href="#SVGID_11_"  overflow="visible"/>
			</clipPath>
			<g clip-path="url(#SVGID_12_)">
				<g>
					<g>
						<polygon fill="#A0A8AA" points="245.4,426.7 221.6,508.4 213.8,423.6 						"/>
					</g>
					<g>
						<polygon fill="#A0A8AA" points="245.1,421.6 248.6,506.9 214.1,428.8 						"/>
					</g>
					<g>
						<polygon fill="#A0A8AA" points="243.1,416.9 273.8,497.4 216.1,433.4 						"/>
					</g>
					<g>
						<polygon fill="#A0A8AA" points="239.9,413.1 294.6,480.8 219.3,437.2 						"/>
					</g>
					<g>
						<polygon fill="#A0A8AA" points="235.8,410.5 309.1,458.8 223.4,439.7 						"/>
					</g>
					<g>
						<polygon fill="#A0A8AA" points="231.2,409.4 315.8,433.4 228.1,441 						"/>
					</g>
					<g>
						<polygon fill="#A0A8AA" points="226.3,409.6 314,407.3 232.9,440.7 						"/>
					</g>
					<g>
						<polygon fill="#A0A8AA" points="221.8,411.4 304,383 237.5,438.9 						"/>
					</g>
					<g>
						<polygon fill="#A0A8AA" points="218,414.4 286.8,362.7 241.3,435.9 						"/>
					</g>
					<g>
						<polygon fill="#A0A8AA" points="215.2,418.7 263.9,348.6 244.1,431.7 						"/>
					</g>
					<g>
						<polygon fill="#A0A8AA" points="213.8,423.6 237.7,341.9 245.4,426.7 						"/>
					</g>
					<g>
						<polygon fill="#A0A8AA" points="214.1,428.8 210.6,343.4 245.1,421.6 						"/>
					</g>
					<g>
						<polygon fill="#A0A8AA" points="216.1,433.4 185.4,352.9 243.1,416.9 						"/>
					</g>
					<g>
						<polygon fill="#A0A8AA" points="219.3,437.2 164.6,369.5 239.9,413.1 						"/>
					</g>
					<g>
						<polygon fill="#A0A8AA" points="223.4,439.7 150.2,391.5 235.8,410.5 						"/>
					</g>
					<g>
						<polygon fill="#A0A8AA" points="228.1,441 143.4,416.8 231.2,409.4 						"/>
					</g>
					<g>
						<polygon fill="#A0A8AA" points="232.9,440.7 145.2,442.9 226.3,409.6 						"/>
					</g>
					<g>
						<polygon fill="#A0A8AA" points="237.5,438.9 155.2,467.3 221.8,411.4 						"/>
					</g>
					<g>
						<polygon fill="#A0A8AA" points="241.3,435.9 172.4,487.6 218,414.4 						"/>
					</g>
					<g>
						<polygon fill="#A0A8AA" points="244.1,431.7 195.4,501.8 215.2,418.7 						"/>
					</g>
				</g>
			</g>
		</g>
		<g>
			<defs>
				<circle id="SVGID_13_" cx="228.6" cy="228.6" r="223.1"/>
			</defs>
			<clipPath id="SVGID_14_">
				<use xlink:href="#SVGID_13_"  overflow="visible"/>
			</clipPath>
			<g clip-path="url(#SVGID_14_)">
				<path fill="#FFFFFF" d="M151.4,206.8c-1.4,1.8-3.2,2.8-5.3,3.3v8.2h-3.2v-8c-1.1-0.1-2.1-0.4-3-0.9c-0.9-0.5-1.8-1.1-2.7-1.9
					c0-0.8,0-1.7,0-2.5s0-1.7,0-2.5h3.2v3.5c0.4,0.3,0.8,0.5,1.3,0.7c0.5,0.2,0.9,0.3,1.3,0.4c0.2,0,0.3,0,0.5,0c0.2,0,0.3,0,0.5,0
					c1.7,0,3.1-0.5,4.3-1.7c1.2-1.1,2-2.6,2-4.5c0-1.7-0.5-3-1.7-4c-1-1.1-2.3-2.1-3.6-3c-0.1-0.1-0.2-0.2-0.3-0.2
					c-0.1-0.1-0.2-0.2-0.3-0.2c-0.1-0.1-0.2-0.1-0.3-0.2c-0.1-0.1-0.2-0.1-0.3-0.2c-1.3-0.9-2.6-2-3.6-3c-1-1-1.5-2.4-1.5-3.9
					c0-1.4,0.4-2.7,1.3-3.6c0.9-0.9,2-1.5,3.1-1.8v-3.7h3.2v4c0.3,0.1,0.6,0.3,0.8,0.4c0.2,0.2,0.5,0.4,0.8,0.6
					c0.1,0,0.2,0.1,0.3,0.2c0.1,0.1,0.2,0.2,0.3,0.3c0,0.6-0.1,1.2-0.1,1.9s0,1.2,0,2h-3.2v-2.3c-0.2-0.1-0.3-0.1-0.5-0.2
					c-0.2,0-0.3-0.1-0.5-0.1c-0.6,0-1.1,0.2-1.7,0.7c-0.5,0.4-0.7,1-0.7,1.7s0.3,1.2,0.8,1.9c0.5,0.6,1.2,1.1,2,1.8
					c0.2,0.2,0.5,0.4,0.8,0.5c0.3,0.2,0.6,0.4,0.8,0.5c0.1,0.1,0.2,0.2,0.4,0.2c0.1,0.1,0.3,0.2,0.4,0.3c1.7,1.1,3.2,2.4,4.5,3.8
					s2.1,3.4,2.1,5.8C153.6,203.1,152.8,205.1,151.4,206.8z"/>
				<path fill="#FFFFFF" d="M189.7,212.2c-4,4-8.9,6.1-14.7,6.1c-5.7,0-10.5-2.1-14.6-6.1c-4-4-6.1-8.9-6.1-14.6s2.1-10.6,6.1-14.7
					c4-4,8.9-6,14.6-6s10.6,2,14.7,6c4,4,6.1,8.9,6.1,14.7C195.8,203.3,193.7,208.2,189.7,212.2z M187.4,185.2
					c-3.4-3.4-7.5-5.2-12.4-5.2c-4.7,0-8.9,1.8-12.3,5.2c-3.4,3.4-5.2,7.5-5.2,12.4c0,4.7,1.8,8.9,5.2,12.3
					c3.4,3.4,7.5,5.2,12.3,5.2c4.9,0,9-1.8,12.4-5.2c3.4-3.4,5.2-7.5,5.2-12.3C192.5,192.8,190.8,188.6,187.4,185.2z"/>
				<path fill="#FFFFFF" d="M209.1,177.4h3.1l-11.6,45.5h-3L209.1,177.4z"/>
				<path fill="#FFFFFF" d="M226.9,218.3v-2.5h1c0.5,0,0.9-0.2,1.3-0.5c0.4-0.4,0.5-0.8,0.5-1.3v-21.2v-3.7c-1.3,1.1-2.4,2.5-3.1,4
					c-0.7,1.5-1.1,3.2-1.1,5h-0.1h-2.4H223c0-1.8-0.4-3.5-1.1-5.1c-0.8-1.5-1.9-2.9-3.2-4v3.8v21.2c0,0.5,0.2,0.9,0.6,1.3
					c0.4,0.4,0.8,0.5,1.3,0.5h1v2.5h-8.4v-2.5h0.9c0.5,0,0.9-0.2,1.3-0.5c0.4-0.4,0.5-0.8,0.5-1.3v-23.7c0-0.5-0.2-0.9-0.5-1.3
					c-0.4-0.4-0.8-0.5-1.3-0.5h-0.9v-2.7h4.6h0.1h0.1c0.1,0,0.2,0,0.2,0c0.1,0,0.1,0.1,0.2,0.1c1.2,0.7,2.4,1.7,3.4,2.8
					s1.8,2.4,2.4,3.7c0.1-0.2,0.2-0.4,0.3-0.6c0.1-0.2,0.2-0.4,0.3-0.6c0.1-0.1,0.1-0.2,0.2-0.3s0.1-0.2,0.2-0.3c0.5-1,1.2-2,2-2.8
					c0.7-0.9,1.7-1.4,2.8-1.8l0.6-0.2h4.6v2.5h-1c-0.5,0-0.9,0.2-1.3,0.5c-0.4,0.4-0.6,0.8-0.6,1.3v23.7c0,0.5,0.2,0.9,0.6,1.3
					c0.4,0.4,0.8,0.5,1.3,0.5h1v2.5h-8.5V218.3z"/>
				<path fill="#FFFFFF" d="M262.3,213.5c-3.2,3.2-7,4.7-11.6,4.7s-8.4-1.5-11.6-4.7c-3.2-3.2-4.7-7-4.7-11.6s1.5-8.4,4.7-11.6
					c3.2-3.2,7-4.7,11.6-4.7s8.4,1.5,11.6,4.7c3.2,3.2,4.7,7,4.7,11.6S265.5,210.3,262.3,213.5z M260.5,192.3c-2.7-2.7-6-4-9.8-4
					c-3.8,0-7,1.3-9.7,4c-2.7,2.7-4,6-4,9.8c0,3.8,1.3,7,4,9.7c2.7,2.7,6,4,9.7,4c3.8,0,7-1.3,9.8-4c2.7-2.7,4-6,4-9.7
					C264.6,198.1,263.2,194.9,260.5,192.3z"/>
				<path fill="#FFFFFF" d="M278.2,218.3v-2.5h0.9c0.5,0,0.9-0.2,1.3-0.5c0.4-0.4,0.5-0.8,0.5-1.3v-6.3c0-3.7-0.8-7.1-2.6-10.4
					c-1.7-3.3-4-6-7-8.2v24.9c0,0.5,0.2,0.9,0.5,1.3c0.4,0.4,0.8,0.5,1.3,0.5h1v2.5h-8.4v-2.5h1c0.5,0,0.9-0.2,1.3-0.5
					c0.4-0.4,0.5-0.8,0.5-1.3v-23.7c0-0.5-0.2-0.9-0.5-1.3c-0.4-0.4-0.8-0.5-1.3-0.5h-1v-2.7h4.5h0.1h0.1c0.1,0,0.2,0,0.2,0
					c0.1,0,0.1,0.1,0.2,0.1c2.2,1.2,4,2.8,5.7,4.6c1.7,1.9,3,3.9,4.1,6.1V190c0-0.5-0.2-0.9-0.5-1.3c-0.4-0.4-0.8-0.5-1.3-0.5h-0.9
					v-2.5h8.4v2.5h-1c-0.5,0-0.9,0.2-1.3,0.5c-0.4,0.4-0.6,0.8-0.6,1.3v23.7c0,0.5,0.2,0.9,0.6,1.3c0.4,0.4,0.8,0.5,1.3,0.5h1v2.5
					h-8.3V218.3z"/>
				<path fill="#FFFFFF" d="M299.1,191v-0.9c0-0.5-0.2-0.9-0.5-1.3c-0.4-0.4-0.8-0.5-1.3-0.5h-1.1v25.7c0,0.5,0.2,0.9,0.5,1.3
					c0.4,0.4,0.8,0.5,1.3,0.5h1v2.5h-8.4v-2.5h0.9c0.5,0,0.9-0.2,1.3-0.5c0.4-0.4,0.5-0.8,0.5-1.3v-25.7h-1c-0.5,0-0.9,0.2-1.3,0.5
					c-0.4,0.4-0.5,0.8-0.5,1.3v0.9H288v-5.4h13.5v5.4H299.1z"/>
				<path fill="#FFFFFF" d="M313.3,218.3v-2.5h1c0.5,0,0.9-0.2,1.3-0.5c0.4-0.4,0.5-0.8,0.5-1.3V197h-8v16.9c0,0.5,0.2,0.9,0.5,1.3
					c0.4,0.4,0.8,0.5,1.3,0.5h1v2.5h-8.4v-2.5h1c0.5,0,0.9-0.2,1.3-0.5c0.4-0.4,0.5-0.8,0.5-1.3v-23.7c0-0.5-0.2-0.9-0.5-1.3
					c-0.4-0.4-0.8-0.5-1.3-0.5h-1v-2.7h8.4v2.5h-1c-0.5,0-0.9,0.2-1.3,0.5c-0.4,0.4-0.5,0.8-0.5,1.3v4.3h8V190
					c0-0.5-0.2-0.9-0.5-1.3c-0.4-0.4-0.8-0.5-1.3-0.5h-1v-2.5h8.4v2.5h-1c-0.5,0-0.9,0.2-1.3,0.5c-0.4,0.4-0.5,0.8-0.5,1.3v23.7
					c0,0.5,0.2,0.9,0.5,1.3c0.4,0.4,0.8,0.5,1.3,0.5h1v2.5h-8.4V218.3z"/>
			</g>
		</g>
		<g>
			<defs>
				<circle id="SVGID_15_" cx="228.6" cy="228.6" r="223.1"/>
			</defs>
			<clipPath id="SVGID_16_">
				<use xlink:href="#SVGID_15_"  overflow="visible"/>
			</clipPath>
			
				<circle clip-path="url(#SVGID_16_)" fill="none" stroke="#3F5029" stroke-width="16" stroke-miterlimit="10" cx="228.6" cy="228.6" r="223.1"/>
		</g>
	</g>
</g>
<circle fill="none" stroke="#C57029" stroke-width="16" stroke-miterlimit="10" cx="228.6" cy="228.6" r="216.2"/>
</svg>
