<?xml version="1.0" encoding="utf-8"?>
<!-- Generator: Adobe Illustrator 17.1.0, SVG Export Plug-In . SVG Version: 6.00 Build 0)  -->
<!DOCTYPE svg PUBLIC "-//W3C//DTD SVG 1.1//EN" "http://www.w3.org/Graphics/SVG/1.1/DTD/svg11.dtd">
<svg version="1.1" id="Layer_1" xmlns="http://www.w3.org/2000/svg" xmlns:xlink="http://www.w3.org/1999/xlink" x="0px" y="0px"
	 viewBox="0 0 440.4 443" enable-background="new 0 0 440.4 443" xml:space="preserve">
<g>
	<g>
		<path fill="#010101" d="M209.5,80.7c1.8,0,1.8-2.8,0-2.8C207.6,77.9,207.6,80.7,209.5,80.7L209.5,80.7z"/>
	</g>
</g>
<g>
	<g>
		<path fill="#010101" d="M209.5,80.7c1.8,0,1.8-2.8,0-2.8C207.6,77.9,207.6,80.7,209.5,80.7L209.5,80.7z"/>
	</g>
</g>
<g>
	<defs>
		<circle id="SVGID_1_" cx="220.3" cy="220.6" r="216.2"/>
	</defs>
	<clipPath id="SVGID_2_">
		<use xlink:href="#SVGID_1_"  overflow="visible"/>
	</clipPath>
	
		<circle clip-path="url(#SVGID_2_)" fill="#010101" stroke="#3E5029" stroke-width="16" stroke-miterlimit="10" cx="220.3" cy="219.6" r="216.2"/>
	
		<circle clip-path="url(#SVGID_2_)" fill="none" stroke="#3E5029" stroke-width="16" stroke-miterlimit="10" cx="737.1" cy="226.8" r="216.2"/>
	<g clip-path="url(#SVGID_2_)">
		<g>
			<g>
				<polygon fill="#3E5029" points="244.7,413.3 210.5,522.9 197.9,408.8 				"/>
			</g>
			<g>
				<polygon fill="#3E5029" points="244.2,405.8 246.8,520.9 198.4,416.4 				"/>
			</g>
			<g>
				<polygon fill="#3E5029" points="241.4,398.8 280.6,508.1 201.2,423.3 				"/>
			</g>
			<g>
				<polygon fill="#3E5029" points="236.6,393.2 308.6,485.9 206,428.9 				"/>
			</g>
			<g>
				<polygon fill="#3E5029" points="230.5,389.4 328,456.3 212.1,432.7 				"/>
			</g>
			<g>
				<polygon fill="#3E5029" points="223.6,387.7 337,422.3 219,434.5 				"/>
			</g>
			<g>
				<polygon fill="#3E5029" points="216.5,388.1 334.7,387.2 226.1,434.1 				"/>
			</g>
			<g>
				<polygon fill="#3E5029" points="209.7,390.6 321.3,354.4 232.9,431.5 				"/>
			</g>
			<g>
				<polygon fill="#3E5029" points="204,395.2 298.1,327.2 238.6,426.9 				"/>
			</g>
			<g>
				<polygon fill="#3E5029" points="199.8,401.5 267.3,308.2 242.7,420.7 				"/>
			</g>
			<g>
				<polygon fill="#3E5029" points="197.9,408.8 232.1,299.3 244.7,413.3 				"/>
			</g>
			<g>
				<polygon fill="#3E5029" points="198.4,416.4 195.8,301.3 244.2,405.8 				"/>
			</g>
			<g>
				<polygon fill="#3E5029" points="201.2,423.3 162,314 241.4,398.8 				"/>
			</g>
			<g>
				<polygon fill="#3E5029" points="206,428.9 134,336.3 236.6,393.2 				"/>
			</g>
			<g>
				<polygon fill="#3E5029" points="212.1,432.7 114.6,365.9 230.5,389.4 				"/>
			</g>
			<g>
				<polygon fill="#3E5029" points="219,434.5 105.5,399.9 223.6,387.7 				"/>
			</g>
			<g>
				<polygon fill="#3E5029" points="226.1,434.1 107.9,435 216.5,388.1 				"/>
			</g>
			<g>
				<polygon fill="#3E5029" points="232.9,431.5 121.3,467.7 209.7,390.6 				"/>
			</g>
			<g>
				<polygon fill="#3E5029" points="238.6,426.9 144.5,495 204,395.2 				"/>
			</g>
			<g>
				<polygon fill="#3E5029" points="242.7,420.7 175.2,514 199.8,401.5 				"/>
			</g>
		</g>
	</g>
	<rect x="207.8" y="307.3" clip-path="url(#SVGID_2_)" fill="none" width="68.6" height="67.6"/>
	<g clip-path="url(#SVGID_2_)">
		<path fill="#FFFFFF" d="M235.3,158.4c-10.4,4.1-21,6.1-31.7,6c-11,0-21.8-2.1-32.4-6.4c-10.6-4.2-20.1-10.5-28.5-18.9V81.9
			c-2.7,2.3-4.8,5-6.4,8.2c-1.5,3.2-2.3,6.6-2.3,10.2h-0.2h-4.9h-0.2c0-3.7-0.8-7.1-2.4-10.4c-1.6-3.3-3.8-6-6.6-8.2v7.8h0.1v43.2
			c0,1.1,0.4,2,1.1,2.8c0.8,0.8,1.7,1.1,2.8,1.1h2.1v5.1h-17.1v-5.1h2.1c1.1,0,2-0.4,2.8-1.1c0.8-0.8,1.1-1.7,1.1-2.8V84.1
			c0-1.1-0.4-2-1.1-2.8c-0.8-0.8-1.7-1.1-2.8-1.1h-2.1v-5.1h9.7c0.1,0,0.1,0,0.2,0c0.1,0,0.1,0,0.2,0.1c0.2,0,0.4,0,0.5,0
			c0.2,0,0.3,0.1,0.4,0.2c2.6,1.5,4.9,3.3,6.9,5.6c2,2.3,3.6,4.8,4.8,7.6c0.2-0.4,0.4-0.9,0.6-1.3c0.2-0.4,0.5-0.8,0.7-1.3
			c0.1-0.2,0.3-0.4,0.4-0.6c0.1-0.2,0.3-0.5,0.4-0.7c1.1-2,2.5-3.9,4-5.7c1.5-1.8,3.4-3,5.6-3.6l1.3-0.4h9.4v5.1h-2.1
			c-1,0-1.9,0.4-2.7,1.1c-0.8,0.8-1.2,1.7-1.2,2.8v52.8c7.7,7.5,16.4,13.1,26.1,16.9c9.7,3.8,19.5,5.6,29.6,5.6
			c10.2,0,20.2-1.9,29.9-5.8c9.8-3.9,18.5-9.7,26.2-17.3l3.6,3.7C255,148.1,245.6,154.3,235.3,158.4z"/>
		<path fill="#FFFFFF" d="M176.4,141.8v-5.1h2c1.1,0,2-0.4,2.8-1.1c0.8-0.8,1.1-1.7,1.1-2.8v-7.1h-20v7.1c0,1.1,0.4,2,1.1,2.8
			c0.8,0.8,1.7,1.1,2.8,1.1h2.1v5.1h-17.1v-5.1h2.1c1.1,0,2-0.4,2.7-1.1c0.7-0.8,1.1-1.6,1.2-2.7v-7.2h-4.2v-5.1h4.2V100
			c0-5.6,1.4-10.5,4.1-14.8c2.7-4.3,6.4-7.8,11-10.6c4.7,2.8,8.4,6.3,11.1,10.5c2.7,4.2,4.1,9.2,4.1,14.8v32.9
			c0.1,1,0.5,1.9,1.2,2.7c0.8,0.8,1.6,1.1,2.7,1.1h2.1v5.1H176.4z M182.3,100c0-3.9-0.9-7.5-2.7-10.9c-1.8-3.4-4.2-6.2-7.4-8.4
			c-3.1,2.2-5.5,4.9-7.3,8.4c-1.8,3.4-2.7,7.1-2.7,10.9v20.5h20V100z"/>
		<path fill="#FFFFFF" d="M224.6,141.8c-9.2,0-17-3.3-23.6-9.8c-6.5-6.5-9.8-14.4-9.8-23.6c0-9.2,3.3-17,9.8-23.6
			c6.5-6.5,14.4-9.8,23.6-9.8c0.4,0,0.9,0,1.3,0c0.4,0,0.8,0,1.3,0v11.6h-5.1c0-0.1,0-0.3,0-0.4c0-0.2,0-0.3,0-0.4
			c0-1.3-0.5-2.3-1.4-3.2c-1-0.9-2-1.3-3.2-1.3c-0.3,0-0.5,0-0.7,0c-0.2,0-0.4,0.1-0.6,0.1c-5.7,1.8-10.4,5.1-14.2,10.1
			c-3.7,5-5.6,10.6-5.6,16.9c0,7.3,2.5,13.6,7.5,19c5,5.4,11,8.4,18.2,9.1c0.9,0.1,1.8,0.1,2.6,0.1c0.9,0,1.7,0,2.5,0v5.1H224.6z"/>
		<path fill="#FFFFFF" d="M249.3,141.8v-5.1c1.1-0.1,1.8-0.4,2.3-0.9c0.4-0.5,0.7-1,0.7-1.7c0-0.3,0-0.5-0.1-0.8
			c-0.1-0.3-0.2-0.6-0.3-0.9c-0.1-0.3-0.3-0.6-0.4-0.9c-0.2-0.3-0.3-0.6-0.5-0.8c-1-1.4-2-2.8-2.9-4.2c-0.9-1.4-1.8-2.8-2.7-4.2
			c-0.6,0.2-1.2,0.3-1.8,0.4c-0.6,0.1-1.3,0.2-1.9,0.3v1.9v7.8c0,1.1,0.4,2,1.2,2.8c0.8,0.8,1.7,1.1,2.7,1.1h2.2v5.1h-17.1v-5.1h2
			c1.1,0,2-0.4,2.8-1.1c0.8-0.8,1.1-1.7,1.1-2.8V84.1c0-1.1-0.4-2-1.1-2.8c-0.8-0.8-1.7-1.1-2.8-1.1h-2v-5.1h9.2
			c6.5,0,12,2.4,16.5,7.1c4.5,4.8,6.8,10.4,6.8,16.9c0,4.6-1.2,8.8-3.6,12.6c-2.4,3.8-5.5,6.7-9.4,8.7c0.5,0.9,1.1,1.8,1.8,2.9
			c0.7,1,1.4,2,2.1,3c0.9,1.3,1.8,2.5,2.9,3.8c1,1.2,2,2.3,3,3.3c1.1,1,2.1,1.8,3.1,2.4c1,0.6,2,0.9,2.9,0.9h1.6h0.5v5.1H249.3z
			 M253.3,86.7c-3.1-3.5-7-5.6-11.6-6.3v37.4c4.6-0.6,8.5-2.7,11.6-6.3c3.1-3.5,4.7-7.7,4.7-12.4S256.4,90.2,253.3,86.7z"/>
		<path fill="#FFFFFF" d="M322.9,132c-6.5,6.5-14.4,9.8-23.7,9.8c-9.2,0-17-3.3-23.6-9.8c-6.5-6.5-9.8-14.4-9.8-23.6
			c0-9.2,3.3-17.1,9.8-23.6c6.5-6.5,14.4-9.7,23.6-9.7c9.2,0,17.1,3.2,23.7,9.7c6.5,6.5,9.8,14.4,9.8,23.6
			C332.6,117.6,329.4,125.5,322.9,132z M319.1,88.5c-5.5-5.5-12.2-8.3-20-8.3c-7.7,0-14.4,2.8-19.9,8.3c-5.5,5.5-8.3,12.2-8.3,19.9
			c0,7.7,2.8,14.4,8.3,19.9c5.5,5.5,12.2,8.3,19.9,8.3c7.8,0,14.4-2.8,20-8.3c5.5-5.5,8.3-12.2,8.3-19.9
			C327.4,100.6,324.7,94,319.1,88.5z"/>
	</g>
	<g clip-path="url(#SVGID_2_)">
		<g>
			<g>
				<polygon fill="#A0A8AA" points="236.6,412.6 213.5,491.7 206,409.6 				"/>
			</g>
			<g>
				<polygon fill="#A0A8AA" points="236.3,407.6 239.7,490.3 206.3,414.6 				"/>
			</g>
			<g>
				<polygon fill="#A0A8AA" points="234.4,403.1 264.1,481.1 208.2,419.1 				"/>
			</g>
			<g>
				<polygon fill="#A0A8AA" points="231.3,399.4 284.3,465 211.3,422.7 				"/>
			</g>
			<g>
				<polygon fill="#A0A8AA" points="227.3,396.9 298.3,443.7 215.3,425.2 				"/>
			</g>
			<g>
				<polygon fill="#A0A8AA" points="222.8,395.8 304.8,419.1 219.8,426.4 				"/>
			</g>
			<g>
				<polygon fill="#A0A8AA" points="218.1,396 303.1,393.8 224.5,426.1 				"/>
			</g>
			<g>
				<polygon fill="#A0A8AA" points="213.7,397.7 293.4,370.2 228.9,424.4 				"/>
			</g>
			<g>
				<polygon fill="#A0A8AA" points="210,400.7 276.7,350.6 232.6,421.5 				"/>
			</g>
			<g>
				<polygon fill="#A0A8AA" points="207.3,404.8 254.5,336.9 235.3,417.4 				"/>
			</g>
			<g>
				<polygon fill="#A0A8AA" points="206,409.6 229.1,330.4 236.6,412.6 				"/>
			</g>
			<g>
				<polygon fill="#A0A8AA" points="206.3,414.6 202.9,331.9 236.3,407.6 				"/>
			</g>
			<g>
				<polygon fill="#A0A8AA" points="208.2,419.1 178.5,341.1 234.4,403.1 				"/>
			</g>
			<g>
				<polygon fill="#A0A8AA" points="211.3,422.7 158.3,357.1 231.3,399.4 				"/>
			</g>
			<g>
				<polygon fill="#A0A8AA" points="215.3,425.2 144.3,378.5 227.3,396.9 				"/>
			</g>
			<g>
				<polygon fill="#A0A8AA" points="219.8,426.4 137.8,403 222.8,395.8 				"/>
			</g>
			<g>
				<polygon fill="#A0A8AA" points="224.5,426.1 139.5,428.3 218.1,396 				"/>
			</g>
			<g>
				<polygon fill="#A0A8AA" points="228.9,424.4 149.2,451.9 213.7,397.7 				"/>
			</g>
			<g>
				<polygon fill="#A0A8AA" points="232.6,421.5 165.9,471.6 210,400.7 				"/>
			</g>
			<g>
				<polygon fill="#A0A8AA" points="235.3,417.4 188.1,485.3 207.3,404.8 				"/>
			</g>
		</g>
	</g>
	<g clip-path="url(#SVGID_2_)">
		<path fill="#FFFFFF" d="M145.5,199.5c-1.4,1.7-3.1,2.7-5.1,3.2v7.9h-3.1v-7.8c-1.1-0.1-2-0.4-2.9-0.9c-0.9-0.5-1.7-1.1-2.6-1.8
			c0-0.8,0-1.6,0-2.4s0-1.6,0-2.4h3.1v3.4c0.4,0.3,0.8,0.5,1.3,0.7s0.9,0.3,1.3,0.4c0.2,0,0.3,0,0.5,0c0.2,0,0.3,0,0.5,0
			c1.6,0,3-0.5,4.2-1.6c1.2-1.1,1.9-2.5,1.9-4.4c0-1.6-0.5-2.9-1.6-3.9c-1-1.1-2.2-2-3.5-2.9c-0.1-0.1-0.2-0.2-0.3-0.2
			c-0.1-0.1-0.2-0.2-0.3-0.2c-0.1-0.1-0.2-0.1-0.3-0.2c-0.1-0.1-0.2-0.1-0.3-0.2c-1.3-0.9-2.5-1.9-3.5-2.9c-1-1-1.5-2.3-1.5-3.8
			c0-1.4,0.4-2.6,1.3-3.5c0.9-0.9,1.9-1.5,3-1.7v-3.6h3.1v3.9c0.3,0.1,0.6,0.3,0.8,0.4c0.2,0.2,0.5,0.4,0.8,0.6
			c0.1,0,0.2,0.1,0.3,0.2c0.1,0.1,0.2,0.2,0.3,0.3c0,0.6-0.1,1.2-0.1,1.8c0,0.6,0,1.2,0,1.9h-3.1v-2.2c-0.2-0.1-0.3-0.1-0.5-0.2
			c-0.2,0-0.3-0.1-0.5-0.1c-0.6,0-1.1,0.2-1.6,0.7c-0.5,0.4-0.7,1-0.7,1.6c0,0.6,0.3,1.2,0.8,1.8c0.5,0.6,1.2,1.1,1.9,1.7
			c0.2,0.2,0.5,0.4,0.8,0.5c0.3,0.2,0.6,0.4,0.8,0.5c0.1,0.1,0.2,0.2,0.4,0.2c0.1,0.1,0.3,0.2,0.4,0.3c1.6,1.1,3.1,2.3,4.4,3.7
			c1.3,1.4,2,3.3,2,5.6C147.6,195.9,146.9,197.8,145.5,199.5z"/>
		<path fill="#FFFFFF" d="M182.6,204.7c-3.9,3.9-8.6,5.9-14.2,5.9c-5.5,0-10.2-2-14.1-5.9c-3.9-3.9-5.9-8.6-5.9-14.1
			c0-5.5,2-10.3,5.9-14.2c3.9-3.9,8.6-5.8,14.1-5.8c5.5,0,10.3,1.9,14.2,5.8c3.9,3.9,5.9,8.6,5.9,14.2
			C188.5,196.1,186.5,200.8,182.6,204.7z M180.4,178.6c-3.3-3.3-7.3-5-12-5c-4.6,0-8.6,1.7-11.9,5s-5,7.3-5,12c0,4.6,1.7,8.6,5,11.9
			c3.3,3.3,7.3,5,11.9,5c4.7,0,8.7-1.7,12-5c3.3-3.3,5-7.3,5-11.9C185.3,185.9,183.7,181.9,180.4,178.6z"/>
		<path fill="#FFFFFF" d="M201.4,171h3l-11.2,44.1h-2.9L201.4,171z"/>
		<path fill="#FFFFFF" d="M218.7,210.6v-2.4h1c0.5,0,0.9-0.2,1.3-0.5c0.4-0.4,0.5-0.8,0.5-1.3v-20.5v-3.6c-1.3,1.1-2.3,2.4-3,3.9
			c-0.7,1.5-1.1,3.1-1.1,4.8h-0.1H215h-0.1c0-1.7-0.4-3.4-1.1-4.9c-0.8-1.5-1.8-2.8-3.1-3.9v3.7v20.5c0,0.5,0.2,0.9,0.6,1.3
			c0.4,0.4,0.8,0.5,1.3,0.5h1v2.4h-8.1v-2.4h0.9c0.5,0,0.9-0.2,1.3-0.5c0.4-0.4,0.5-0.8,0.5-1.3v-23c0-0.5-0.2-0.9-0.5-1.3
			c-0.4-0.4-0.8-0.5-1.3-0.5h-0.9V179h4.5c0,0,0.1,0,0.1,0s0.1,0,0.1,0c0.1,0,0.2,0,0.2,0c0.1,0,0.1,0.1,0.2,0.1
			c1.2,0.7,2.3,1.6,3.3,2.7s1.7,2.3,2.3,3.6c0.1-0.2,0.2-0.4,0.3-0.6c0.1-0.2,0.2-0.4,0.3-0.6c0.1-0.1,0.1-0.2,0.2-0.3
			c0.1-0.1,0.1-0.2,0.2-0.3c0.5-1,1.2-1.9,1.9-2.7c0.7-0.9,1.6-1.4,2.7-1.7l0.6-0.2h4.5v2.4h-1c-0.5,0-0.9,0.2-1.3,0.5
			c-0.4,0.4-0.6,0.8-0.6,1.3v23c0,0.5,0.2,0.9,0.6,1.3c0.4,0.4,0.8,0.5,1.3,0.5h1v2.4H218.7z"/>
		<path fill="#FFFFFF" d="M253,206c-3.1,3.1-6.8,4.6-11.2,4.6c-4.4,0-8.1-1.5-11.2-4.6s-4.6-6.8-4.6-11.2c0-4.4,1.5-8.1,4.6-11.2
			c3.1-3.1,6.8-4.6,11.2-4.6c4.4,0,8.1,1.5,11.2,4.6c3.1,3.1,4.6,6.8,4.6,11.2C257.6,199.2,256.1,202.9,253,206z M251.2,185.4
			c-2.6-2.6-5.8-3.9-9.5-3.9c-3.7,0-6.8,1.3-9.4,3.9c-2.6,2.6-3.9,5.8-3.9,9.5c0,3.7,1.3,6.8,3.9,9.4c2.6,2.6,5.8,3.9,9.4,3.9
			c3.7,0,6.8-1.3,9.5-3.9c2.6-2.6,3.9-5.8,3.9-9.4C255.2,191.1,253.8,188,251.2,185.4z"/>
		<path fill="#FFFFFF" d="M268.4,210.6v-2.4h0.9c0.5,0,0.9-0.2,1.3-0.5c0.4-0.4,0.5-0.8,0.5-1.3v-6.1c0-3.6-0.8-6.9-2.5-10.1
			c-1.6-3.2-3.9-5.8-6.8-7.9v24.1c0,0.5,0.2,0.9,0.5,1.3c0.4,0.4,0.8,0.5,1.3,0.5h1v2.4h-8.1v-2.4h1c0.5,0,0.9-0.2,1.3-0.5
			c0.4-0.4,0.5-0.8,0.5-1.3v-23c0-0.5-0.2-0.9-0.5-1.3c-0.4-0.4-0.8-0.5-1.3-0.5h-1V179h4.4c0,0,0.1,0,0.1,0c0,0,0.1,0,0.1,0
			c0.1,0,0.2,0,0.2,0c0.1,0,0.1,0.1,0.2,0.1c2.1,1.2,3.9,2.7,5.5,4.5c1.6,1.8,2.9,3.8,4,5.9v-6.3c0-0.5-0.2-0.9-0.5-1.3
			c-0.4-0.4-0.8-0.5-1.3-0.5h-0.9V179h8.1v2.4h-1c-0.5,0-0.9,0.2-1.3,0.5c-0.4,0.4-0.6,0.8-0.6,1.3v23c0,0.5,0.2,0.9,0.6,1.3
			c0.4,0.4,0.8,0.5,1.3,0.5h1v2.4H268.4z"/>
		<path fill="#FFFFFF" d="M288.6,184.2v-0.9c0-0.5-0.2-0.9-0.5-1.3c-0.4-0.4-0.8-0.5-1.3-0.5h-1.1v24.9c0,0.5,0.2,0.9,0.5,1.3
			c0.4,0.4,0.8,0.5,1.3,0.5h1v2.4h-8.1v-2.4h0.9c0.5,0,0.9-0.2,1.3-0.5c0.4-0.4,0.5-0.8,0.5-1.3v-24.9h-1c-0.5,0-0.9,0.2-1.3,0.5
			c-0.4,0.4-0.5,0.8-0.5,1.3v0.9h-2.4V179H291v5.2H288.6z"/>
		<path fill="#FFFFFF" d="M302.4,210.6v-2.4h1c0.5,0,0.9-0.2,1.3-0.5c0.4-0.4,0.5-0.8,0.5-1.3v-16.4h-7.8v16.4
			c0,0.5,0.2,0.9,0.5,1.3c0.4,0.4,0.8,0.5,1.3,0.5h1v2.4h-8.1v-2.4h1c0.5,0,0.9-0.2,1.3-0.5c0.4-0.4,0.5-0.8,0.5-1.3v-23
			c0-0.5-0.2-0.9-0.5-1.3c-0.4-0.4-0.8-0.5-1.3-0.5h-1V179h8.1v2.4h-1c-0.5,0-0.9,0.2-1.3,0.5c-0.4,0.4-0.5,0.8-0.5,1.3v4.2h7.8
			v-4.2c0-0.5-0.2-0.9-0.5-1.3c-0.4-0.4-0.8-0.5-1.3-0.5h-1V179h8.1v2.4h-1c-0.5,0-0.9,0.2-1.3,0.5c-0.4,0.4-0.5,0.8-0.5,1.3v23
			c0,0.5,0.2,0.9,0.5,1.3c0.4,0.4,0.8,0.5,1.3,0.5h1v2.4H302.4z"/>
	</g>
	
		<circle clip-path="url(#SVGID_2_)" fill="none" stroke="#3E5029" stroke-width="16" stroke-miterlimit="10" cx="220.3" cy="220.6" r="216.2"/>
</g>
</svg>
