<?xml version="1.0" encoding="utf-8"?>
<!-- Generator: Adobe Illustrator 17.1.0, SVG Export Plug-In . SVG Version: 6.00 Build 0)  -->
<!DOCTYPE svg PUBLIC "-//W3C//DTD SVG 1.1//EN" "http://www.w3.org/Graphics/SVG/1.1/DTD/svg11.dtd">
<svg version="1.1" id="Layer_1" xmlns="http://www.w3.org/2000/svg" xmlns:xlink="http://www.w3.org/1999/xlink" x="0px" y="0px"
	 viewBox="0 0 457.2 457.2" enable-background="new 0 0 457.2 457.2" xml:space="preserve">
<g>
	<g>
		<g>
			<path fill="#020202" d="M217.4,84.8c1.9,0,1.9-2.9,0-2.9C215.5,81.9,215.5,84.8,217.4,84.8L217.4,84.8z"/>
		</g>
	</g>
	<g>
		<g>
			<path fill="#020202" d="M217.4,84.8c1.9,0,1.9-2.9,0-2.9C215.5,81.9,215.5,84.8,217.4,84.8L217.4,84.8z"/>
		</g>
	</g>
	<g>
		<g>
			<defs>
				<circle id="SVGID_1_" cx="228.6" cy="229.1" r="223.1"/>
			</defs>
			<clipPath id="SVGID_2_">
				<use xlink:href="#SVGID_1_"  overflow="visible"/>
			</clipPath>
			
				<circle clip-path="url(#SVGID_2_)" fill="#020202" stroke="#3F5029" stroke-width="16" stroke-miterlimit="10" cx="228.6" cy="228.1" r="223.1"/>
		</g>
		<g>
			<defs>
				<circle id="SVGID_3_" cx="228.6" cy="229.1" r="223.1"/>
			</defs>
			<clipPath id="SVGID_4_">
				<use xlink:href="#SVGID_3_"  overflow="visible"/>
			</clipPath>
			
				<circle clip-path="url(#SVGID_4_)" fill="none" stroke="#3F5029" stroke-width="16" stroke-miterlimit="10" cx="761.9" cy="235.5" r="223.1"/>
		</g>
		<g>
			<defs>
				<circle id="SVGID_5_" cx="228.6" cy="229.1" r="223.1"/>
			</defs>
			<clipPath id="SVGID_6_">
				<use xlink:href="#SVGID_5_"  overflow="visible"/>
			</clipPath>
			<g clip-path="url(#SVGID_6_)">
				<g>
					<g>
						<polygon fill="#C46F29" points="253.8,385.7 218.5,498.8 205.5,381.1 						"/>
					</g>
					<g>
						<polygon fill="#C46F29" points="253.3,378 255.9,496.7 206,388.9 						"/>
					</g>
					<g>
						<polygon fill="#C46F29" points="250.4,370.7 290.8,483.5 208.9,396 						"/>
					</g>
					<g>
						<polygon fill="#C46F29" points="245.4,365 319.7,460.6 213.8,401.8 						"/>
					</g>
					<g>
						<polygon fill="#C46F29" points="239.1,361 339.7,430.1 220.1,405.7 						"/>
					</g>
					<g>
						<polygon fill="#C46F29" points="232,359.3 349,395 227.2,407.6 						"/>
					</g>
					<g>
						<polygon fill="#C46F29" points="224.7,359.7 346.6,358.8 234.6,407.2 						"/>
					</g>
					<g>
						<polygon fill="#C46F29" points="217.6,362.3 332.8,324.9 241.6,404.5 						"/>
					</g>
					<g>
						<polygon fill="#C46F29" points="211.8,367 308.9,296.8 247.5,399.7 						"/>
					</g>
					<g>
						<polygon fill="#C46F29" points="207.4,373.5 277.1,277.2 251.7,393.3 						"/>
					</g>
					<g>
						<polygon fill="#C46F29" points="205.5,381.1 240.8,268.1 253.8,385.7 						"/>
					</g>
					<g>
						<polygon fill="#C46F29" points="206,388.9 203.3,270.1 253.3,378 						"/>
					</g>
					<g>
						<polygon fill="#C46F29" points="208.9,396 168.4,283.2 250.4,370.7 						"/>
					</g>
					<g>
						<polygon fill="#C46F29" points="213.8,401.8 139.5,306.2 245.4,365 						"/>
					</g>
					<g>
						<polygon fill="#C46F29" points="220.1,405.7 119.5,336.8 239.1,361 						"/>
					</g>
					<g>
						<polygon fill="#C46F29" points="227.2,407.6 110.1,371.9 232,359.3 						"/>
					</g>
					<g>
						<polygon fill="#C46F29" points="234.6,407.2 112.6,408.1 224.7,359.7 						"/>
					</g>
					<g>
						<polygon fill="#C46F29" points="241.6,404.5 126.4,441.8 217.6,362.3 						"/>
					</g>
					<g>
						<polygon fill="#C46F29" points="247.5,399.7 150.4,470 211.8,367 						"/>
					</g>
					<g>
						<polygon fill="#C46F29" points="251.7,393.3 182,489.6 207.4,373.5 						"/>
					</g>
				</g>
			</g>
		</g>
		<g>
			<defs>
				<circle id="SVGID_7_" cx="228.6" cy="229.1" r="223.1"/>
			</defs>
			<clipPath id="SVGID_8_">
				<use xlink:href="#SVGID_7_"  overflow="visible"/>
			</clipPath>
			<rect x="215.7" y="318.6" clip-path="url(#SVGID_8_)" fill="none" width="70.8" height="69.8"/>
		</g>
		<g>
			<defs>
				<circle id="SVGID_9_" cx="228.6" cy="229.1" r="223.1"/>
			</defs>
			<clipPath id="SVGID_10_">
				<use xlink:href="#SVGID_9_"  overflow="visible"/>
			</clipPath>
			<g clip-path="url(#SVGID_10_)">
				<g>
					<g>
						<polygon fill="#A0A8AA" points="245.4,385 221.6,466.6 213.8,381.9 						"/>
					</g>
					<g>
						<polygon fill="#A0A8AA" points="245.1,379.8 248.6,465.2 214.1,387 						"/>
					</g>
					<g>
						<polygon fill="#A0A8AA" points="243.1,375.2 273.8,455.7 216.1,391.7 						"/>
					</g>
					<g>
						<polygon fill="#A0A8AA" points="239.9,371.4 294.6,439.1 219.3,395.4 						"/>
					</g>
					<g>
						<polygon fill="#A0A8AA" points="235.8,368.8 309.1,417.1 223.4,398 						"/>
					</g>
					<g>
						<polygon fill="#A0A8AA" points="231.2,367.6 315.8,391.7 228.1,399.2 						"/>
					</g>
					<g>
						<polygon fill="#A0A8AA" points="226.3,367.8 314,365.6 232.9,398.9 						"/>
					</g>
					<g>
						<polygon fill="#A0A8AA" points="221.8,369.6 304,341.2 237.5,397.2 						"/>
					</g>
					<g>
						<polygon fill="#A0A8AA" points="218,372.7 286.8,321 241.3,394.2 						"/>
					</g>
					<g>
						<polygon fill="#A0A8AA" points="215.2,376.9 263.9,306.9 244.1,389.9 						"/>
					</g>
					<g>
						<polygon fill="#A0A8AA" points="213.8,381.9 237.7,300.1 245.4,385 						"/>
					</g>
					<g>
						<polygon fill="#A0A8AA" points="214.1,387 210.6,301.7 245.1,379.8 						"/>
					</g>
					<g>
						<polygon fill="#A0A8AA" points="216.1,391.7 185.4,311.2 243.1,375.2 						"/>
					</g>
					<g>
						<polygon fill="#A0A8AA" points="219.3,395.4 164.6,327.7 239.9,371.4 						"/>
					</g>
					<g>
						<polygon fill="#A0A8AA" points="223.4,398 150.2,349.8 235.8,368.8 						"/>
					</g>
					<g>
						<polygon fill="#A0A8AA" points="228.1,399.2 143.4,375.1 231.2,367.6 						"/>
					</g>
					<g>
						<polygon fill="#A0A8AA" points="232.9,398.9 145.2,401.2 226.3,367.8 						"/>
					</g>
					<g>
						<polygon fill="#A0A8AA" points="237.5,397.2 155.2,425.5 221.8,369.6 						"/>
					</g>
					<g>
						<polygon fill="#A0A8AA" points="241.3,394.2 172.4,445.9 218,372.7 						"/>
					</g>
					<g>
						<polygon fill="#A0A8AA" points="244.1,389.9 195.4,460 215.2,376.9 						"/>
					</g>
				</g>
			</g>
		</g>
		<g>
			<defs>
				<circle id="SVGID_11_" cx="228.6" cy="229.1" r="223.1"/>
			</defs>
			<clipPath id="SVGID_12_">
				<use xlink:href="#SVGID_11_"  overflow="visible"/>
			</clipPath>
			<g clip-path="url(#SVGID_12_)">
				<path fill="#FFFFFF" d="M151.4,207.4c-1.4,1.8-3.2,2.8-5.3,3.3v8.2h-3.2v-8c-1.1-0.1-2.1-0.4-3-0.9s-1.8-1.1-2.7-1.9
					c0-0.8,0-1.7,0-2.5s0-1.7,0-2.5h3.2v3.5c0.4,0.3,0.8,0.5,1.3,0.7c0.5,0.2,0.9,0.3,1.3,0.4c0.2,0,0.3,0,0.5,0c0.2,0,0.3,0,0.5,0
					c1.7,0,3.1-0.5,4.3-1.7c1.2-1.1,2-2.6,2-4.5c0-1.7-0.5-3-1.7-4c-1-1.1-2.3-2.1-3.6-3c-0.1-0.1-0.2-0.2-0.3-0.2
					c-0.1-0.1-0.2-0.2-0.3-0.2c-0.1-0.1-0.2-0.1-0.3-0.2c-0.1-0.1-0.2-0.1-0.3-0.2c-1.3-0.9-2.6-2-3.6-3c-1-1-1.5-2.4-1.5-3.9
					c0-1.4,0.4-2.7,1.3-3.6c0.9-0.9,2-1.5,3.1-1.8v-3.7h3.2v4c0.3,0.1,0.6,0.3,0.8,0.4c0.2,0.2,0.5,0.4,0.8,0.6
					c0.1,0,0.2,0.1,0.3,0.2c0.1,0.1,0.2,0.2,0.3,0.3c0,0.6-0.1,1.2-0.1,1.9s0,1.2,0,2h-3.2v-2.3c-0.2-0.1-0.3-0.1-0.5-0.2
					c-0.2,0-0.3-0.1-0.5-0.1c-0.6,0-1.1,0.2-1.7,0.7c-0.5,0.4-0.7,1-0.7,1.7s0.3,1.2,0.8,1.9s1.2,1.1,2,1.8c0.2,0.2,0.5,0.4,0.8,0.5
					c0.3,0.2,0.6,0.4,0.8,0.5c0.1,0.1,0.2,0.2,0.4,0.2c0.1,0.1,0.3,0.2,0.4,0.3c1.7,1.1,3.2,2.4,4.5,3.8s2.1,3.4,2.1,5.8
					C153.6,203.7,152.8,205.6,151.4,207.4z"/>
				<path fill="#FFFFFF" d="M209.1,178h3.1l-11.6,45.5h-3L209.1,178z"/>
				<path fill="#FFFFFF" d="M226.9,218.8v-2.5h1c0.5,0,0.9-0.2,1.3-0.5c0.4-0.4,0.5-0.8,0.5-1.3v-21.2v-3.7c-1.3,1.1-2.4,2.5-3.1,4
					c-0.7,1.5-1.1,3.2-1.1,5h-0.1h-2.4H223c0-1.8-0.4-3.5-1.1-5.1c-0.8-1.5-1.9-2.9-3.2-4v3.8v21.2c0,0.5,0.2,0.9,0.6,1.3
					c0.4,0.4,0.8,0.5,1.3,0.5h1v2.5h-8.4v-2.5h0.9c0.5,0,0.9-0.2,1.3-0.5c0.4-0.4,0.5-0.8,0.5-1.3v-23.7c0-0.5-0.2-0.9-0.5-1.3
					c-0.4-0.4-0.8-0.5-1.3-0.5h-0.9v-2.7h4.6h0.1h0.1c0.1,0,0.2,0,0.2,0c0.1,0,0.1,0.1,0.2,0.1c1.2,0.7,2.4,1.7,3.4,2.8
					c1,1.1,1.8,2.4,2.4,3.7c0.1-0.2,0.2-0.4,0.3-0.6c0.1-0.2,0.2-0.4,0.3-0.6c0.1-0.1,0.1-0.2,0.2-0.3c0.1-0.1,0.1-0.2,0.2-0.3
					c0.5-1,1.2-2,2-2.8c0.7-0.9,1.7-1.4,2.8-1.8l0.6-0.2h4.6v2.5h-1c-0.5,0-0.9,0.2-1.3,0.5c-0.4,0.4-0.6,0.8-0.6,1.3v23.7
					c0,0.5,0.2,0.9,0.6,1.3c0.4,0.4,0.8,0.5,1.3,0.5h1v2.5h-8.5V218.8z"/>
				<path fill="#FFFFFF" d="M262.3,214.1c-3.2,3.2-7,4.7-11.6,4.7s-8.4-1.5-11.6-4.7c-3.2-3.2-4.7-7-4.7-11.6s1.5-8.4,4.7-11.6
					c3.2-3.2,7-4.7,11.6-4.7s8.4,1.5,11.6,4.7c3.2,3.2,4.7,7,4.7,11.6S265.5,210.9,262.3,214.1z M260.5,192.8c-2.7-2.7-6-4-9.8-4
					c-3.8,0-7,1.3-9.7,4c-2.7,2.7-4,6-4,9.8c0,3.8,1.3,7,4,9.7c2.7,2.7,6,4,9.7,4c3.8,0,7-1.3,9.8-4c2.7-2.7,4-6,4-9.7
					C264.6,198.7,263.2,195.5,260.5,192.8z"/>
				<path fill="#FFFFFF" d="M278.2,218.8v-2.5h0.9c0.5,0,0.9-0.2,1.3-0.5c0.4-0.4,0.5-0.8,0.5-1.3v-6.3c0-3.7-0.8-7.1-2.6-10.4
					c-1.7-3.3-4-6-7-8.2v24.9c0,0.5,0.2,0.9,0.5,1.3c0.4,0.4,0.8,0.5,1.3,0.5h1v2.5h-8.4v-2.5h1c0.5,0,0.9-0.2,1.3-0.5
					c0.4-0.4,0.5-0.8,0.5-1.3v-23.7c0-0.5-0.2-0.9-0.5-1.3c-0.4-0.4-0.8-0.5-1.3-0.5h-1v-2.7h4.5h0.1h0.1c0.1,0,0.2,0,0.2,0
					c0.1,0,0.1,0.1,0.2,0.1c2.2,1.2,4,2.8,5.7,4.6c1.7,1.9,3,3.9,4.1,6.1v-6.5c0-0.5-0.2-0.9-0.5-1.3c-0.4-0.4-0.8-0.5-1.3-0.5h-0.9
					v-2.5h8.4v2.5h-1c-0.5,0-0.9,0.2-1.3,0.5c-0.4,0.4-0.6,0.8-0.6,1.3v23.7c0,0.5,0.2,0.9,0.6,1.3c0.4,0.4,0.8,0.5,1.3,0.5h1v2.5
					h-8.3V218.8z"/>
				<path fill="#FFFFFF" d="M299.1,191.6v-0.9c0-0.5-0.2-0.9-0.5-1.3c-0.4-0.4-0.8-0.5-1.3-0.5h-1.1v25.7c0,0.5,0.2,0.9,0.5,1.3
					c0.4,0.4,0.8,0.5,1.3,0.5h1v2.5h-8.4v-2.5h0.9c0.5,0,0.9-0.2,1.3-0.5c0.4-0.4,0.5-0.8,0.5-1.3v-25.7h-1c-0.5,0-0.9,0.2-1.3,0.5
					c-0.4,0.4-0.5,0.8-0.5,1.3v0.9H288v-5.4h13.5v5.4H299.1z"/>
				<path fill="#FFFFFF" d="M313.3,218.8v-2.5h1c0.5,0,0.9-0.2,1.3-0.5c0.4-0.4,0.5-0.8,0.5-1.3v-16.9h-8v16.9
					c0,0.5,0.2,0.9,0.5,1.3c0.4,0.4,0.8,0.5,1.3,0.5h1v2.5h-8.4v-2.5h1c0.5,0,0.9-0.2,1.3-0.5c0.4-0.4,0.5-0.8,0.5-1.3v-23.7
					c0-0.5-0.2-0.9-0.5-1.3c-0.4-0.4-0.8-0.5-1.3-0.5h-1v-2.7h8.4v2.5h-1c-0.5,0-0.9,0.2-1.3,0.5c-0.4,0.4-0.5,0.8-0.5,1.3v4.3h8
					v-4.3c0-0.5-0.2-0.9-0.5-1.3c-0.4-0.4-0.8-0.5-1.3-0.5h-1v-2.5h8.4v2.5h-1c-0.5,0-0.9,0.2-1.3,0.5c-0.4,0.4-0.5,0.8-0.5,1.3
					v23.7c0,0.5,0.2,0.9,0.5,1.3c0.4,0.4,0.8,0.5,1.3,0.5h1v2.5h-8.4V218.8z"/>
			</g>
		</g>
		<g>
			<defs>
				<circle id="SVGID_13_" cx="228.6" cy="229.1" r="223.1"/>
			</defs>
			<clipPath id="SVGID_14_">
				<use xlink:href="#SVGID_13_"  overflow="visible"/>
			</clipPath>
			
				<circle clip-path="url(#SVGID_14_)" fill="none" stroke="#3F5029" stroke-width="16" stroke-miterlimit="10" cx="228.6" cy="229.1" r="223.1"/>
		</g>
	</g>
	<g>
		<path fill="#FFFFFF" d="M108.2,147.4c-3.9,3.8-8.6,5.8-13.9,5.8c-1.8,0-3.5-0.2-5.3-0.7c-1.8-0.5-3.4-1.1-4.9-2v2.7h-5V139h5v1.7
			v2c0,1.4,0.6,2.5,1.9,3.3c1.2,0.8,2.5,1.4,3.9,1.8c0.8,0.2,1.7,0.4,2.4,0.5c0.7,0.1,1.4,0.1,2,0.1c4,0,7.5-1.4,10.5-4.3
			c2.9-2.9,4.3-6.4,4.3-10.5c0-3.8-1.2-7-3.7-9.5c-2.5-2.5-5.2-4.7-8.2-6.8c-0.3-0.2-0.6-0.4-0.9-0.6c-0.3-0.2-0.6-0.4-0.9-0.6
			c-0.4-0.2-0.8-0.5-1.2-0.8c-0.4-0.3-0.8-0.5-1.1-0.8c-2.8-2-5.2-3.9-7.2-6.1c-2-2.1-3-4.7-3-7.8c0-3.2,1.1-5.9,3.5-8
			c2.3-2.2,5-3.2,7.8-3.1c0.6,0,1.3,0.1,2,0.2c0.6,0.1,1.3,0.3,2,0.5v-0.9h5v10.8h-5c0-0.3,0-0.6,0-0.9s0-0.7,0-1
			c0-1.2-0.4-2.2-1.2-2.8c-0.8-0.6-1.9-0.9-3-0.9c-0.1,0-0.1,0-0.2,0c-0.1,0-0.1,0-0.2,0c-1.4,0.1-2.8,0.7-3.9,1.9
			c-1.1,1.1-1.8,2.6-1.8,4.3c0,1.9,0.7,3.6,2.3,5.1c1.4,1.5,3.3,3,5.4,4.4c0.5,0.3,0.9,0.6,1.4,0.9c0.4,0.3,0.9,0.6,1.4,0.9
			c0.3,0.2,0.6,0.4,0.9,0.6c0.3,0.2,0.6,0.4,0.9,0.6c3.5,2.4,6.7,5.1,9.7,8.3c2.9,3.1,4.3,7.1,4.3,12.2
			C114,138.8,112.1,143.6,108.2,147.4z"/>
		<path fill="#FFFFFF" d="M129.4,99.7v-2c0-1-0.4-2-1.1-2.7c-0.7-0.7-1.7-1.1-2.7-1.1h-2.2v50.4c0,1,0.4,2,1.1,2.7s1.7,1.1,2.7,1.1
			h2v5h-16.4v-5h2c1,0,2-0.4,2.7-1.1c0.7-0.7,1.1-1.7,1.1-2.7V94.2h-2.1c-1,0-2,0.4-2.7,1.1s-1.1,1.7-1.1,2.7v2h-5V89.2h26.6v10.5
			H129.4z"/>
		<path fill="#FFFFFF" d="M155.6,153.2v-5h2c1,0,2-0.4,2.7-1.1c0.7-0.7,1.1-1.7,1.1-2.7v-6.7h-19.2v6.8c0,1,0.4,2,1.1,2.7
			c0.7,0.7,1.7,1.1,2.7,1.1h2v5h-16.4v-5h2c1,0,1.9-0.4,2.6-1.1c0.7-0.7,1-1.5,1.1-2.6v-6.9h-4v-5h4V113c0-5.4,1.3-10.1,3.9-14.1
			c2.6-4.1,6.1-7.5,10.5-10.1c4.5,2.7,8,6.1,10.6,10.1c2.6,4,3.9,8.8,3.9,14.2v31.6c0.1,0.9,0.4,1.9,1.1,2.6
			c0.7,0.7,1.5,1.1,2.6,1.1h2v5h-16.3V153.2z M161.3,113c0-3.7-0.8-7.2-2.6-10.5c-1.7-3.3-4-6-7.1-8c-3,2.1-5.4,4.7-7,8
			c-1.7,3.3-2.6,6.8-2.6,10.5v19.7h19.2V113H161.3z"/>
		<path fill="#FFFFFF" d="M197.6,153.2v-5h2c1,0,2-0.4,2.7-1.1c0.7-0.7,1.1-1.7,1.1-2.7V132c0-7.2-1.7-14-5.1-20.4
			c-3.3-6.4-7.9-11.8-13.6-15.9v48.8c0,1,0.4,2,1.1,2.7c0.7,0.7,1.7,1.1,2.7,1.1h2v5h-16.4v-5h2c1,0,2-0.4,2.7-1.1
			c0.7-0.7,1.1-1.7,1.1-2.7V97.9c0-1-0.4-2-1.1-2.7c-0.7-0.7-1.7-1.1-2.7-1.1h-2v-4.9h8.9c0.1,0,0.1,0,0.2,0c0.1,0,0.1,0,0.2,0.1
			c0.2,0,0.3,0,0.5,0c0.1,0,0.3,0.1,0.4,0.2c4.2,2.5,7.9,5.5,11.2,9.2c3.3,3.7,6,7.6,8,12V97.9c0-1-0.4-2-1.1-2.7
			c-0.7-0.7-1.7-1.1-2.7-1.1h-2v-4.9h16.4v5h-2.1c-0.9,0-1.9,0.4-2.6,1.1c-0.7,0.7-1.1,1.7-1.1,2.7v46.6c0,1,0.4,2,1.1,2.7
			c0.7,0.7,1.7,1.1,2.6,1.1h2.1v5h-16.6V153.2z"/>
		<path fill="#FFFFFF" d="M311.9,168.9c-9.7,3.9-19.6,6-29.7,6.1c-0.2,0-0.4,0-0.6,0c-0.2,0-0.4,0-0.6,0c-10,0-19.8-1.9-29.5-5.5
			c-9.6-3.6-18.4-9.1-26.3-16.2h-8.4v-5h1.9h0.1c1,0,2-0.4,2.7-1.1c0.7-0.7,1.1-1.7,1.1-2.6V97.9c0-1-0.4-2-1.1-2.7
			c-0.7-0.7-1.7-1.1-2.7-1.1h-2v-4.9h8.6c8.8,0.1,16.2,3.2,22.4,9.5c6.2,6.3,9.3,13.7,9.3,22.5c0,7.6-2.4,14.3-7.2,20.2
			c-4.9,5.8-10.8,9.5-18.1,11c7,5.9,14.9,10.3,23.3,13.3s17.1,4.4,25.8,4.3c9.8,0,19.3-1.9,28.7-5.6c9.3-3.7,17.8-9.3,25.1-16.6
			l3.5,3.5C330.4,159.1,321.7,165,311.9,168.9z M245,102.8c-4.9-5.2-10.6-8-17.5-8.7v54c6.9-0.6,12.8-3.5,17.5-8.7
			c4.9-5.2,7.2-11.2,7.2-18.4C252.2,114.2,249.7,108.1,245,102.8z"/>
		<path fill="#FFFFFF" d="M281,153.2v-5h2c1,0,2-0.4,2.7-1.1c0.7-0.7,1.1-1.7,1.1-2.7v-6.7h-19.2v6.8c0,1,0.4,2,1.1,2.7
			c0.7,0.7,1.7,1.1,2.7,1.1h2v5H257v-5h2c1,0,1.9-0.4,2.6-1.1c0.7-0.7,1-1.5,1.1-2.6v-6.9h-4v-5h4V113c0-5.4,1.3-10.1,3.9-14.1
			c2.6-4.1,6.1-7.5,10.5-10.1c4.5,2.7,8,6.1,10.6,10.1c2.6,4,3.9,8.8,3.9,14.2v31.6c0.1,0.9,0.4,1.9,1.1,2.6
			c0.7,0.7,1.5,1.1,2.6,1.1h2v5H281V153.2z M286.7,113c0-3.7-0.8-7.2-2.6-10.5c-1.7-3.3-4-6-7.1-8c-3,2.1-5.4,4.7-7,8
			c-1.7,3.3-2.6,6.8-2.6,10.5v19.7h19.2V113H286.7z"/>
		<path fill="#FFFFFF" d="M317.2,153.2v-5c1-0.1,1.8-0.4,2.2-0.8c0.4-0.4,0.6-1,0.6-1.5c0-0.2,0-0.5-0.1-0.8
			c-0.1-0.3-0.1-0.5-0.3-0.8c-0.1-0.3-0.3-0.6-0.4-0.8c-0.1-0.3-0.3-0.5-0.5-0.8c-0.9-1.3-1.9-2.7-2.8-4c-0.9-1.3-1.8-2.7-2.6-4
			c-0.5,0.2-1.1,0.3-1.7,0.4c-0.6,0.1-1.2,0.2-1.9,0.3v1.9v7.4c0,1,0.4,2,1.1,2.7c0.7,0.7,1.7,1.1,2.6,1.1h2.1v5h-16.4v-5h2
			c1,0,2-0.4,2.7-1.1s1.1-1.7,1.1-2.7V97.9c0-1-0.4-2-1.1-2.7c-0.7-0.7-1.7-1.1-2.7-1.1h-2v-4.9h8.9c6.2,0,11.5,2.3,15.8,6.8
			c4.3,4.5,6.5,10,6.5,16.2c0,4.4-1.1,8.5-3.4,12.1c-2.3,3.6-5.3,6.4-9,8.4c0.5,0.8,1,1.8,1.7,2.7c0.6,0.9,1.3,2,2.1,2.9
			c0.8,1.2,1.8,2.4,2.8,3.6c0.9,1.1,2,2.3,2.9,3.1c1,0.9,2.1,1.8,3,2.4c0.9,0.6,2,0.8,2.8,0.8h1.5h0.4v5h-17.9V153.2z M321.1,100.4
			c-3-3.4-6.7-5.4-11.1-6v35.9c4.4-0.6,8.2-2.6,11.1-6c3-3.4,4.5-7.4,4.5-12S324,103.8,321.1,100.4z"/>
		<path fill="#FFFFFF" d="M368.6,143.7c-6.2,6.2-13.6,9.4-22.4,9.5h-8.7v-5h2h0.1c1,0,2-0.4,2.7-1.1c0.7-0.7,1.1-1.7,1.1-2.6V97.9
			c0-1-0.4-2-1.1-2.7c-0.7-0.7-1.7-1.1-2.7-1.1h-2v-4.9h8.7c8.8,0.1,16.2,3.2,22.4,9.5c6.2,6.3,9.3,13.7,9.3,22.5
			S374.8,137.4,368.6,143.7z M365.8,102.8c-4.7-5.2-10.6-8-17.5-8.7v54c6.9-0.6,12.8-3.5,17.5-8.7c4.7-5.2,7.1-11.2,7.1-18.4
			C373,114.2,370.6,108.1,365.8,102.8z"/>
	</g>
	<g>
		<path fill="#FFFFFF" d="M160,221v-3.2h1.2c0.6,0,1.2-0.2,1.7-0.7c0.4-0.4,0.7-1,0.7-1.7v-29.6c0-0.6-0.2-1.2-0.7-1.7
			c-0.4-0.4-1-0.7-1.7-0.7H160v-3.1h6.8v35.1c0,0.6,0.2,1.2,0.7,1.7c0.4,0.4,1,0.7,1.7,0.7h1.2v3.2H160z"/>
		<path fill="#FFFFFF" d="M189.6,199c-1.3,2.3-2.8,4.5-4.4,6.8c-0.2,0.2-0.4,0.4-0.5,0.6c-0.2,0.2-0.3,0.4-0.5,0.6
			c-1.3,1.7-2.6,3.4-3.8,5.2c-1.2,1.8-2.2,3.6-2.8,5.6h7.1c0.6,0,1.2-0.2,1.7-0.7c0.4-0.5,0.6-1,0.6-1.7v-2.3h3.1v7.7l-16.5,0.1
			l0.3-1.9c0.5-2.6,1.4-5.1,2.9-7.2c1.4-2.2,3-4.3,4.5-6.5l0.1-0.1c0-0.1,0.1-0.1,0.1-0.1c0.1-0.2,0.3-0.4,0.5-0.6
			c0.2-0.2,0.3-0.4,0.5-0.6c1.5-2,2.8-4,4-6.1c1.1-2.1,1.8-4.1,1.8-6.4c0-2.4-0.8-4.3-2.5-5.8c-1.7-1.4-3.5-2.2-5.5-2.2
			c-0.5,0-1,0.1-1.7,0.2c-0.5,0.1-1,0.3-1.7,0.6c-0.8,0.4-1.4,0.9-1.8,1.7s-0.5,1.4-0.5,2.4h-3.1v-7.8h3.1v1.5
			c0.8-0.5,1.8-0.8,2.7-1.1c0.9-0.2,1.9-0.4,2.9-0.4c3,0,5.6,1,7.7,3.2s3.2,4.7,3.2,7.8C191.5,194.2,190.8,196.6,189.6,199z"/>
	</g>
</g>
<circle fill="none" stroke="#C57029" stroke-width="16" stroke-miterlimit="10" cx="227.6" cy="229.3" r="216.2"/>
</svg>
